<svg width="90" height="90" viewBox="0 0 90 90" fill="none" xmlns="http://www.w3.org/2000/svg">
<path fill-rule="evenodd" clip-rule="evenodd" d="M10.9471 16.742C5.62145 16.742 1.3042 21.0592 1.3042 26.3849V68.9779C1.3042 74.304 5.62145 78.6208 10.9471 78.6208C33.8827 78.6208 55.7179 78.6208 79.0528 78.6208C84.3782 78.6208 88.6956 74.304 88.6956 68.9779V48.487C88.6956 47.9981 88.5838 47.5156 88.3697 47.0764L79.4185 28.7494C77.8011 25.4384 74.4383 23.3385 70.7535 23.3385H61.6041C60.3289 19.5058 56.7133 16.742 52.4523 16.742H10.9471Z" fill="#09011A"/>
<path fill-rule="evenodd" clip-rule="evenodd" d="M88.6956 52.3341H65.4075C63.2944 52.3341 61.5815 50.6212 61.5815 48.5082V23.2719C61.5891 23.2941 61.5966 23.3163 61.604 23.3386H70.7535C74.4384 23.3386 77.8011 25.4386 79.4179 28.7496L88.3691 47.0765C88.5838 47.5158 88.6956 47.9983 88.6956 48.4872V52.3341Z" fill="white"/>
<path fill-rule="evenodd" clip-rule="evenodd" d="M25.0628 65.6235C18.3314 65.6235 12.8745 71.0801 12.8745 77.8115C12.8745 84.5428 18.3314 90 25.0628 90C31.7942 90 37.2511 84.5428 37.2511 77.8115C37.2511 71.0801 31.7942 65.6235 25.0628 65.6235Z" fill="white"/>
<path fill-rule="evenodd" clip-rule="evenodd" d="M65.8001 65.6235C59.0685 65.6235 53.6116 71.0801 53.6116 77.8115C53.6116 84.5428 59.0685 90 65.8001 90C72.5315 90 77.9881 84.5428 77.9881 77.8115C77.9881 71.0801 72.5315 65.6235 65.8001 65.6235Z" fill="white"/>
</svg>
