<svg width="85" height="85" viewBox="0 0 85 85" fill="none" xmlns="http://www.w3.org/2000/svg">
<g clip-path="url(#clip0_34_580)">
<path fill-rule="evenodd" clip-rule="evenodd" d="M44.5639 19.9816C44.4532 20.0109 44.3426 20.0416 44.2324 20.0737C41.1823 20.963 38.5375 22.8876 36.7532 25.5164C35.3408 27.5972 32.509 28.1391 30.4282 26.7267C28.3474 25.3143 27.8055 22.4825 29.2179 20.4017C32.1918 16.0204 36.5997 12.8127 41.6834 11.3306C42.939 10.9645 44.2165 10.7093 45.5017 10.5643C43.2208 9.30774 40.5632 8.88887 37.9942 9.39474C35.5267 9.88058 33.1325 8.2742 32.6466 5.80669C32.1608 3.3392 33.7672 0.945032 36.2347 0.459161C41.3145 -0.541091 46.5845 0.445533 50.9584 3.21568C53.7149 4.96146 55.9831 7.33173 57.6008 10.1025C60.6594 8.95918 63.9631 8.52082 67.2611 8.85426C72.457 9.3795 77.282 11.7836 80.8301 15.615C82.5392 17.4601 82.4287 20.3412 80.5836 22.05C78.7385 23.7588 75.857 23.6483 74.1485 21.8031C72.1079 19.5998 69.3332 18.2173 66.3455 17.9153L66.3121 17.9119C67.1372 18.8057 67.8846 19.7786 68.5415 20.8217C71.3125 25.22 72.2657 30.523 71.1996 35.6108C70.6835 38.0722 68.2701 39.6495 65.8088 39.1337C63.3474 38.6179 61.7701 36.2043 62.2861 33.7429C62.8672 30.9678 62.3475 28.0753 60.8363 25.6762C59.6287 23.7594 57.8637 22.2776 55.7981 21.4157C53.2061 23.1873 51.0248 26.088 49.3679 30.1006C47.4063 34.8511 46.3312 40.8257 46.1592 47.305C46.0925 49.819 44.0004 51.8028 41.4864 51.7361C38.9724 51.6694 36.9886 49.5773 37.0553 47.0633C37.2476 39.8212 38.4492 32.6814 40.9502 26.6248C41.925 24.2639 43.1205 22.0165 44.5639 19.9816Z" fill="#09011A"/>
<path fill-rule="evenodd" clip-rule="evenodd" d="M21.3733 48.3759C26.719 45.0556 32.6178 43.2997 38.6365 43.2997C44.6553 43.2997 50.5541 45.0556 55.8997 48.3759C60.6028 51.2972 64.7651 55.3573 68.1882 60.2791C66.232 60.8042 64.1015 61.931 62.6778 64.1835C62.1508 65.0171 61.611 65.6983 61.0834 66.2387C58.7994 68.5774 54.7724 68.5774 52.4885 66.2387C52.039 65.7785 51.5798 65.2151 51.1266 64.5405C48.7761 61.0422 44.7175 60.2829 42.3113 60.2829C39.9052 60.2829 35.8465 61.0422 33.4961 64.5405C33.0429 65.2151 32.5836 65.7785 32.1342 66.2387C29.8503 68.5774 25.8233 68.5774 23.5394 66.2387C23.0117 65.6983 22.4717 65.0171 21.9448 64.1835C19.692 60.6197 15.6705 59.8727 13.3686 59.8721C12.1208 59.8718 10.3888 60.0892 8.7019 60.8376C12.1961 55.6642 16.4934 51.407 21.3733 48.3759Z" fill="white"/>
<path fill-rule="evenodd" clip-rule="evenodd" d="M14.933 67.5986C14.4523 66.4766 13.3467 65.7523 12.1265 65.7584C10.9063 65.7651 9.80858 66.5015 9.33998 67.6284C8.6992 69.1687 7.72328 70.5475 6.48313 71.6635C5.24296 72.7794 3.76974 73.6057 2.1705 74.0811C0.882883 74.4636 0 75.6475 0 76.9905V81.9643C0 83.6406 1.35914 85 3.03571 85H81.9643C83.6406 85 85 83.6406 85 81.9643V76.9905C85 75.6475 84.1172 74.4636 82.8295 74.0811C81.2303 73.6057 79.7573 72.7794 78.5169 71.6635C77.2765 70.5475 76.3009 69.1687 75.6603 67.6284C75.1916 66.5015 74.0939 65.7651 72.8735 65.7584C71.6532 65.7523 70.5476 66.4766 70.0667 67.5986C69.0661 69.9325 67.3558 71.8918 65.178 73.1983C60.9869 75.7137 54.3705 75.7137 50.1789 73.1983C48.0013 71.8918 46.2907 69.9325 45.2902 67.5986C44.8118 66.4821 43.7143 65.7584 42.5 65.7584C41.2857 65.7584 40.1882 66.4821 39.7098 67.5986C38.7093 69.9325 36.9987 71.8918 34.8211 73.1983C30.6295 75.7137 24.0134 75.7137 19.8218 73.1983C17.6441 71.8918 15.9336 69.9325 14.933 67.5986Z" fill="#09011A"/>
</g>
<defs>
<clipPath id="clip0_34_580">
<rect width="85" height="85" fill="white"/>
</clipPath>
</defs>
</svg>
