<svg width="86" height="86" viewBox="0 0 86 86" fill="none" xmlns="http://www.w3.org/2000/svg">
<g clip-path="url(#clip0_34_600)">
<path fill-rule="evenodd" clip-rule="evenodd" d="M35.1023 64.5378C35.5344 63.3302 36.6783 62.5251 37.9605 62.5251H48.8254C50.1076 62.5251 51.2515 63.3302 51.6835 64.5378L55.8523 76.1859H61.6071C64.1219 76.1859 66.1607 78.224 66.1607 80.7394C66.1607 83.2542 64.1219 85.293 61.6071 85.293H25.1786C22.6637 85.293 20.625 83.2542 20.625 80.7394C20.625 78.224 22.6637 76.1859 25.1786 76.1859H30.9336L35.1023 64.5378Z" fill="white"/>
<path fill-rule="evenodd" clip-rule="evenodd" d="M84.3647 1.47116C86.2444 3.14195 86.4138 6.02014 84.743 7.89977L60.4573 35.2212C58.8839 36.9913 56.2164 37.2598 54.3217 35.8388L42.1789 26.7317C40.167 25.2228 39.7593 22.3686 41.2681 20.3567C42.7771 18.3448 45.6312 17.9371 47.6431 19.446L56.4341 26.0392L77.9363 1.84931C79.6071 -0.0303207 82.485 -0.199626 84.3647 1.47116Z" fill="white"/>
<path fill-rule="evenodd" clip-rule="evenodd" d="M66.4418 3.35663H9.73762C4.85278 3.35663 0.892822 7.3166 0.892822 12.2014V58.2618C0.892822 63.1468 4.85279 67.1066 9.73762 67.1066H77.048C81.933 67.1066 85.8928 63.1468 85.8928 58.2618V18.0292L66.1291 40.2633C61.9338 44.9835 54.8201 45.6996 49.7678 41.9103L37.625 32.8032C32.2599 28.7794 31.1726 21.1683 35.1964 15.8032C39.2202 10.4382 46.8313 9.35083 52.1964 13.3746L55.4008 15.7779L66.4418 3.35663Z" fill="#09011A"/>
</g>
<defs>
<clipPath id="clip0_34_600">
<rect width="85" height="85" fill="white" transform="translate(0.893066 0.292969)"/>
</clipPath>
</defs>
</svg>
