<svg width="85" height="85" viewBox="0 0 85 85" fill="none" xmlns="http://www.w3.org/2000/svg">
<path d="M17.9148 42.5015L17.9452 57.7812C17.9466 58.4396 18.162 59.0797 18.559 59.605L20.9807 57.775C18.559 59.605 18.559 59.605 18.559 59.605L18.5632 59.6106L18.5681 59.6171L18.5798 59.6323L18.6107 59.6721L18.703 59.7875C18.7782 59.8799 18.8807 60.0024 19.0112 60.1507C19.272 60.4471 19.6452 60.8472 20.1352 61.316C21.1146 62.2528 22.5659 63.4677 24.5233 64.6716C28.4578 67.0923 34.382 69.4329 42.4983 69.4329C50.6144 69.4329 56.5461 67.0923 60.4878 64.6735C62.4488 63.4701 63.9042 62.2558 64.8865 61.3202C65.3777 60.8515 65.7523 60.4519 66.014 60.1558C66.1451 60.0078 66.2477 59.8854 66.323 59.7932L66.4159 59.6781L66.4469 59.6384L66.4584 59.6232L66.4633 59.6168C66.4633 59.6168 66.4675 59.6112 64.0505 57.7748L66.4675 59.6112C66.8688 59.0829 67.0862 58.4376 67.0862 57.7742L67.0832 42.5L46.7212 51.3223C44.0262 52.4899 40.9681 52.4899 38.273 51.3223L17.9148 42.5015Z" fill="#09011A"/>
<path fill-rule="evenodd" clip-rule="evenodd" d="M10.293 24.7037C11.9696 24.7037 13.3288 26.4026 13.3288 28.4984V70.3345C13.3288 72.4303 11.9696 74.1291 10.293 74.1291C8.61647 74.1291 7.25732 72.4303 7.25732 70.3345V28.4984C7.25732 26.4026 8.61647 24.7037 10.293 24.7037Z" fill="white"/>
<path fill-rule="evenodd" clip-rule="evenodd" d="M10.2969 66.7711C6.14105 66.7711 2.77197 70.1402 2.77197 74.2961C2.77197 78.4519 6.14105 81.821 10.2969 81.821C14.4529 81.821 17.8219 78.4519 17.8219 74.2961C17.8219 70.1402 14.4529 66.7711 10.2969 66.7711Z" fill="#09011A"/>
<path fill-rule="evenodd" clip-rule="evenodd" d="M43.7069 5.41446C42.9369 5.08084 42.0631 5.08084 41.2931 5.41446L1.82883 22.5133C0.718566 22.9944 0 24.0889 0 25.2988C0 26.5088 0.718566 27.6033 1.82883 28.0843L41.2931 45.1832C42.0631 45.5168 42.9369 45.5168 43.7069 45.1832L83.1713 28.0843C84.2811 27.6033 85 26.5088 85 25.2988C85 24.0889 84.2811 22.9944 83.1713 22.5133L43.7069 5.41446Z" fill="#09011A"/>
<path fill-rule="evenodd" clip-rule="evenodd" d="M17.9148 35.0541L41.2931 45.1833C42.0631 45.517 42.9369 45.517 43.7068 45.1833L67.0862 35.0537V55.9757L67.0832 42.5L46.7212 51.3222C44.0262 52.4899 40.9681 52.4899 38.273 51.3222L17.9148 42.5015V35.0541ZM17.9148 42.5015L17.9416 55.9757H17.9148V42.5015Z" fill="white"/>
</svg>
