<svg width="104" height="85" viewBox="0 0 104 85" fill="none" xmlns="http://www.w3.org/2000/svg">
<path d="M78.4694 55.2655C77.8161 53.3522 77.6794 51.7655 78.0594 50.5055C83.0061 50.7589 86.5328 50.3789 88.6394 49.3655C95.2394 46.1789 98.5528 41.1389 98.5794 34.2455C98.5994 27.8155 94.0494 21.4955 87.7894 19.6855C86.5294 19.3189 85.2561 18.9789 83.9694 18.6655C83.5762 18.5712 83.2071 18.3941 82.8865 18.1459C82.5659 17.8977 82.3011 17.584 82.1094 17.2255C74.8394 3.75554 58.2494 2.27554 48.5194 13.9655C48.201 14.345 47.7608 14.6023 47.2739 14.6935C46.787 14.7847 46.2836 14.7041 45.8494 14.4655C44.1494 13.5355 42.5194 12.5055 40.5294 12.3255C36.5628 11.9855 33.4361 13.3855 31.1494 16.5255C30.0994 17.9655 29.7394 19.7155 29.2094 21.3955C29.0314 21.9591 28.6493 22.436 28.1373 22.7336C27.6253 23.0312 27.0201 23.1281 26.4394 23.0055C22.4194 22.1722 18.8094 22.6889 15.6094 24.5555C10.6894 27.4255 7.90944 33.5155 9.11944 38.9855C10.4794 45.0789 14.2394 48.8222 20.3994 50.2155C21.8594 50.5422 25.1628 50.6289 30.3094 50.4755L30.3394 55.4755C23.0394 56.1755 16.5794 56.0355 10.6694 51.2355C2.61943 44.6955 1.17943 32.8555 7.50943 24.8455C11.6961 19.5389 17.2261 17.0422 24.0994 17.3555C24.2763 17.3645 24.4525 17.3233 24.608 17.2367C24.7635 17.1501 24.8921 17.0216 24.9794 16.8655C25.7094 15.5755 26.2294 14.0655 27.2094 12.9455C32.3294 7.05887 38.4961 5.52221 45.7094 8.33554C46.1028 8.48888 46.4494 8.41554 46.7494 8.11554C53.8294 1.07554 64.2594 -1.25446 73.6094 2.57554C79.3594 4.92554 82.3694 8.35554 85.9594 13.0255C86.2194 13.3589 86.5461 13.5955 86.9394 13.7355C89.2894 14.5655 91.7994 15.2455 93.8694 16.6255C113.369 29.7055 102.109 59.2455 78.4694 55.2655Z" fill="white"/>
<path d="M57.7994 50.6855C57.2727 52.3389 57.2794 53.9055 57.8194 55.3855L57.7794 70.2755C57.7727 70.8289 58.0461 71.0755 58.5994 71.0155L61.2594 70.7355C61.3772 70.723 61.4962 70.7434 61.6031 70.7944C61.71 70.8455 61.8006 70.9252 61.8649 71.0247C61.9291 71.1242 61.9645 71.2396 61.9671 71.3581C61.9697 71.4765 61.9393 71.5933 61.8794 71.6955L54.6694 84.1955C54.6242 84.2742 54.5589 84.3393 54.4802 84.3843C54.4014 84.4293 54.3121 84.4524 54.2215 84.4514C54.1308 84.4504 54.0421 84.4252 53.9644 84.3785C53.8866 84.3318 53.8228 84.2652 53.7794 84.1855L46.6694 71.8155C46.6087 71.7093 46.5782 71.5886 46.5813 71.4663C46.5843 71.344 46.6208 71.2249 46.6867 71.1218C46.7527 71.0188 46.8456 70.9358 46.9553 70.8818C47.0651 70.8278 47.1876 70.8049 47.3094 70.8155L50.0994 71.0555C50.1846 71.0626 50.2702 71.0519 50.3509 71.0243C50.4315 70.9966 50.5053 70.9526 50.5675 70.8951C50.6298 70.8376 50.679 70.7679 50.712 70.6904C50.7451 70.613 50.7612 70.5296 50.7594 70.4455L50.6494 55.3255C51.1894 53.8922 51.2127 52.3555 50.7194 50.7155L50.8294 24.9355C50.8361 23.3755 51.5394 22.2522 52.9394 21.5655C53.4461 21.3255 53.9561 21.2422 54.4694 21.3155C56.6694 21.6422 57.7727 22.9189 57.7794 25.1455L57.7994 50.6855Z" fill="white"/>
<path d="M78.059 50.5056C77.679 51.7656 77.8157 53.3522 78.469 55.2656L78.019 63.7456C77.9857 64.2789 78.2357 64.5456 78.769 64.5456L98.4391 64.6556C100.379 64.6622 101.366 65.6356 101.399 67.5756L101.409 68.1356C101.449 70.4556 100.309 71.6156 97.989 71.6156L73.999 71.6256C73.2657 71.6284 72.5603 71.3434 72.0334 70.8315C71.5065 70.3195 71.1999 69.6212 71.179 68.8856L70.819 55.4656C70.4924 54.0189 70.519 52.4122 70.899 50.6456L71.069 37.6256C71.0757 37.1656 70.8524 36.9456 70.399 36.9656L67.399 37.1056C67.3024 37.1096 67.2064 37.0876 67.1211 37.0419C67.0359 36.9961 66.9645 36.9283 66.9144 36.8455C66.8643 36.7628 66.8374 36.668 66.8365 36.5713C66.8355 36.4745 66.8606 36.3793 66.909 36.2956L74.089 23.7256C74.1299 23.6527 74.1894 23.592 74.2614 23.5498C74.3335 23.5076 74.4155 23.4854 74.499 23.4854C74.5826 23.4854 74.6646 23.5076 74.7366 23.5498C74.8087 23.592 74.8682 23.6527 74.909 23.7256L82.319 36.4456C82.3591 36.5146 82.3797 36.5933 82.3785 36.6731C82.3773 36.7529 82.3545 36.8309 82.3123 36.8987C82.2702 36.9666 82.2104 37.0216 82.1394 37.0581C82.0683 37.0945 81.9887 37.1109 81.909 37.1056L78.919 36.9656C78.399 36.9456 78.1357 37.1956 78.129 37.7156L78.059 50.5056Z" fill="white"/>
<path d="M37.0792 50.5355L37.1892 55.5155L37.1692 68.4655C37.1666 69.2683 36.8465 70.0375 36.2788 70.6052C35.7112 71.1728 34.942 71.4929 34.1392 71.4955L15.3492 71.5655C15.0928 71.5681 14.8476 71.6701 14.6662 71.8495C14.4849 72.029 14.3818 72.2717 14.3792 72.5255L14.3592 75.2955C14.36 75.3869 14.3363 75.4766 14.2905 75.5557C14.2447 75.6348 14.1785 75.7004 14.0984 75.746C14.0183 75.7916 13.9273 75.8156 13.8344 75.8155C13.7415 75.8154 13.65 75.7913 13.5692 75.7455L1.0492 68.5355C0.991185 68.5009 0.943147 68.4519 0.909786 68.3932C0.876426 68.3344 0.858887 68.2681 0.858887 68.2005C0.858887 68.133 0.876426 68.0666 0.909786 68.0079C0.943147 67.9492 0.991185 67.9001 1.0492 67.8655L13.2492 60.5855C13.3683 60.5143 13.5043 60.4762 13.6431 60.4751C13.7819 60.474 13.9185 60.51 14.0387 60.5793C14.159 60.6486 14.2586 60.7487 14.3272 60.8694C14.3958 60.99 14.4311 61.1268 14.4292 61.2655L14.3892 63.9155C14.3759 64.3555 14.5892 64.5789 15.0292 64.5855L29.2792 64.6055C29.9325 64.6055 30.2625 64.2789 30.2692 63.6255L30.3392 55.4755L30.3092 50.4755L30.1892 32.0155C30.1692 29.8222 31.2459 28.5689 33.4192 28.2555C33.9392 28.1755 34.4559 28.2655 34.9692 28.5255C36.4025 29.2455 37.1159 30.4055 37.1092 32.0055L37.0792 50.5355Z" fill="white"/>
<path d="M50.7191 50.7156C51.2124 52.3556 51.1891 53.8923 50.6491 55.3256L37.1891 55.5156L37.0791 50.5356L50.7191 50.7156Z" fill="white"/>
<path d="M70.8992 50.6455C70.5192 52.4122 70.4926 54.0188 70.8192 55.4655L57.8192 55.3855C57.2792 53.9055 57.2726 52.3388 57.7992 50.6855L70.8992 50.6455Z" fill="white"/>
</svg>
