<svg width="229" height="34" viewBox="0 0 229 34" fill="none" xmlns="http://www.w3.org/2000/svg">
<path d="M55.604 23.4318C52.6425 20.5708 52.2447 17.1713 54.4105 13.2334C54.605 12.8798 54.6934 12.5021 54.6757 12.1003C54.4547 8.18649 56.4217 5.53443 60.5766 4.14411C61.0097 3.99946 61.3589 3.75434 61.6241 3.40877C64.1701 0.202191 67.631 -0.742102 72.0069 0.57589C72.4843 0.720547 72.9661 0.74064 73.4523 0.636165C77.6691 -0.28 81.0018 1.07416 83.4506 4.69863C83.6981 5.06028 84.0296 5.33754 84.4451 5.53041C88.3171 7.3306 89.9083 10.3845 89.2188 14.6921C89.1657 15.0135 89.1967 15.331 89.3116 15.6444C90.7172 19.5019 89.8951 22.6322 86.8452 25.0351C86.4379 25.3502 86.1346 25.7679 85.97 26.2406C84.6175 30.0097 81.6914 31.9264 77.1917 31.9907C76.7055 31.9987 76.2591 32.1233 75.8524 32.3644C72.2545 34.47 68.6742 34.245 65.1116 31.6893C64.7491 31.4322 64.3381 31.2755 63.8784 31.2192C59.476 30.6566 56.899 28.3863 56.1476 24.4082C56.0786 24.0469 55.8895 23.7073 55.604 23.4318ZM68.7714 2.37206C67.9051 2.45242 67.0829 2.62119 66.305 2.87836C65.2265 3.22393 64.4751 3.87891 64.0508 4.84329C63.3435 6.45863 63.1977 8.50393 63.6132 10.9792C63.6268 11.0628 63.6627 11.142 63.7177 11.2103C63.7728 11.2786 63.8456 11.3338 63.9299 11.3716C64.0142 11.4093 64.1077 11.4284 64.2025 11.4272C64.2973 11.4261 64.3908 11.4047 64.4751 11.3649C65.6022 10.8104 66.4774 9.78576 66.7161 8.64055C67.1139 6.6716 68.02 4.96786 69.4344 3.52932C70.3185 2.62119 70.0974 2.23543 68.7714 2.37206ZM71.2378 8.39946C74.4203 7.77261 76.0911 5.40987 79.7112 5.21699C80.4007 5.17681 80.4979 4.93973 80.0029 4.50576C76.1707 1.11836 72.4313 3.3726 70.0179 6.80822C69.0189 8.23069 69.4256 8.7611 71.2378 8.39946ZM62.4595 14.0773C61.328 12.1806 60.7357 10.1233 60.6826 7.90521C60.665 6.79617 60.2274 6.63946 59.3699 7.43507L58.256 8.47179C57.9549 8.74894 57.7204 9.08064 57.5675 9.44587C57.4145 9.8111 57.3465 10.2019 57.3676 10.5934C57.4913 13.1571 58.8704 15.2667 61.5048 16.9222C61.8938 17.1713 62.2032 17.107 62.433 16.7293C62.9723 15.8292 62.9811 14.9452 62.4595 14.0773ZM85.9833 12.4499C87.0971 12.8517 87.3668 12.5744 86.7921 11.6181C86.58 11.2725 86.1247 10.5291 85.4263 9.38795C84.8517 8.43964 83.9721 7.90119 82.7875 7.77261C80.5333 7.52348 78.4558 7.74448 76.5552 8.43562C76.0778 8.61243 75.9629 8.90576 76.2104 9.31562C76.6966 10.1273 77.3243 10.5653 78.0934 10.6296C80.5952 10.8466 83.2251 11.4533 85.9833 12.4499ZM77.4039 12.5704C75.7508 12.6267 74.6767 11.9275 74.1816 10.4729C74.0137 9.99069 73.7042 9.89425 73.2534 10.1836C71.9185 11.0194 70.5218 11.0997 69.0631 10.4247C68.7184 10.2639 68.4974 10.3564 68.4001 10.7019C68.02 12.1003 67.0741 12.9602 65.5624 13.2817C64.8641 13.4343 64.6917 13.796 65.0453 14.3666C65.7171 15.4596 65.5934 16.4802 64.674 17.4285C64.1171 18.0071 64.2187 18.4612 64.979 18.7907C66.2962 19.3533 66.9238 20.3016 66.8619 21.6356C66.8544 21.7548 66.8793 21.8738 66.9346 21.9821C66.9899 22.0903 67.0738 22.1844 67.1789 22.2561C67.2839 22.3277 67.4068 22.3745 67.5366 22.3925C67.6664 22.4104 67.7991 22.3989 67.9228 22.3589C69.3195 21.9008 70.5174 22.1942 71.5163 23.2389C71.9141 23.6649 72.2898 23.6528 72.6434 23.2028C73.5009 22.1178 74.6457 21.6236 76.0778 21.72C76.1838 21.7268 76.2902 21.7136 76.3901 21.6812C76.4899 21.6488 76.581 21.598 76.6573 21.532C76.7337 21.466 76.7935 21.3864 76.8331 21.2983C76.8726 21.2102 76.8909 21.1157 76.8867 21.0208C76.8514 19.7189 77.426 18.6782 78.6106 17.8986C79.2117 17.4968 79.2338 17.0669 78.6769 16.6088C77.5453 15.7087 77.311 14.6238 77.9741 13.354C78.0198 13.2701 78.0404 13.1769 78.0337 13.0835C78.027 12.99 77.9934 12.8995 77.936 12.8206C77.8786 12.7418 77.7995 12.6773 77.7062 12.6335C77.613 12.5896 77.5088 12.5679 77.4039 12.5704ZM87.4949 19.1765C87.5365 18.6398 87.458 18.102 87.2641 17.5962C87.0703 17.0904 86.7653 16.6272 86.3678 16.2351C84.9357 14.8206 83.1765 13.8281 81.0902 13.2575C80.4714 13.0807 80.1841 13.2897 80.2283 13.8844C80.3255 15.0095 80.8206 15.9377 81.7135 16.6691C83.3931 18.0674 84.5865 19.739 85.2937 21.6838C85.5501 22.383 85.9258 22.4393 86.4209 21.8526C87.0485 21.0972 87.4065 20.2051 87.4949 19.1765ZM64.5281 21.4548C62.0485 19.3452 58.7201 18.7545 56.7576 16.1628C56.6943 16.0784 56.6055 16.0124 56.502 15.9728C56.3984 15.9332 56.2845 15.9216 56.1738 15.9394C56.0632 15.9572 55.9606 16.0037 55.8783 16.0733C55.7961 16.1428 55.7376 16.2325 55.71 16.3315C54.331 21.2017 59.887 23.1184 63.9579 22.8893C64.1357 22.879 64.3064 22.8217 64.4489 22.7244C64.5914 22.6272 64.6995 22.4943 64.7601 22.3419C64.8206 22.1896 64.8309 22.0245 64.7897 21.8669C64.7485 21.7093 64.6576 21.5661 64.5281 21.4548ZM81.9389 20.4422C81.6472 19.8636 81.1079 19.5783 80.3211 19.5863C80.1709 19.5884 80.0229 19.6195 79.8868 19.6776C79.7508 19.7356 79.6299 19.8193 79.5321 19.923C79.4343 20.0267 79.3619 20.1481 79.3196 20.2792C79.2773 20.4103 79.2661 20.548 79.2868 20.6833C79.7377 23.6247 79.4901 26.3692 78.5442 28.9167C78.3498 29.4391 78.5398 29.6119 79.1144 29.4351C83.3489 28.1653 84.2904 25.1677 81.9389 20.4422ZM76.9928 25.0713C77.1873 24.2676 76.8337 23.91 75.932 23.9984C74.9596 24.1028 74.2126 24.5408 73.691 25.3123C72.4092 27.1929 70.7693 28.6877 68.7714 29.7967C67.799 30.3432 67.8565 30.7611 68.9438 31.0504C73.0633 32.1675 75.7463 30.1745 76.9928 25.0713ZM69.5273 26.3611C70.6411 25.5735 70.5262 24.9869 69.1825 24.6011C68.4488 24.3922 67.7283 24.3841 67.0211 24.577C64.6165 25.236 62.1678 25.4048 59.6749 25.0833C59.0826 25.0029 58.9367 25.1998 59.2373 25.674C61.5711 29.3226 65.0011 29.5516 69.5273 26.3611Z" fill="#FEE101"/>
<path d="M48.7748 22.8774L49.703 23.0341C50.2688 23.1225 50.5207 23.4239 50.4589 23.9382L50.26 25.6138C50.2246 25.9514 50.0213 26.1442 49.65 26.1925C46.1758 26.6505 43.5237 25.1798 43.5502 21.9612C43.6033 16.1749 43.6166 10.4569 43.59 4.80723C43.5812 4.60632 43.6917 4.50586 43.9215 4.50586L47.5549 4.51791C47.5966 4.51791 47.638 4.5254 47.6766 4.53994C47.7153 4.55448 47.7503 4.57579 47.7799 4.60265C47.8094 4.62952 47.8329 4.66141 47.8489 4.69651C47.8649 4.73162 47.8731 4.76924 47.8731 4.80723L47.8466 21.8768C47.8466 22.4474 48.156 22.7809 48.7748 22.8774Z" fill="white"/>
<path d="M218.241 12.2571C220.521 9.54477 225.68 9.67737 227.457 12.5585C229.194 15.3672 228.279 22.2626 228.385 25.433C228.394 25.7705 228.212 25.9393 227.841 25.9393H224.539C224.248 25.9393 224.102 25.8027 224.102 25.5294L224.115 16.0182C224.115 14.4109 223.235 13.6193 221.476 13.6434L220.415 13.6675C218.488 13.6916 217.525 14.5837 217.525 16.3437V25.3727C217.525 25.7504 217.317 25.9393 216.901 25.9393H213.931C213.463 25.9393 213.228 25.7304 213.228 25.3125V5.15682C213.228 5.07133 213.247 4.98669 213.283 4.90771C213.319 4.82873 213.372 4.75697 213.438 4.69652C213.505 4.63607 213.583 4.58812 213.67 4.55541C213.757 4.5227 213.85 4.50586 213.944 4.50586L217.233 4.52997C217.436 4.52997 217.538 4.62239 217.538 4.80723L217.525 12.0281C217.525 12.7594 217.763 12.8357 218.241 12.2571Z" fill="white"/>
<path d="M9.33879 22.66C12.5036 22.7645 14.086 21.3782 14.086 18.5011V6.01234C14.086 5.92282 14.1251 5.83697 14.1947 5.77367C14.2644 5.71037 14.3588 5.6748 14.4573 5.6748L18.0375 5.69891C18.1302 5.69898 18.2193 5.73293 18.2861 5.79364C18.3529 5.85434 18.3921 5.93706 18.3956 6.02439C18.4663 10.5329 18.453 14.8284 18.3558 18.911C18.2409 23.2829 15.77 25.6938 10.9433 26.1439C1.92629 26.9756 -0.142309 22.3466 0.162678 15.4271C0.304121 12.1723 0.304121 9.12248 0.162678 6.27755C0.1591 6.19955 0.172918 6.12171 0.203299 6.0487C0.23368 5.97569 0.279996 5.90902 0.33946 5.85271C0.398924 5.7964 0.470307 5.75161 0.549311 5.72104C0.628315 5.69046 0.713307 5.67474 0.799172 5.6748L4.02142 5.68686C4.17616 5.68686 4.32456 5.74274 4.43398 5.84221C4.5434 5.94168 4.60487 6.0766 4.60487 6.21727L4.61813 19.14C4.61813 21.3742 5.8425 22.5314 8.29123 22.6118L9.33879 22.66Z" fill="white"/>
<path d="M97.5463 18.1277L97.5331 25.3726C97.5331 25.7423 97.3298 25.9272 96.9231 25.9272H93.6876C93.5153 25.9272 93.35 25.8662 93.2281 25.7577C93.1063 25.6492 93.0378 25.502 93.0378 25.3485V6.36222C93.0378 5.91217 93.2854 5.68313 93.7804 5.6751C97.29 5.61884 100.609 5.655 103.739 5.78359C109.706 6.03674 110.979 13.4263 105.688 15.6685C105.299 15.8373 105.242 16.0744 105.516 16.3798C107.682 18.8068 109.105 21.9089 109.786 25.6861C109.812 25.8388 109.741 25.9191 109.573 25.9272C107.682 26.0316 106.316 25.9513 105.476 25.6861C105.441 25.678 105.419 25.6579 105.41 25.6258L102.877 18.8269C102.744 18.4572 102.484 18.192 102.095 18.0313C101.007 17.5652 99.7299 17.3683 98.2624 17.4406C97.785 17.4647 97.5463 17.6937 97.5463 18.1277ZM97.5331 9.25537V13.8603C97.5331 13.9658 97.5792 14.067 97.6612 14.1416C97.7433 14.2162 97.8546 14.2581 97.9707 14.2581H101.896C102.617 14.2579 103.308 14.0191 103.818 13.5941C104.327 13.1691 104.614 12.5928 104.614 11.9918V11.1239C104.614 10.8262 104.544 10.5314 104.407 10.2564C104.271 9.98143 104.071 9.73156 103.818 9.52111C103.566 9.31065 103.266 9.14373 102.936 9.02988C102.606 8.91603 102.253 8.85747 101.896 8.85756H97.9707C97.8546 8.85756 97.7433 8.89948 97.6612 8.97408C97.5792 9.04868 97.5331 9.14987 97.5331 9.25537Z" fill="white"/>
<path d="M27.7045 24.9747L27.7178 31.6049C27.7196 31.6829 27.704 31.7604 27.672 31.8328C27.64 31.9052 27.5922 31.971 27.5315 32.0262C27.4708 32.0814 27.3984 32.1248 27.3188 32.1539C27.2391 32.183 27.1538 32.1972 27.068 32.1955H24.3629C23.7441 32.1955 23.4347 31.9102 23.4347 31.3396V11.1479C23.4347 10.7621 23.6424 10.5692 24.0579 10.5692H27.0415C27.4393 10.5692 27.6691 10.75 27.731 11.1117C27.7752 11.3528 27.7752 11.5939 27.731 11.835C27.5896 12.5904 27.8283 12.711 28.4471 12.1966C29.2692 11.5336 29.9322 10.7139 31.0991 10.5331C42.0389 8.79717 42.3439 24.5166 34.2153 26.1079C31.9257 26.5579 30.003 26.0878 28.4471 24.6975C27.952 24.2474 27.7045 24.3398 27.7045 24.9747ZM35.2222 16.7961C35.2142 15.9681 34.8448 15.1769 34.1951 14.5965C33.5454 14.0161 32.6687 13.6941 31.7579 13.7013L31.1745 13.706C30.2636 13.7132 29.3933 14.0491 28.7548 14.6397C28.1164 15.2303 27.7622 16.0273 27.7701 16.8553L27.7983 19.7725C27.8062 20.6005 28.1756 21.3917 28.8253 21.9721C29.475 22.5525 30.3517 22.8745 31.2625 22.8673L31.846 22.8626C32.7568 22.8554 33.6271 22.5195 34.2656 21.9289C34.904 21.3383 35.2582 20.5413 35.2503 19.7133L35.2222 16.7961Z" fill="white"/>
<path d="M116.866 19.8514C117.132 23.3473 121.998 23.8416 124.239 21.4668C124.352 21.349 124.497 21.2603 124.657 21.2095C124.818 21.1587 124.989 21.1477 125.154 21.1775C126.586 21.4266 127.32 22.1298 127.355 23.287C127.364 23.6187 127.263 23.9457 127.064 24.2269C126.866 24.508 126.58 24.7305 126.241 24.8662C119.408 27.5986 114.935 26.3369 112.822 21.081C112.221 19.5862 112.186 17.8101 112.716 15.7528C113.856 11.2684 118.524 9.59279 123.245 10.6536C125.357 11.1358 126.697 12.3332 127.262 14.2459C127.545 15.1862 127.784 15.9859 127.979 16.6448C128.482 18.3245 127.775 19.1643 125.857 19.1643H117.582C117.079 19.1643 116.84 19.3933 116.866 19.8514ZM117.317 16.6328L123.576 16.5846C123.614 16.5846 123.651 16.5777 123.686 16.5642C123.721 16.5508 123.752 16.531 123.778 16.5062C123.804 16.4814 123.824 16.4521 123.837 16.42C123.851 16.3878 123.856 16.3536 123.855 16.3194V16.1747C123.844 15.4253 123.498 14.7102 122.892 14.186C122.285 13.6618 121.468 13.3713 120.619 13.378H120.221C119.799 13.3813 119.381 13.4582 118.992 13.6043C118.604 13.7504 118.251 13.9628 117.955 14.2294C117.66 14.4959 117.427 14.8114 117.269 15.1576C117.112 15.5039 117.034 15.8741 117.039 16.247V16.3917C117.042 16.4567 117.073 16.5181 117.125 16.563C117.177 16.6079 117.246 16.6329 117.317 16.6328Z" fill="white"/>
<path d="M138.666 20.4781C137.508 19.8674 136.173 19.4535 134.662 19.2365C129.61 18.5132 129.437 12.1603 134.198 10.7861C137.239 9.91009 140.054 10.2557 142.644 11.8228C142.746 11.8836 142.832 11.9633 142.897 12.0565C142.962 12.1497 143.005 12.2543 143.022 12.3636C143.04 12.4729 143.032 12.5843 142.999 12.6905C142.966 12.7968 142.908 12.8954 142.83 12.98L141.544 14.3422C141.45 14.4415 141.334 14.5217 141.204 14.5773C141.073 14.633 140.931 14.6629 140.787 14.6652C140.643 14.6675 140.5 14.642 140.368 14.5905C140.235 14.539 140.116 14.4626 140.019 14.3663C139.126 13.4823 138.202 13.1609 137.247 13.402C133.561 14.3583 133.588 15.3548 137.327 16.3916C139.621 17.0305 142.87 17.2836 143.573 19.9477C144.28 22.6159 143.365 24.4683 140.828 25.505C137.442 26.8792 134.069 26.4734 130.71 24.2874C130.091 23.8937 130.025 23.4356 130.511 22.9132L131.824 21.4907C132.248 21.0407 132.69 21.0246 133.15 21.4425C134.962 23.09 136.774 23.4959 138.587 22.6601C140.09 21.9689 140.116 21.2416 138.666 20.4781Z" fill="white"/>
<path d="M150.667 19.9843C151.237 23.6008 155.984 23.6731 158.318 21.2862C158.574 21.0291 158.866 20.9889 159.193 21.1657L161.196 22.3109C161.523 22.4957 161.589 22.7409 161.394 23.0462C157.867 28.4347 148.413 26.8556 146.609 21.0813C144.647 14.7887 149.009 9.14706 156.647 10.5695C159.078 11.0196 160.608 12.3376 161.235 14.5235C161.386 15.0539 161.562 15.6727 161.766 16.3799C162.367 18.4935 161.47 19.4499 159.074 19.249C156.678 19.0481 154.106 19.036 151.356 19.2128C150.817 19.245 150.587 19.5021 150.667 19.9843ZM151.131 16.609L157.39 16.5608C157.428 16.5608 157.465 16.5539 157.5 16.5404C157.534 16.5269 157.566 16.5072 157.592 16.4824C157.618 16.4576 157.638 16.4283 157.651 16.3961C157.664 16.364 157.67 16.3298 157.668 16.2956V16.175C157.658 15.4256 157.31 14.7104 156.702 14.1863C156.093 13.6621 155.272 13.3715 154.42 13.3783H154.048C153.624 13.3816 153.205 13.4585 152.814 13.6046C152.424 13.7507 152.07 13.9632 151.773 14.2297C151.476 14.4963 151.242 14.8117 151.084 15.158C150.926 15.5042 150.847 15.8744 150.853 16.2473V16.3679C150.856 16.4329 150.887 16.4942 150.939 16.5391C150.991 16.584 151.059 16.6091 151.131 16.609Z" fill="white"/>
<path d="M173.819 24.4083C171.114 27.2171 165.399 26.9398 164.365 22.8291C162.986 17.3442 169.139 17.3201 172.865 16.2713C173.114 16.2023 173.338 16.0745 173.515 15.9008C173.692 15.7272 173.816 15.5139 173.872 15.2828C174.102 14.3907 173.731 13.8523 172.759 13.6675C170.655 13.2656 168.763 13.7679 167.083 15.1743C166.65 15.536 166.279 15.4918 165.969 15.0417L164.988 13.6554C164.848 13.4571 164.798 13.2175 164.847 12.9863C164.897 12.7551 165.042 12.5501 165.253 12.4138C168.498 10.26 171.817 9.75768 175.212 10.9069C179.23 12.257 178.275 18.6823 178.036 21.8165C178.01 22.2023 178.169 22.5076 178.514 22.7327C178.735 22.8854 178.986 22.9537 179.269 22.9376C179.782 22.9215 180.109 23.1385 180.251 23.5886C180.436 24.1592 180.396 24.7498 180.131 25.3606C180.066 25.5119 179.959 25.6456 179.819 25.749C179.68 25.8524 179.514 25.922 179.336 25.9513C177.143 26.3612 175.605 25.8709 174.721 24.4806C174.465 24.0708 174.164 24.0466 173.819 24.4083ZM172.878 18.7787C171.366 19.4055 169.855 18.9595 168.767 20.3579C168.577 20.6016 168.457 20.8848 168.419 21.1816C168.381 21.4783 168.425 21.7791 168.547 22.0563C168.67 22.3335 168.868 22.5782 169.121 22.768C169.375 22.9578 169.678 23.0866 170 23.1425C172.599 23.5926 173.965 22.3871 174.098 19.5261C174.133 18.6823 173.727 18.4331 172.878 18.7787Z" fill="white"/>
<path d="M203.602 22.9375C205.237 22.9456 206.502 22.166 207.394 20.5989C207.425 20.5457 207.467 20.4988 207.518 20.4611C207.569 20.4235 207.628 20.3958 207.692 20.38C207.755 20.3641 207.822 20.3604 207.887 20.369C207.952 20.3777 208.015 20.3985 208.071 20.4301L210.351 21.6718C210.67 21.8405 210.754 22.0816 210.603 22.3951C207.885 27.9403 199.253 27.2531 196.455 22.4433C194.466 19.0197 195.168 13.5468 199.213 11.4011C202.528 9.62901 207.845 9.85805 210.166 13.137C210.449 13.5227 210.387 13.8602 209.98 14.1496L208.137 15.4756C207.704 15.781 207.337 15.7328 207.036 15.3309C205.887 13.804 204.362 13.3057 202.462 13.8361C198.484 14.9693 198.868 22.9134 203.602 22.9375Z" fill="white"/>
<path d="M188.247 12.3413C188.388 12.2368 188.468 12.1082 188.485 11.9555C188.547 11.4974 188.808 11.172 189.268 10.9791C190.461 10.4728 191.721 10.3563 193.047 10.6295C193.231 10.6698 193.392 10.7715 193.497 10.9143C193.603 11.0572 193.645 11.2309 193.617 11.401L193.206 13.7999C193.153 14.1535 192.932 14.2942 192.543 14.2218C189.175 13.603 187.464 14.8929 187.411 18.0914C187.376 20.7676 187.38 23.2589 187.424 25.5654C187.424 25.7904 187.305 25.9029 187.066 25.9029L183.473 25.9391C183.225 25.9391 183.102 25.8266 183.102 25.6016L183.115 11.1961C183.115 10.7782 183.34 10.5692 183.791 10.5692L186.244 10.5572C186.757 10.5572 187.075 10.7862 187.199 11.2443L187.438 12.1002C187.57 12.5743 187.84 12.6547 188.247 12.3413Z" fill="white"/>
</svg>
