<svg width="114" height="112" viewBox="0 0 114 112" fill="none" xmlns="http://www.w3.org/2000/svg">
<path d="M82.3782 47.5521C82.3485 47.4803 82.443 47.4392 82.6618 47.4287C83.3061 47.3972 83.9503 47.3762 84.5946 47.3657C84.5946 47.3674 84.5937 47.3674 84.5919 47.3657C83.9197 47.3744 83.2325 47.3718 82.5305 47.3578C82.4903 47.356 82.4605 47.3376 82.4412 47.3026C82.4237 47.2694 82.4281 47.2457 82.4544 47.2317C82.6067 47.1442 82.5953 47.0987 82.4202 47.0952C82.3712 47.0934 82.3239 47.0969 82.2784 47.1057C82.1384 47.1302 82.1165 47.0899 82.2128 46.9849C82.4596 46.717 82.7336 46.6934 83.0347 46.914C83.1047 46.9648 83.1783 46.9718 83.2553 46.935C83.3288 46.9 83.3936 46.8431 83.4496 46.7643C83.5021 46.6873 83.5083 46.6059 83.468 46.5201C83.328 46.219 83.061 46.1323 82.6671 46.2601C82.513 46.3091 82.3975 46.2566 82.3204 46.1025C82.3099 46.0798 82.3169 46.0684 82.3414 46.0684C82.366 46.0684 82.3896 46.0649 82.4124 46.0579C82.5069 46.0229 82.5086 45.9826 82.4176 45.9371C82.3773 45.9161 82.3467 45.8846 82.3257 45.8426C82.2889 45.769 82.2714 45.7725 82.2732 45.8531C82.2732 45.8828 82.2618 45.9073 82.239 45.9266C82.2005 45.9581 82.1646 45.9555 82.1314 45.9187C82.0386 45.8154 81.9817 45.7043 81.9607 45.5852C81.9554 45.5467 81.9388 45.5126 81.9108 45.4828C81.755 45.313 81.7121 45.0906 81.7821 44.8158C81.7839 44.8053 81.79 44.8 81.8005 44.8C81.8057 44.8018 81.7987 44.8035 81.7795 44.8053C81.769 44.807 81.7637 44.8132 81.7637 44.8237C81.769 44.969 81.7716 45.116 81.7716 45.2648C81.7699 45.3821 81.7165 45.4145 81.6114 45.362C81.4468 45.2797 81.2762 45.278 81.0993 45.3568C80.9715 45.4145 80.8394 45.4242 80.7028 45.3856L80.196 45.2412C80.105 45.2167 80.0218 45.2333 79.9465 45.2911C79.859 45.3611 79.7723 45.3629 79.6865 45.2964C79.6393 45.2596 79.6165 45.2132 79.6183 45.1572C79.6183 45.0451 79.6016 45.0425 79.5684 45.1493C79.4791 45.4242 79.4485 45.6973 79.4765 45.9686C79.48 46.0089 79.4703 46.0474 79.4476 46.0842C79.4283 46.1157 79.4012 46.1358 79.3662 46.1446C79.3519 46.1481 79.3368 46.1463 79.3238 46.1396C79.3107 46.1328 79.3006 46.1215 79.2953 46.1078C79.283 46.0798 79.2673 46.0553 79.248 46.0343C79.2375 44.2276 79.2357 42.42 79.2428 40.6115C79.248 38.9712 79.1438 37.8525 78.9303 37.2555C78.3665 35.6729 77.3144 34.6233 75.7738 34.1069C75.1348 33.8916 73.9636 33.7874 72.2602 33.7944C61.7246 33.8347 51.1059 33.8417 40.404 33.8154C39.9759 33.8154 39.5426 33.9073 39.112 33.9625C39.0489 33.8592 39.1356 33.8023 39.3719 33.7918C39.3964 33.79 39.4139 33.7786 39.4244 33.7576C39.4367 33.7349 39.4411 33.7112 39.4376 33.6867C39.4288 33.6342 39.3991 33.608 39.3483 33.608C39.1575 33.608 39.0244 33.5239 38.9491 33.3559C38.9054 33.2631 38.8336 33.2079 38.7338 33.1904C38.6498 33.1747 38.5771 33.1388 38.5159 33.0828C38.0292 32.6363 37.7289 32.098 37.6151 31.4678C37.6011 31.3855 37.5652 31.3137 37.5075 31.2524C37.4182 31.1596 37.3902 31.0012 37.4234 30.7771C37.497 30.4882 37.5346 30.0339 37.5363 29.4142C37.5539 25.0865 37.5433 21.0153 37.5048 17.2006C37.5031 16.9888 37.4269 16.8076 37.2764 16.657L29.8526 9.24639C29.7616 9.15536 29.6592 9.1396 29.5454 9.19912C27.6056 10.2128 25.8077 10.1349 24.1515 8.96541C20.5171 6.40242 21.9982 0.530642 26.4729 0.0658371C28.2087 -0.115358 29.9997 0.609423 30.9976 2.03798C32.1758 3.72738 32.2659 5.56121 31.268 7.53948C31.2491 7.57699 31.2427 7.61977 31.2498 7.66173C31.2568 7.70369 31.277 7.7427 31.3074 7.7732L39.3168 15.7957C39.485 15.964 39.5794 16.1916 39.5794 16.4286L39.5846 30.5959C39.5846 30.6869 39.6302 30.7325 39.7212 30.7325L46.6381 30.7141C46.7327 30.7141 46.7799 30.6668 46.7799 30.5723L46.8535 22.7625C46.8542 22.674 46.8258 22.5878 46.7725 22.5174C46.7193 22.4471 46.6443 22.3966 46.5593 22.3739C46.0411 22.2355 45.5956 22.0316 45.2227 21.762C43.2514 20.3352 42.5687 18.4742 43.1744 16.1791C43.4808 15.0236 44.2502 14.0818 45.4827 13.3535C46.6329 12.6725 47.9415 12.5429 49.4086 12.9648C52.1711 13.7631 53.6916 16.959 52.4311 19.6165C51.7676 21.0153 50.719 21.9336 49.2851 22.3712C49.1971 22.3977 49.1199 22.4519 49.0651 22.5257C49.0102 22.5995 48.9806 22.6889 48.9805 22.7809L48.9727 30.4804C48.9723 30.5089 48.9777 30.5371 48.9885 30.5636C48.9993 30.59 49.0153 30.614 49.0356 30.6343C49.0558 30.6546 49.08 30.6707 49.1066 30.6817C49.1332 30.6927 49.1618 30.6983 49.1906 30.6983L56.0419 30.7272C56.1592 30.729 56.217 30.6712 56.2152 30.5539L56.2021 12.4055C56.2012 12.363 56.1866 12.322 56.1605 12.2888C56.1344 12.2556 56.0983 12.232 56.0576 12.2217C52.0398 11.1896 50.9816 5.95599 54.3087 3.46128C56.6695 1.68872 60.1411 2.45289 61.5303 4.98699C63.1295 7.90975 61.6852 11.2684 58.4841 12.2112C58.4388 12.2238 58.3988 12.2509 58.3704 12.2884C58.3419 12.3258 58.3265 12.3716 58.3265 12.4186C58.302 18.0295 58.2871 23.5757 58.2819 29.0571C58.2819 29.5262 58.2933 30.0068 58.316 30.4988C58.3187 30.5561 58.3434 30.6102 58.385 30.6498C58.4266 30.6895 58.4818 30.7115 58.5392 30.7115L65.4325 30.7351C65.5096 30.7351 65.5481 30.6966 65.5481 30.6195L65.5717 19.5982C65.5717 19.5214 65.5469 19.4466 65.5011 19.3847C65.4553 19.3229 65.3908 19.2771 65.317 19.2541C63.7064 18.771 62.5912 17.7573 61.9714 16.2132C61.3333 14.6271 61.6957 12.6077 62.8275 11.3498C64.1878 9.839 65.7967 9.28578 67.6541 9.69019C72.7145 10.7931 72.8169 17.9989 67.8222 19.2699C67.7734 19.2827 67.7302 19.3112 67.6993 19.3511C67.6684 19.391 67.6516 19.44 67.6515 19.4905L67.641 30.5381C67.641 30.5883 67.6609 30.6364 67.6964 30.6718C67.7318 30.7073 67.7799 30.7272 67.8301 30.7272H74.7181C74.7717 30.7272 74.8232 30.7059 74.8611 30.668C74.899 30.6301 74.9203 30.5786 74.9203 30.525L74.9019 15.5488C74.9019 15.4523 74.921 15.3568 74.9579 15.268C74.9949 15.1792 75.0491 15.0988 75.1173 15.0315L79.4423 10.7537C79.4994 10.6972 79.5368 10.6238 79.5491 10.5444C79.5614 10.465 79.5479 10.3837 79.5106 10.3126C78.3341 8.03055 78.967 5.13142 81.1755 3.75014C83.3288 2.40299 86.136 2.85204 87.6959 4.81368C89.479 7.05367 88.9879 10.2548 86.6718 11.9302C85.0646 13.0961 82.9271 13.0988 81.2438 12.1193C81.1597 12.0702 81.0836 12.0799 81.0153 12.1481L77.1813 15.9138C77.1206 15.973 77.0724 16.0439 77.0395 16.1223C77.0065 16.2008 76.9896 16.2853 76.9896 16.3708L76.9739 30.5276C76.9739 30.6292 77.0255 30.6852 77.1288 30.6957C80.266 31.0196 82.0071 32.7571 82.352 35.9083C82.3592 35.9747 82.3915 36.0358 82.4423 36.0793C82.493 36.1227 82.5584 36.1451 82.6251 36.1421C82.9052 36.1298 83.1792 36.1219 83.447 36.1184C87.3423 36.0554 91.3023 36.0607 95.3271 36.1342C95.7079 36.1421 96.086 36.1447 96.3749 35.8506C98.9886 33.1878 101.691 30.4734 104.481 27.7073C104.562 27.6285 104.573 27.5401 104.516 27.4421C102.887 24.6874 104.116 21.2447 107.17 20.2048C110.981 18.9101 114.702 22.5682 113.405 26.4626C113.093 27.3939 112.57 28.1423 111.837 28.7078C110.147 30.0103 108.255 30.1495 106.159 29.1253C106.074 29.0833 105.997 29.0965 105.931 29.1647L97.118 38.0591C97.0716 38.1064 97.0161 38.1441 96.9547 38.1698C96.8934 38.1955 96.8275 38.2087 96.7609 38.2087L82.5253 38.2009C82.4702 38.2009 82.4175 38.2227 82.3786 38.2616C82.3397 38.3005 82.3178 38.3533 82.3178 38.4083L82.3231 45.3594C82.3231 45.3935 82.3366 45.4262 82.3608 45.4504C82.3849 45.4745 82.4176 45.4881 82.4517 45.4881L88.4259 45.4329C88.4937 45.4322 88.5594 45.4102 88.6136 45.3701C88.6679 45.33 88.7079 45.2739 88.7279 45.2097C89.4474 42.9645 91.4432 41.4361 93.8066 41.5884C98.4704 41.8878 100.012 47.7333 96.4458 50.4749C94.1795 52.2133 90.8865 51.5699 89.366 49.1435C89.0956 48.7102 88.9406 48.2086 88.7253 47.7438C88.6798 47.6493 88.6054 47.6011 88.5021 47.5994L82.3782 47.5521ZM29.8894 4.9476C29.8894 4.18916 29.5881 3.46177 29.0518 2.92547C28.5155 2.38916 27.7881 2.08787 27.0297 2.08787C26.2712 2.08787 25.5438 2.38916 25.0075 2.92547C24.4712 3.46177 24.1699 4.18916 24.1699 4.9476C24.1699 5.70605 24.4712 6.43344 25.0075 6.96974C25.5438 7.50604 26.2712 7.80734 27.0297 7.80734C27.7881 7.80734 28.5155 7.50604 29.0518 6.96974C29.5881 6.43344 29.8894 5.70605 29.8894 4.9476ZM60.1175 7.42656C60.1175 6.66742 59.8159 5.93937 59.2791 5.40257C58.7423 4.86577 58.0143 4.56421 57.2551 4.56421C56.496 4.56421 55.7679 4.86577 55.2311 5.40257C54.6943 5.93937 54.3927 6.66742 54.3927 7.42656C54.3927 8.18571 54.6943 8.91376 55.2311 9.45056C55.7679 9.98735 56.496 10.2889 57.2551 10.2889C58.0143 10.2889 58.7423 9.98735 59.2791 9.45056C59.8159 8.91376 60.1175 8.18571 60.1175 7.42656ZM86.6875 7.88349C86.6875 7.12435 86.3859 6.39629 85.8491 5.8595C85.3123 5.3227 84.5843 5.02113 83.8252 5.02113C83.066 5.02113 82.338 5.3227 81.8012 5.8595C81.2644 6.39629 80.9628 7.12435 80.9628 7.88349C80.9628 8.64264 81.2644 9.37069 81.8012 9.90748C82.338 10.4443 83.066 10.7458 83.8252 10.7458C84.5843 10.7458 85.3123 10.4443 85.8491 9.90748C86.3859 9.37069 86.6875 8.64264 86.6875 7.88349ZM69.4687 14.4879C69.4687 13.7288 69.1671 13.0007 68.6303 12.4639C68.0936 11.9271 67.3655 11.6256 66.6064 11.6256C65.8472 11.6256 65.1192 11.9271 64.5824 12.4639C64.0456 13.0007 63.744 13.7288 63.744 14.4879C63.744 15.2471 64.0456 15.9751 64.5824 16.5119C65.1192 17.0487 65.8472 17.3503 66.6064 17.3503C67.3655 17.3503 68.0936 17.0487 68.6303 16.5119C69.1671 15.9751 69.4687 15.2471 69.4687 14.4879ZM48.8378 20.3216C49.5471 20.069 50.1255 19.5412 50.446 18.8541C50.7664 18.1671 50.8026 17.3771 50.5466 16.658C50.2905 15.9389 49.7632 15.3496 49.0806 15.0197C48.3981 14.6898 47.6161 14.6464 46.9069 14.8989C46.1976 15.1515 45.6192 15.6793 45.2987 16.3664C44.9782 17.0534 44.9421 17.8434 45.1981 18.5625C45.4542 19.2816 45.9815 19.8709 46.6641 20.2008C47.3466 20.5307 48.1286 20.5741 48.8378 20.3216ZM111.598 24.8869C111.598 24.1278 111.296 23.3998 110.76 22.863C110.223 22.3262 109.495 22.0246 108.736 22.0246C107.976 22.0246 107.248 22.3262 106.712 22.863C106.175 23.3998 105.873 24.1278 105.873 24.8869C105.873 25.6461 106.175 26.3741 106.712 26.9109C107.248 27.4477 107.976 27.7493 108.736 27.7493C109.495 27.7493 110.223 27.4477 110.76 26.9109C111.296 26.3741 111.598 25.6461 111.598 24.8869ZM96.367 46.507C96.367 45.7478 96.0654 45.0198 95.5286 44.483C94.9918 43.9462 94.2638 43.6446 93.5046 43.6446C92.7455 43.6446 92.0175 43.9462 91.4807 44.483C90.9439 45.0198 90.6423 45.7478 90.6423 46.507C90.6423 47.2661 90.9439 47.9941 91.4807 48.5309C92.0175 49.0677 92.7455 49.3693 93.5046 49.3693C94.2638 49.3693 94.9918 49.0677 95.5286 48.5309C96.0654 47.9941 96.367 47.2661 96.367 46.507Z" fill="white"/>
<path d="M37.4232 30.7771C37.39 31.0012 37.418 31.1597 37.5073 31.2525C37.565 31.3137 37.6009 31.3855 37.6149 31.4678C37.7287 32.098 38.029 32.6364 38.5157 33.0828C38.5769 33.1388 38.6496 33.1747 38.7336 33.1905C38.8334 33.208 38.9052 33.2631 38.9489 33.3559C39.0242 33.524 39.1573 33.608 39.3481 33.608C39.3989 33.608 39.4286 33.6343 39.4374 33.6868C39.4409 33.7113 39.4365 33.7349 39.4243 33.7577C39.4138 33.7787 39.3962 33.7901 39.3717 33.7918C39.1354 33.8023 39.0487 33.8592 39.1118 33.9625C37.3838 34.5017 36.2275 35.5232 35.6428 37.0271C35.3662 37.7396 35.2296 38.7095 35.2331 39.9367C35.2611 50.9082 35.2646 61.5856 35.2436 71.9688C35.241 73.4946 35.5456 75.0518 36.6381 76.1652C37.6937 77.2419 39.005 77.782 40.5718 77.7855C43.7948 77.7907 47.0161 77.7969 50.2356 77.8039C51.0426 77.7881 51.8217 77.8783 52.5727 78.0743C52.613 78.0848 52.641 78.1006 52.6568 78.1216C52.6778 78.1496 52.6883 78.182 52.6883 78.2188C52.6883 78.3326 52.6331 78.3781 52.5228 78.3553C52.346 78.3203 52.1981 78.3527 52.079 78.4525C51.9897 78.526 51.9705 78.6144 52.0213 78.7177C52.1578 78.9961 52.1569 79.2718 52.0186 79.5449C51.9801 79.6184 51.9976 79.6745 52.0712 79.713C52.2427 79.8058 52.3767 79.9406 52.4729 80.1174C52.4852 80.1419 52.4869 80.1664 52.4782 80.1909C52.4694 80.2207 52.4511 80.2364 52.423 80.2382C52.3338 80.2452 52.3338 80.2557 52.423 80.2697C52.4896 80.2802 52.5526 80.3003 52.6121 80.3301C52.7014 80.3739 52.7959 80.3957 52.8957 80.3957L56.194 80.4246C56.285 80.4246 56.3542 80.464 56.4015 80.5428C56.7034 81.0339 56.4855 81.496 56.496 81.8952C56.5196 82.9614 56.6194 84.0617 56.622 85.1357C56.629 88.1346 56.6308 91.3287 56.6273 94.718C56.6273 95.0647 56.7035 95.385 56.7008 95.7369C56.6991 95.8595 56.7227 95.8647 56.7717 95.7527C56.7822 95.7317 56.7962 95.7133 56.8137 95.6975C56.8733 95.6433 56.9529 95.6144 57.0527 95.6109L57.5832 95.5899C57.6141 95.5884 57.6444 95.5804 57.6721 95.5665C57.6998 95.5525 57.7242 95.5329 57.7438 95.5088C57.7633 95.4848 57.7776 95.4569 57.7857 95.427C57.7938 95.3971 57.7955 95.3658 57.7906 95.3352C57.7714 95.2091 57.816 95.1119 57.9246 95.0437C58.0016 94.9964 58.034 94.9281 58.0217 94.8388C57.9097 94.072 57.8983 93.2974 57.9876 92.5148C58.0278 92.1612 58.1311 92.1419 58.2974 92.457C58.3062 92.4728 58.2992 92.6015 58.2764 92.8431L58.2686 99.1534C58.2683 99.2127 58.2878 99.2704 58.3239 99.3175C58.3601 99.3645 58.4108 99.3982 58.4681 99.4134C61.4513 100.22 62.9481 103.452 61.7402 106.209C61.0154 107.864 59.4188 108.948 57.6015 109.103C56.0469 109.235 54.2875 108.47 53.3658 107.228C51.244 104.369 52.5281 100.267 56.0811 99.4028C56.1276 99.3916 56.169 99.365 56.1985 99.3274C56.2281 99.2897 56.2441 99.2433 56.2439 99.1954L56.2518 81.005C56.2518 80.9701 56.2382 80.9368 56.2141 80.9121C56.19 80.8875 56.1572 80.8737 56.1231 80.8737L49.0722 80.871C49.0332 80.871 48.9958 80.8865 48.9683 80.9141C48.9407 80.9417 48.9252 80.9791 48.9252 81.0181L48.9121 92.1235C48.9112 92.1613 48.9231 92.1983 48.9458 92.2292C48.9686 92.26 49.001 92.2828 49.0381 92.2942C51.0969 92.9315 52.3311 94.255 52.7408 96.2648C53.0402 97.7353 52.5701 99.3346 51.5433 100.43C49.7261 102.37 46.8375 102.622 44.763 100.918C41.596 98.3183 42.8171 93.4392 46.6379 92.3546C46.7937 92.3109 46.8716 92.2076 46.8716 92.0447V81.0365C46.8716 81.0141 46.8672 80.9919 46.8586 80.9712C46.8501 80.9505 46.8375 80.9316 46.8216 80.9158C46.8058 80.8999 46.787 80.8874 46.7663 80.8788C46.7456 80.8702 46.7234 80.8658 46.701 80.8658L39.721 80.8789C39.6852 80.8796 39.6512 80.8943 39.6261 80.9198C39.6011 80.9454 39.5871 80.9797 39.5871 81.0155L39.5818 95.9917C39.5818 96.1115 39.5579 96.2303 39.5115 96.3412C39.465 96.452 39.397 96.5528 39.3113 96.6376L34.9863 100.91C34.8795 101.017 34.8594 101.137 34.9259 101.27C35.2603 101.935 35.4572 102.576 35.5167 103.192C35.7951 106.068 33.7337 108.578 30.782 108.636C25.916 108.73 23.9176 102.643 27.7516 99.7547C29.3193 98.573 31.541 98.4811 33.2242 99.4974C33.2656 99.5223 33.3139 99.5327 33.3615 99.527C33.4092 99.5213 33.4533 99.4997 33.4868 99.4659L37.3996 95.5899C37.4954 95.494 37.5492 95.3646 37.5493 95.2301L37.502 81.0207C37.502 80.9244 37.4547 80.8745 37.3602 80.871C35.1158 80.7678 33.5157 79.6867 32.5599 77.6279C32.2946 77.0581 32.2631 76.3806 32.1817 75.7608C32.1659 75.647 32.1012 75.5892 31.9874 75.5875L22.2396 75.5507L23.8887 75.4194C23.9868 75.4124 24.0052 75.3695 23.9439 75.2908C23.9246 75.2663 23.9071 75.2426 23.8914 75.2199C23.8354 75.1393 23.852 75.0789 23.9413 75.0387C24.1233 74.9599 24.2065 74.8295 24.1907 74.6474C24.1802 74.5056 24.1251 74.376 24.0253 74.2587C23.8905 74.1029 23.8327 73.9349 23.852 73.7545C23.8625 73.6565 23.8178 73.6057 23.7181 73.6022L22.2028 73.5523H32.0399C32.0789 73.5523 32.1163 73.5366 32.1439 73.5085C32.1715 73.4804 32.187 73.4424 32.187 73.4027L32.1948 66.3964C32.1948 66.2984 32.1449 66.2494 32.0452 66.2494L26.0001 66.2468C25.902 66.2468 25.8364 66.2932 25.8031 66.3859C25.7366 66.5715 25.6674 66.7597 25.5957 66.9505C24.4901 69.8785 21.1288 71.0156 18.4818 69.4479C16.2549 68.1296 15.4015 65.2778 16.6199 62.9564C17.8331 60.6455 20.5537 59.645 22.9801 60.7006C24.2984 61.2748 25.2298 62.3795 25.7742 64.0146C25.7897 64.0614 25.8194 64.102 25.859 64.1308C25.8986 64.1595 25.9461 64.175 25.9948 64.1748L32.0924 64.1906C32.1189 64.1906 32.1443 64.1801 32.163 64.1614C32.1817 64.1426 32.1922 64.1173 32.1922 64.0908L32.1948 56.9927C32.1948 56.9551 32.1799 56.919 32.1533 56.8924C32.1267 56.8658 32.0906 56.8509 32.053 56.8509C24.989 56.9244 17.9277 56.969 10.8637 56.8614C10.7657 56.8596 10.7044 56.906 10.6799 57.0005C9.79491 60.312 6.19727 61.8377 3.22724 60.0152C1.76455 59.1197 0.842818 57.3393 0.976745 55.6508C1.42317 50.0259 9.02549 49.1724 10.651 54.6398C10.686 54.7588 10.7657 54.8183 10.89 54.8183H32.0583C32.1563 54.8183 32.2053 54.7693 32.2053 54.6713L32.1948 47.6992C32.1948 47.5942 32.1423 47.5416 32.0373 47.5416L21.6566 47.5495C21.5358 47.5495 21.4579 47.6064 21.4229 47.7202C20.7261 49.9436 19.2608 51.1839 17.027 51.4413C15.8873 51.5708 14.7913 51.2531 13.7392 50.488C11.2944 48.7128 11.0265 45.2097 13.1641 43.0196C15.8558 40.2623 20.5012 41.6909 21.4098 45.3437C21.4343 45.4452 21.4991 45.496 21.6041 45.496H32.032C32.1563 45.496 32.2185 45.4338 32.2185 45.3095L32.2106 38.2928C32.2106 38.2663 32.2001 38.241 32.1814 38.2222C32.1626 38.2035 32.1373 38.193 32.1108 38.193L17.0165 38.2009C16.9241 38.2009 16.8327 38.1829 16.7475 38.1477C16.6624 38.1126 16.5851 38.061 16.5201 37.9961L12.5391 34.015C12.4551 33.9327 12.3623 33.9205 12.2607 33.9783C10.5783 34.9131 8.91169 34.928 7.2608 34.0229C5.60641 33.1196 4.65054 31.1921 4.80285 29.3381C5.19675 24.6165 11.5438 23.1302 13.9335 27.2452C14.8771 28.868 14.8675 30.5776 13.9046 32.3738C13.8766 32.4245 13.8827 32.4692 13.923 32.5077L17.4025 35.9583C17.4598 36.0157 17.5281 36.0613 17.6034 36.0924C17.6786 36.1234 17.7594 36.1395 17.841 36.1395L32.0583 36.108C32.0922 36.108 32.1248 36.0949 32.1493 36.0714C32.1738 36.0479 32.1882 36.0158 32.1896 35.9819C32.2929 33.6185 33.4159 31.986 35.5588 31.0844C36.1102 30.8515 36.7317 30.7491 37.4232 30.7771ZM12.5864 29.7556C12.5864 28.993 12.2834 28.2616 11.7442 27.7223C11.2049 27.1831 10.4735 26.8801 9.71088 26.8801C8.94825 26.8801 8.21686 27.1831 7.6776 27.7223C7.13834 28.2616 6.83539 28.993 6.83539 29.7556C6.83539 30.5183 7.13834 31.2496 7.6776 31.7889C8.21686 32.3282 8.94825 32.6311 9.71088 32.6311C10.4735 32.6311 11.2049 32.3282 11.7442 31.7889C12.2834 31.2496 12.5864 30.5183 12.5864 29.7556ZM19.4954 46.5017C19.4954 45.7405 19.193 45.0104 18.6547 44.4722C18.1165 43.9339 17.3864 43.6315 16.6252 43.6315C16.2483 43.6315 15.875 43.7057 15.5268 43.85C15.1786 43.9942 14.8621 44.2056 14.5956 44.4722C14.3291 44.7387 14.1177 45.0551 13.9734 45.4033C13.8292 45.7516 13.7549 46.1248 13.7549 46.5017C13.7549 46.8787 13.8292 47.2519 13.9734 47.6001C14.1177 47.9484 14.3291 48.2648 14.5956 48.5313C14.8621 48.7978 15.1786 49.0092 15.5268 49.1535C15.875 49.2977 16.2483 49.372 16.6252 49.372C17.3864 49.372 18.1165 49.0696 18.6547 48.5313C19.193 47.993 19.4954 47.263 19.4954 46.5017ZM8.74713 55.8635C8.74713 55.1023 8.44473 54.3722 7.90646 53.8339C7.36818 53.2957 6.63813 52.9932 5.87689 52.9932C5.11566 52.9932 4.3856 53.2957 3.84733 53.8339C3.30905 54.3722 3.00666 55.1023 3.00666 55.8635C3.00666 56.6247 3.30905 57.3548 3.84733 57.893C4.3856 58.4313 5.11566 58.7337 5.87689 58.7337C6.63813 58.7337 7.36818 58.4313 7.90646 57.893C8.44473 57.3548 8.74713 56.6247 8.74713 55.8635ZM23.8677 65.2121C23.8677 64.4509 23.5653 63.7208 23.0271 63.1825C22.4888 62.6443 21.7587 62.3419 20.9975 62.3419C20.2363 62.3419 19.5062 62.6443 18.9679 63.1825C18.4297 63.7208 18.1273 64.4509 18.1273 65.2121C18.1273 65.9733 18.4297 66.7034 18.9679 67.2417C19.5062 67.7799 20.2363 68.0823 20.9975 68.0823C21.7587 68.0823 22.4888 67.7799 23.0271 67.2417C23.5653 66.7034 23.8677 65.9733 23.8677 65.2121ZM50.7555 97.1156C50.7555 96.3571 50.4542 95.6298 49.9179 95.0935C49.3816 94.5572 48.6542 94.2559 47.8958 94.2559C47.1373 94.2559 46.41 94.5572 45.8736 95.0935C45.3373 95.6298 45.0361 96.3571 45.0361 97.1156C45.0361 97.874 45.3373 98.6014 45.8736 99.1377C46.41 99.674 47.1373 99.9753 47.8958 99.9753C48.6542 99.9753 49.3816 99.674 49.9179 99.1377C50.4542 98.6014 50.7555 97.874 50.7555 97.1156ZM33.3266 104.884C33.6292 104.192 33.6404 103.406 33.3579 102.699C33.0754 101.993 32.5223 101.424 31.8203 101.117C31.4727 100.965 31.099 100.882 30.7205 100.873C30.342 100.864 29.9662 100.929 29.6145 101.064C29.2628 101.199 28.942 101.402 28.6706 101.66C28.3992 101.919 28.1824 102.229 28.0326 102.571C27.7301 103.264 27.7188 104.05 28.0013 104.756C28.2838 105.463 28.8369 106.032 29.5389 106.339C29.8865 106.491 30.2603 106.574 30.6387 106.583C31.0172 106.592 31.393 106.527 31.7448 106.392C32.0965 106.257 32.4172 106.054 32.6886 105.795C32.9601 105.537 33.1768 105.227 33.3266 104.884ZM60.133 104.182C60.133 103.421 59.8306 102.691 59.2924 102.153C58.7541 101.614 58.024 101.312 57.2628 101.312C56.5016 101.312 55.7715 101.614 55.2332 102.153C54.695 102.691 54.3926 103.421 54.3926 104.182C54.3926 104.943 54.695 105.673 55.2332 106.212C55.7715 106.75 56.5016 107.052 57.2628 107.052C58.024 107.052 58.7541 106.75 59.2924 106.212C59.8306 105.673 60.133 104.943 60.133 104.182Z" fill="white"/>
<path d="M74.8386 75.7791C74.4727 75.0824 74.0657 74.5642 73.6175 74.2245C73.4687 74.1107 73.2604 73.9304 72.9925 73.6836C72.7894 73.4962 72.554 73.3641 72.2861 73.287C72.2021 73.2625 72.1268 73.2214 72.0603 73.1636L70.8996 72.1657C70.8278 72.1045 70.7473 72.0861 70.658 72.1106C70.5985 72.1263 70.5389 72.1263 70.4794 72.1106C70.4024 72.0878 70.3936 72.0493 70.4531 71.995C70.4777 71.9723 70.4899 71.9443 70.4899 71.911C70.4847 71.8095 70.4339 71.7438 70.3376 71.7141C70.0995 71.6423 69.8868 71.539 69.6995 71.4042C69.619 71.3447 69.5691 71.3639 69.5498 71.462C69.541 71.4987 69.5183 71.5206 69.4815 71.5276C69.4027 71.5451 69.338 71.5215 69.2872 71.4567C69.2154 71.3639 69.2189 71.2764 69.2977 71.1941C69.3432 71.1503 69.3467 71.1031 69.3082 71.0523C69.0614 70.7372 68.7961 70.6645 68.5125 70.8343C68.4565 70.8659 68.397 70.8825 68.334 70.8842C67.6249 70.8895 67.533 71.5985 66.9763 71.8454C66.6559 71.9872 66.3881 72.2042 66.1727 72.4966C65.9749 72.7662 65.757 72.782 65.5189 72.5439L65.2589 72.2865C65.0068 72.0327 64.9972 71.7692 65.23 71.4961C65.904 70.71 66.5894 70.0212 67.2862 69.4294C67.5777 69.1826 67.7195 68.7545 67.4201 68.442C67.3746 68.3948 67.3439 68.3405 67.3282 68.2792C67.2599 68.0411 67.1164 67.8547 66.8975 67.7199C66.297 67.347 65.771 66.9373 65.3193 66.4909C65.2825 66.4524 65.2396 66.4305 65.1906 66.4253C65.1346 66.4183 65.0978 66.4419 65.0803 66.4962C65.0757 66.508 65.0683 66.5185 65.0589 66.527C65.0494 66.5354 65.0381 66.5416 65.0259 66.5449C65.0136 66.5482 65.0008 66.5486 64.9883 66.5461C64.9759 66.5435 64.9642 66.5381 64.9543 66.5303C64.8527 66.448 64.8256 66.3684 64.8729 66.2913C64.9061 66.2388 64.8956 66.1977 64.8414 66.1679C64.668 66.0699 64.5717 65.9394 64.5525 65.7766C64.5437 65.7136 64.5105 65.6935 64.4527 65.7162C64.3634 65.753 64.2978 65.7259 64.2557 65.6348C64.2382 65.5963 64.2085 65.5779 64.1665 65.5797C64.1367 65.5814 64.1236 65.5972 64.1271 65.6269C64.1323 65.6935 64.1104 65.704 64.0614 65.6585C64.0422 65.6409 64.0212 65.6296 63.9984 65.6243C63.8934 65.6051 63.8435 65.5429 63.8487 65.4379C63.8697 64.9442 63.805 64.8575 63.6544 65.1779L55.4218 46.3467L52.9035 46.1944C52.8265 46.1892 52.7538 46.2058 52.6855 46.2443C52.3932 46.4071 52.1253 46.3625 51.882 46.1104C51.8207 46.0456 51.8172 45.9791 51.8714 45.9108C51.903 45.8723 51.9003 45.8373 51.8636 45.8058C51.79 45.7427 51.7051 45.7139 51.6088 45.7191C51.3655 45.7349 51.2036 45.6342 51.123 45.4171C51.074 45.2806 51.0022 45.1545 50.9077 45.039C50.1584 44.1251 49.4188 43.2507 48.6887 42.4156C48.5364 42.2405 48.3675 42.083 48.1819 41.9429C47.8773 41.7153 47.7083 41.4203 47.6751 41.0579C47.6646 40.9406 47.6164 40.8408 47.5306 40.7586C47.4694 40.699 47.4265 40.622 47.402 40.5275C47.3985 40.5117 47.4037 40.4995 47.4177 40.4907C47.4405 40.4785 47.4632 40.4741 47.486 40.4776C47.5893 40.4951 47.5981 40.4741 47.5123 40.4146C47.416 40.3463 47.3092 40.3165 47.1919 40.3253C46.8838 40.3498 46.5932 40.4329 46.3201 40.5747C46.2553 40.608 46.1888 40.6115 46.1205 40.5852C46.0242 40.5485 45.9839 40.4793 45.9997 40.3778C46.0067 40.3358 46.0189 40.2964 46.0364 40.2596C46.2325 39.85 46.5625 39.4403 47.0265 39.0306C47.1159 38.9515 47.1841 38.8512 47.2248 38.7389C47.2655 38.6266 47.2774 38.5059 47.2594 38.3878C47.2414 38.2697 47.194 38.158 47.1217 38.063C47.0493 37.9679 46.9543 37.8925 46.8453 37.8437C46.5056 37.6896 46.1572 37.5399 45.8001 37.3946C45.7581 37.3771 45.7301 37.3465 45.7161 37.3027C45.6951 37.2362 45.6513 37.1924 45.5848 37.1714C45.0876 37.0034 44.7943 36.7127 44.7051 36.2996C44.6875 36.2226 44.6403 36.1744 44.5632 36.1552C44.3532 36.1009 44.13 36.0869 43.8936 36.1131C43.8236 36.1201 43.7632 36.1 43.7124 36.0527C43.6529 35.9932 43.5811 35.9617 43.4971 35.9582L40.3853 35.8164C51.4802 35.7508 62.5725 35.8821 73.6621 35.7796C75.1196 35.7665 76.4562 36.3416 77.0156 37.7386C77.1661 38.1168 77.2414 38.7917 77.2414 39.7633C77.2344 50.691 77.2397 61.6179 77.2572 72.5439C77.2589 74.1405 76.4527 75.2189 74.8386 75.7791ZM70.314 46.6514C70.314 46.6235 70.3029 46.5968 70.2832 46.5771C70.2635 46.5574 70.2368 46.5463 70.2089 46.5463H67.1522C67.1244 46.5463 67.0977 46.5574 67.078 46.5771C67.0583 46.5968 67.0472 46.6235 67.0472 46.6514V65.107C67.0472 65.1349 67.0583 65.1616 67.078 65.1813C67.0977 65.201 67.1244 65.212 67.1522 65.212H70.2089C70.2368 65.212 70.2635 65.201 70.2832 65.1813C70.3029 65.1616 70.314 65.1349 70.314 65.107V46.6514Z" fill="white"/>
<path d="M40.3854 35.8164L43.4972 35.9582C43.5813 35.9617 43.653 35.9932 43.7126 36.0527C43.7633 36.1 43.8237 36.1201 43.8938 36.1131C44.1301 36.0869 44.3533 36.1009 44.5634 36.1552C44.6404 36.1744 44.6877 36.2226 44.7052 36.2996C44.7945 36.7128 45.0877 37.0034 45.5849 37.1714C45.6514 37.1924 45.6952 37.2362 45.7162 37.3027C45.7302 37.3465 45.7582 37.3771 45.8002 37.3946C46.1574 37.5399 46.5058 37.6896 46.8454 37.8437C46.9544 37.8925 47.0495 37.9679 47.1218 38.063C47.1942 38.158 47.2415 38.2697 47.2595 38.3878C47.2776 38.5059 47.2657 38.6266 47.225 38.7389C47.1843 38.8512 47.1161 38.9515 47.0266 39.0306C46.5627 39.4403 46.2327 39.85 46.0366 40.2596C46.0191 40.2964 46.0068 40.3358 45.9998 40.3778C45.9841 40.4793 46.0243 40.5485 46.1206 40.5852C46.1889 40.6115 46.2554 40.608 46.3202 40.5747C46.5933 40.4329 46.8839 40.3498 47.192 40.3253C47.3093 40.3165 47.4161 40.3463 47.5124 40.4146C47.5982 40.4741 47.5894 40.4951 47.4862 40.4776C47.4634 40.4741 47.4406 40.4785 47.4179 40.4907C47.4039 40.4995 47.3986 40.5117 47.4021 40.5275C47.4266 40.622 47.4695 40.699 47.5308 40.7586C47.6166 40.8408 47.6647 40.9406 47.6752 41.0579C47.7085 41.4203 47.8774 41.7153 48.182 41.9429C48.3676 42.083 48.5366 42.2405 48.6889 42.4156C49.4189 43.2507 50.1586 44.1251 50.9079 45.039C51.0024 45.1545 51.0742 45.2806 51.1232 45.4171C51.2037 45.6342 51.3657 45.7349 51.609 45.7191C51.7053 45.7139 51.7902 45.7427 51.8637 45.8058C51.9005 45.8373 51.9031 45.8723 51.8716 45.9108C51.8173 45.9791 51.8208 46.0456 51.8821 46.1104C52.1254 46.3625 52.3933 46.4071 52.6857 46.2443C52.7539 46.2058 52.8266 46.1892 52.9036 46.1944L55.422 46.3467L52.5412 46.4281C52.5019 46.4298 52.4637 46.4425 52.4312 46.4648C52.3987 46.4871 52.3731 46.518 52.3574 46.5542L44.2667 65.0519C44.2597 65.0687 44.2569 65.0871 44.2585 65.1052C44.2602 65.1234 44.2662 65.1408 44.2761 65.1559C44.286 65.171 44.2994 65.1833 44.3152 65.1917C44.331 65.2002 44.3486 65.2044 44.3664 65.2042L47.2761 65.2015C47.3623 65.2016 47.4467 65.1763 47.5187 65.1286C47.5906 65.081 47.6469 65.0132 47.6805 64.9337L49.3848 60.9001C49.4495 60.7461 49.5651 60.669 49.7314 60.669L58.1005 60.6874C58.2406 60.6874 58.3369 60.7522 58.3894 60.8817L60.1173 65.002C60.1422 65.0603 60.1835 65.11 60.2359 65.1446C60.2883 65.1792 60.3494 65.1972 60.4114 65.1963L63.6545 65.1779C63.8051 64.8575 63.8699 64.9442 63.8489 65.4379C63.8436 65.5429 63.8935 65.6051 63.9985 65.6243C64.0213 65.6296 64.0423 65.641 64.0616 65.6585C64.1106 65.704 64.1325 65.6935 64.1272 65.6269C64.1237 65.5972 64.1368 65.5814 64.1666 65.5797C64.2086 65.5779 64.2384 65.5963 64.2559 65.6348C64.2979 65.7259 64.3636 65.753 64.4528 65.7162C64.5106 65.6935 64.5439 65.7136 64.5526 65.7766C64.5719 65.9394 64.6682 66.0699 64.8415 66.1679C64.8958 66.1977 64.9063 66.2388 64.873 66.2913C64.8257 66.3684 64.8529 66.448 64.9544 66.5303C64.9644 66.5381 64.9761 66.5435 64.9885 66.5461C65.0009 66.5486 65.0138 66.5482 65.026 66.5449C65.0383 66.5416 65.0496 66.5354 65.059 66.527C65.0685 66.5185 65.0758 66.508 65.0805 66.4962C65.098 66.4419 65.1347 66.4183 65.1908 66.4253C65.2398 66.4305 65.2827 66.4524 65.3194 66.4909C65.7711 66.9373 66.2972 67.347 66.8977 67.7199C67.1165 67.8547 67.2601 68.0411 67.3283 68.2792C67.3441 68.3405 67.3747 68.3948 67.4202 68.442C67.7196 68.7545 67.5778 69.1826 67.2863 69.4294C66.5895 70.0212 65.9042 70.71 65.2302 71.4961C64.9973 71.7692 65.0069 72.0327 65.259 72.2865L65.519 72.5439C65.7571 72.782 65.9751 72.7662 66.1729 72.4966C66.3882 72.2042 66.6561 71.9872 66.9764 71.8454C67.5332 71.5985 67.6251 70.8895 68.3341 70.8842C68.3971 70.8825 68.4566 70.8659 68.5127 70.8343C68.7963 70.6645 69.0615 70.7372 69.3084 71.0523C69.3469 71.1031 69.3434 71.1503 69.2978 71.1941C69.2191 71.2764 69.2156 71.3639 69.2873 71.4567C69.3381 71.5215 69.4029 71.5451 69.4817 71.5276C69.5184 71.5206 69.5412 71.4987 69.5499 71.462C69.5692 71.3639 69.6191 71.3447 69.6996 71.4042C69.887 71.539 70.0997 71.6423 70.3377 71.7141C70.434 71.7438 70.4848 71.8095 70.4901 71.911C70.4901 71.9443 70.4778 71.9723 70.4533 71.995C70.3938 72.0493 70.4025 72.0878 70.4796 72.1106C70.5391 72.1263 70.5986 72.1263 70.6581 72.1106C70.7474 72.0861 70.8279 72.1045 70.8997 72.1657L72.0604 73.1636C72.1269 73.2214 72.2022 73.2625 72.2863 73.287C72.5541 73.3641 72.7896 73.4962 72.9927 73.6836C73.2605 73.9304 73.4688 74.1107 73.6176 74.2245C74.0658 74.5642 74.4729 75.0824 74.8387 75.7791C63.7377 75.8141 52.6226 75.8185 41.4936 75.7923C40.1613 75.7888 39.3437 75.7039 39.0409 75.5375C37.5624 74.7209 37.2578 73.6022 37.2604 71.9872C37.2674 62.1256 37.2666 52.1677 37.2578 42.1136C37.2578 41.2207 37.2648 40.3358 37.2788 39.4587C37.2963 38.5011 37.4364 37.7912 37.699 37.329C38.2277 36.3941 39.1232 35.8899 40.3854 35.8164Z" fill="white"/>
<path d="M82.3778 47.5521L82.299 54.6214C82.2987 54.6498 82.304 54.6781 82.3147 54.7046C82.3253 54.731 82.3412 54.755 82.3612 54.7753C82.3812 54.7956 82.4051 54.8117 82.4314 54.8227C82.4577 54.8337 82.4859 54.8393 82.5144 54.8393L103.525 54.8052C103.595 54.8052 103.664 54.7824 103.72 54.7403C103.777 54.6982 103.818 54.6389 103.838 54.5715C105.248 49.8814 111.661 49.6871 113.299 54.3141C114.108 56.5961 112.971 59.2064 110.804 60.283C107.971 61.6906 104.738 60.115 103.859 57.1555C103.84 57.0912 103.801 57.0347 103.747 56.9945C103.694 56.9543 103.629 56.9324 103.562 56.9323L82.3936 56.9086C82.3699 56.9086 82.3472 56.9177 82.3304 56.934C82.3137 56.9502 82.3043 56.9723 82.3043 56.9953L82.3174 64.0251C82.3174 64.0662 82.3338 64.1056 82.3628 64.1347C82.3919 64.1637 82.4313 64.1801 82.4724 64.1801L92.9082 64.1354C92.9992 64.1354 93.0578 64.0925 93.0841 64.0067C93.8194 61.7274 95.3425 60.487 97.6534 60.2857C98.4779 60.2139 99.3454 60.4266 100.256 60.9238C103.512 62.699 103.612 67.3286 100.576 69.327C97.7374 71.1994 93.9428 69.742 93.0946 66.4043C93.0841 66.3617 93.0592 66.3239 93.024 66.2968C92.9888 66.2697 92.9453 66.2548 92.9003 66.2546L82.4724 66.2494C82.3533 66.2494 82.2938 66.3089 82.2938 66.4279L82.3069 73.3002C82.3069 73.4665 82.3901 73.5497 82.5564 73.5497L97.5063 73.5366C97.6094 73.5358 97.7115 73.5556 97.8067 73.5948C97.9018 73.634 97.9881 73.6919 98.0604 73.765L102.015 77.7566C102.035 77.7763 102.061 77.7892 102.088 77.7935C102.115 77.7977 102.143 77.7931 102.167 77.7802C104.284 76.644 106.235 76.8086 108.021 78.2739C108.991 79.0722 109.542 80.155 109.675 81.5223C109.951 84.3426 107.8 86.7848 104.99 86.903C103.336 86.9739 101.69 86.1651 100.755 84.7969C99.6063 83.1163 99.545 81.3192 100.571 79.4057C100.618 79.3182 100.607 79.2403 100.537 79.172C99.5914 78.2319 98.6171 77.2672 97.614 76.2781C97.3225 75.9919 97.115 75.6295 96.6424 75.6242C92.1344 75.5875 87.4259 75.5787 82.517 75.598C82.3927 75.598 82.3253 75.6593 82.3148 75.7818C82.2649 76.2702 82.2071 76.7771 82.0522 77.2497C81.499 78.9391 80.3821 80.0648 78.7014 80.6268C78.5824 80.464 78.4134 80.4045 78.1946 80.4482C78.0108 80.485 77.8401 80.5025 77.6825 80.5008C77.4987 80.5008 77.3219 80.4727 77.1521 80.4167C76.7345 80.2828 76.2855 79.5528 76.0701 79.2009C76.0396 79.1533 76.0266 79.0958 76.0334 79.0381L76.1332 78.2476C76.1365 78.221 76.1342 78.1939 76.1266 78.1682C76.1189 78.1424 76.106 78.1186 76.0887 78.0983C76.0713 78.078 76.05 78.0617 76.026 78.0503C76.002 78.0389 75.9758 78.0328 75.9493 78.0323L75.2692 78.0192C75.2668 78.0192 75.2644 78.0185 75.2623 78.0172C75.2602 78.0159 75.2585 78.0141 75.2575 78.0119C75.2564 78.0097 75.2559 78.0073 75.2561 78.0049C75.2563 78.0024 75.2572 78.0001 75.2587 77.9982C75.2779 77.9579 75.2815 77.9255 75.2692 77.901C75.2377 77.8415 75.1895 77.8187 75.1248 77.8327C74.6013 77.9308 74.1348 77.9159 73.7251 77.7881C76.7581 77.88 79.2082 75.7582 79.2161 72.6778C79.2371 63.7967 79.2476 54.9155 79.2476 46.0343C79.2669 46.0553 79.2826 46.0798 79.2949 46.1078C79.3002 46.1215 79.3103 46.1328 79.3234 46.1396C79.3364 46.1463 79.3515 46.1481 79.3658 46.1446C79.4008 46.1358 79.4279 46.1157 79.4472 46.0842C79.4699 46.0474 79.4796 46.0089 79.4761 45.9686C79.4481 45.6973 79.4787 45.4242 79.568 45.1493C79.6012 45.0425 79.6179 45.0451 79.6179 45.1572C79.6161 45.2132 79.6389 45.2596 79.6862 45.2964C79.7719 45.3629 79.8586 45.3611 79.9461 45.2911C80.0214 45.2333 80.1046 45.2167 80.1956 45.2412L80.7024 45.3857C80.839 45.4242 80.9712 45.4145 81.099 45.3568C81.2758 45.278 81.4465 45.2797 81.611 45.362C81.7161 45.4145 81.7695 45.3822 81.7712 45.2649C81.7712 45.116 81.7686 44.969 81.7633 44.8237C81.7633 44.8132 81.7686 44.8071 81.7791 44.8053C81.7984 44.8036 81.8054 44.8018 81.8001 44.8C81.7896 44.8 81.7835 44.8053 81.7817 44.8158C81.7117 45.0907 81.7546 45.313 81.9104 45.4828C81.9384 45.5126 81.955 45.5467 81.9603 45.5852C81.9813 45.7043 82.0382 45.8154 82.131 45.9187C82.1642 45.9555 82.2001 45.9581 82.2386 45.9266C82.2614 45.9074 82.2728 45.8828 82.2728 45.8531C82.271 45.7726 82.2885 45.769 82.3253 45.8426C82.3463 45.8846 82.377 45.9161 82.4172 45.9371C82.5083 45.9826 82.5065 46.0229 82.412 46.0579C82.3892 46.0649 82.3656 46.0684 82.3411 46.0684C82.3165 46.0684 82.3096 46.0798 82.3201 46.1026C82.3971 46.2566 82.5126 46.3091 82.6667 46.2601C83.0606 46.1323 83.3276 46.219 83.4676 46.5201C83.5079 46.6059 83.5018 46.6873 83.4492 46.7643C83.3932 46.8431 83.3284 46.9 83.2549 46.935C83.1779 46.9718 83.1044 46.9648 83.0343 46.914C82.7332 46.6934 82.4592 46.717 82.2124 46.9849C82.1161 47.0899 82.138 47.1302 82.278 47.1057C82.3236 47.0969 82.3708 47.0934 82.4198 47.0952C82.5949 47.0987 82.6063 47.1442 82.454 47.2317C82.4277 47.2457 82.4233 47.2694 82.4408 47.3026C82.4601 47.3377 82.4899 47.356 82.5301 47.3578C83.2322 47.3718 83.9193 47.3744 84.5916 47.3657C84.5933 47.3674 84.5942 47.3674 84.5942 47.3657C83.9499 47.3762 83.3057 47.3972 82.6614 47.4287C82.4426 47.4392 82.3481 47.4803 82.3778 47.5521ZM111.492 55.8556C111.492 55.0957 111.191 54.367 110.653 53.8297C110.116 53.2924 109.387 52.9906 108.627 52.9906C107.868 52.9906 107.139 53.2924 106.602 53.8297C106.064 54.367 105.763 55.0957 105.763 55.8556C105.763 56.6154 106.064 57.3441 106.602 57.8814C107.139 58.4187 107.868 58.7206 108.627 58.7206C109.387 58.7206 110.116 58.4187 110.653 57.8814C111.191 57.3441 111.492 56.6154 111.492 55.8556ZM100.742 65.2121C100.742 64.4515 100.439 63.7222 99.9017 63.1844C99.3639 62.6466 98.6345 62.3445 97.874 62.3445C97.1134 62.3445 96.384 62.6466 95.8462 63.1844C95.3085 63.7222 95.0063 64.4515 95.0063 65.2121C95.0063 65.9726 95.3085 66.702 95.8462 67.2398C96.384 67.7776 97.1134 68.0797 97.874 68.0797C98.6345 68.0797 99.3639 67.7776 99.9017 67.2398C100.439 66.702 100.742 65.9726 100.742 65.2121ZM107.656 81.9687C107.656 81.2089 107.354 80.4801 106.817 79.9428C106.279 79.4056 105.551 79.1037 104.791 79.1037C104.031 79.1037 103.302 79.4056 102.765 79.9428C102.228 80.4801 101.926 81.2089 101.926 81.9687C101.926 82.3449 102 82.7175 102.144 83.0651C102.288 83.4127 102.499 83.7285 102.765 83.9945C103.031 84.2606 103.347 84.4716 103.695 84.6156C104.042 84.7596 104.415 84.8337 104.791 84.8337C105.167 84.8337 105.54 84.7596 105.887 84.6156C106.235 84.4716 106.551 84.2606 106.817 83.9945C107.083 83.7285 107.294 83.4127 107.438 83.0651C107.582 82.7175 107.656 82.3449 107.656 81.9687Z" fill="white"/>
<path d="M50.7373 57.6885L53.7887 50.4512C53.795 50.4366 53.8054 50.4241 53.8187 50.4153C53.8321 50.4065 53.8476 50.4019 53.8636 50.4019C53.8795 50.4019 53.8951 50.4065 53.9084 50.4153C53.9217 50.4241 53.9322 50.4366 53.9384 50.4512L57.0161 57.6754C57.0218 57.6878 57.0243 57.7014 57.0234 57.715C57.0225 57.7286 57.0182 57.7418 57.0109 57.7533C57.0036 57.7648 56.9935 57.7742 56.9815 57.7808C56.9696 57.7874 56.9562 57.7909 56.9426 57.791L50.8108 57.8015C50.7975 57.8012 50.7845 57.7977 50.7729 57.7913C50.7613 57.7848 50.7514 57.7756 50.7441 57.7645C50.7369 57.7533 50.7325 57.7406 50.7313 57.7274C50.7301 57.7141 50.7322 57.7008 50.7373 57.6885Z" fill="white"/>
<path d="M22.2029 73.5523L23.7181 73.6022C23.8179 73.6057 23.8625 73.6565 23.852 73.7545C23.8328 73.9348 23.8905 74.1029 24.0253 74.2587C24.1251 74.376 24.1803 74.5056 24.1908 74.6474C24.2065 74.8294 24.1234 74.9599 23.9413 75.0386C23.852 75.0789 23.8354 75.1393 23.8914 75.2198C23.9072 75.2426 23.9247 75.2662 23.9439 75.2907C24.0052 75.3695 23.9868 75.4124 23.8888 75.4194L22.2396 75.5507L18.6656 75.5612C18.5775 75.5612 18.4903 75.5788 18.4091 75.6131C18.3279 75.6474 18.2544 75.6976 18.1929 75.7608L10.0076 84.0485C9.97949 84.0776 9.96128 84.1149 9.95561 84.155C9.94995 84.1951 9.95714 84.236 9.97614 84.2717C11.009 86.1502 10.9443 87.9657 9.78181 89.7181C8.83644 91.1414 6.90107 91.987 5.15739 91.7427C0.301887 91.0626 -0.740641 84.663 3.58441 82.4598C5.08386 81.6956 6.77502 81.7928 8.30599 82.5989C8.40403 82.6515 8.49243 82.6383 8.57122 82.5596L17.3211 73.7256C17.3767 73.6683 17.4435 73.6228 17.5175 73.5916C17.5915 73.5605 17.6711 73.5445 17.7518 73.5444L22.2029 73.5523ZM8.64212 86.8505C8.64212 86.0899 8.34 85.3605 7.80221 84.8228C7.26443 84.285 6.53505 83.9829 5.77451 83.9829C5.01397 83.9829 4.28458 84.285 3.7468 84.8228C3.20902 85.3605 2.9069 86.0899 2.9069 86.8505C2.9069 87.611 3.20902 88.3404 3.7468 88.8782C4.28458 89.416 5.01397 89.7181 5.77451 89.7181C6.53505 89.7181 7.26443 89.416 7.80221 88.8782C8.34 88.3404 8.64212 87.611 8.64212 86.8505Z" fill="white"/>
<path d="M50.2354 77.8038L73.7251 77.7881C74.1347 77.9159 74.6013 77.9308 75.1247 77.8327C75.1895 77.8187 75.2377 77.8415 75.2692 77.901C75.2814 77.9255 75.2779 77.9579 75.2587 77.9982C75.2572 78.0001 75.2563 78.0024 75.2561 78.0049C75.2559 78.0073 75.2563 78.0097 75.2574 78.0119C75.2585 78.0141 75.2602 78.0159 75.2623 78.0172C75.2643 78.0185 75.2667 78.0192 75.2692 78.0192L75.9493 78.0323C75.9758 78.0328 76.0019 78.0389 76.0259 78.0503C76.0499 78.0617 76.0713 78.078 76.0886 78.0984C76.106 78.1187 76.1189 78.1425 76.1266 78.1682C76.1342 78.1939 76.1365 78.221 76.1331 78.2476L76.0333 79.0381C76.0265 79.0958 76.0395 79.1533 76.0701 79.2009C76.2854 79.5528 76.7345 80.2828 77.152 80.4167C77.3218 80.4728 77.4987 80.5008 77.6825 80.5008C77.84 80.5025 78.0107 80.485 78.1946 80.4482C78.4134 80.4045 78.5823 80.464 78.7014 80.6268L77.1914 80.8553C77.0479 80.8763 76.9761 80.9594 76.9761 81.1047L76.9813 94.4843C76.9813 94.6034 77.0225 94.7049 77.1048 94.7889L84.623 102.36C84.6695 102.406 84.7297 102.436 84.7946 102.445C84.8595 102.454 84.9255 102.441 84.9828 102.41C86.1312 101.767 87.3278 101.586 88.5726 101.866C92.228 102.688 93.6355 107.194 91.1198 109.975C88.7118 112.633 84.3893 111.926 82.9319 108.581C82.278 107.079 82.475 105.558 83.2444 104.09C83.2934 103.996 83.2803 103.911 83.205 103.836L75.1431 95.7789C75.0716 95.7082 75.015 95.6237 74.9767 95.5303C74.9384 95.437 74.9191 95.3366 74.9199 95.2353L74.9383 81.0627C74.9383 81.0393 74.9337 81.0161 74.9247 80.9944C74.9157 80.9727 74.9026 80.953 74.886 80.9365C74.8694 80.9199 74.8497 80.9067 74.8281 80.8978C74.8064 80.8888 74.7832 80.8842 74.7597 80.8842L67.8113 80.8605C67.701 80.8588 67.6458 80.913 67.6458 81.0233L67.6222 89.0143C67.6222 89.1158 67.6712 89.1789 67.7693 89.2034C70.0749 89.7811 71.6873 91.9134 71.5087 94.269C71.2645 97.4648 68.305 99.6549 65.1511 98.6649C60.272 97.1287 60.6475 90.5453 65.4531 89.1903C65.5406 89.1657 65.5844 89.1089 65.5844 89.0196L65.5818 80.9393C65.5818 80.9205 65.5743 80.9025 65.561 80.8892C65.5477 80.8759 65.5297 80.8684 65.5109 80.8684L58.4259 80.8737C58.3876 80.8737 58.3509 80.8886 58.3238 80.9152C58.2967 80.9418 58.2815 80.9779 58.2815 81.0155L58.2762 92.843C58.299 92.6015 58.306 92.4728 58.2972 92.457C58.1309 92.1419 58.0276 92.1612 57.9874 92.5148C57.8981 93.2973 57.9094 94.072 58.0215 94.8388C58.0337 94.9281 58.0014 94.9964 57.9243 95.0436C57.8158 95.1119 57.7711 95.2091 57.7904 95.3351C57.7952 95.3658 57.7936 95.397 57.7855 95.427C57.7774 95.4569 57.7631 95.4848 57.7435 95.5088C57.724 95.5329 57.6996 95.5525 57.6719 95.5665C57.6442 95.5804 57.6139 95.5884 57.5829 95.5899L57.0525 95.6109C56.9527 95.6144 56.873 95.6433 56.8135 95.6975C56.796 95.7133 56.782 95.7317 56.7715 95.7527C56.7225 95.8647 56.6989 95.8595 56.7006 95.7369C56.7032 95.385 56.6271 95.0647 56.6271 94.718C56.6306 91.3287 56.6288 88.1346 56.6218 85.1357C56.6192 84.0616 56.5194 82.9613 56.4958 81.8952C56.4853 81.496 56.7032 81.0338 56.4012 80.5428C56.354 80.464 56.2848 80.4246 56.1938 80.4246L52.8955 80.3957C52.7957 80.3957 52.7012 80.3738 52.6119 80.3301C52.5524 80.3003 52.4893 80.2802 52.4228 80.2697C52.3335 80.2557 52.3335 80.2452 52.4228 80.2382C52.4508 80.2364 52.4692 80.2207 52.478 80.1909C52.4867 80.1664 52.485 80.1419 52.4727 80.1174C52.3764 79.9405 52.2425 79.8057 52.0709 79.713C51.9974 79.6744 51.9799 79.6184 52.0184 79.5449C52.1567 79.2718 52.1576 78.9961 52.021 78.7177C51.9703 78.6144 51.9895 78.526 52.0788 78.4525C52.1979 78.3527 52.3458 78.3203 52.5226 78.3553C52.6329 78.3781 52.6881 78.3326 52.6881 78.2188C52.6881 78.182 52.6775 78.1496 52.6565 78.1216C52.6408 78.1006 52.6128 78.0848 52.5725 78.0743C51.8215 77.8782 51.0424 77.7881 50.2354 77.8038ZM69.4788 93.9959C69.4788 93.2353 69.1767 92.5059 68.6389 91.9682C68.1011 91.4304 67.3717 91.1283 66.6112 91.1283C65.8507 91.1283 65.1213 91.4304 64.5835 91.9682C64.0457 92.5059 63.7436 93.2353 63.7436 93.9959C63.7436 94.7564 64.0457 95.4858 64.5835 96.0236C65.1213 96.5614 65.8507 96.8635 66.6112 96.8635C67.3717 96.8635 68.1011 96.5614 68.6389 96.0236C69.1767 95.4858 69.4788 94.7564 69.4788 93.9959ZM90.3294 106.653C90.3294 105.895 90.0281 105.167 89.4918 104.631C88.9555 104.095 88.2281 103.794 87.4696 103.794C86.7112 103.794 85.9838 104.095 85.4475 104.631C84.9112 105.167 84.6099 105.895 84.6099 106.653C84.6099 107.412 84.9112 108.139 85.4475 108.675C85.9838 109.212 86.7112 109.513 87.4696 109.513C88.2281 109.513 88.9555 109.212 89.4918 108.675C90.0281 108.139 90.3294 107.412 90.3294 106.653Z" fill="white"/>
</svg>
