<svg width="25" height="25" viewBox="0 0 25 25" fill="none" xmlns="http://www.w3.org/2000/svg">
<g clip-path="url(#clip0_21_252)">
<path d="M15.1965 5.17554C16.1732 5.3661 17.0709 5.84379 17.7745 6.54747C18.4782 7.25115 18.9559 8.1488 19.1465 9.12554L15.1965 5.17554ZM15.1965 1.17554C17.2258 1.40097 19.1181 2.30971 20.5627 3.75254C22.0074 5.19538 22.9185 7.08655 23.1465 9.11554L15.1965 1.17554ZM22.1465 17.0955V20.0955C22.1476 20.374 22.0906 20.6497 21.979 20.9049C21.8674 21.1601 21.7038 21.3891 21.4986 21.5774C21.2933 21.7657 21.0511 21.909 20.7872 21.9982C20.5234 22.0875 20.2439 22.1206 19.9665 22.0955C16.8893 21.7612 13.9335 20.7097 11.3365 19.0255C8.92031 17.4902 6.87181 15.4417 5.33648 13.0255C3.64646 10.4167 2.59472 7.44653 2.26648 4.35554C2.24149 4.079 2.27435 3.8003 2.36298 3.53716C2.4516 3.27403 2.59405 3.03223 2.78124 2.82716C2.96844 2.62209 3.19628 2.45825 3.45027 2.34606C3.70426 2.23387 3.97882 2.1758 4.25648 2.17554H7.25648C7.74179 2.17076 8.21227 2.34262 8.58024 2.65907C8.94821 2.97552 9.18856 3.41498 9.25648 3.89554C9.3831 4.8556 9.61793 5.79826 9.95648 6.70554C10.091 7.06346 10.1201 7.45245 10.0404 7.82642C9.96063 8.20038 9.77534 8.54365 9.50648 8.81554L8.23648 10.0855C9.66003 12.5891 11.7329 14.662 14.2365 16.0855L15.5065 14.8155C15.7784 14.5467 16.1216 14.3614 16.4956 14.2816C16.8696 14.2019 17.2586 14.231 17.6165 14.3655C18.5238 14.7041 19.4664 14.9389 20.4265 15.0655C20.9122 15.1341 21.3559 15.3787 21.673 15.753C21.9901 16.1273 22.1586 16.6051 22.1465 17.0955Z" stroke="white" stroke-linecap="round" stroke-linejoin="round"/>
</g>
<defs>
<clipPath id="clip0_21_252">
<rect width="24" height="24" fill="white" transform="translate(0.146484 0.175537)"/>
</clipPath>
</defs>
</svg>
