<svg width="81" height="80" viewBox="0 0 81 80" fill="none" xmlns="http://www.w3.org/2000/svg">
<path fill-rule="evenodd" clip-rule="evenodd" d="M58.4999 11.0547C53.7465 11.0547 49.4012 13.6739 47.2755 17.8204L39.6414 32.7116H23.3437C18.63 32.7116 14.0567 31.1469 10.3759 28.2751L2.57998 22.1923C2.14581 21.8535 1.55097 21.7875 1.04983 22.0224C0.548695 22.2573 0.22998 22.7516 0.22998 23.2939V69.3145C0.22998 74.5793 4.60566 78.847 10.0033 78.847C15.401 78.847 19.7766 74.5793 19.7766 69.3145V66.6076C19.7766 64.3967 21.6145 62.604 23.8815 62.604H34.984C37.2511 62.604 39.0889 64.3967 39.0889 66.6076V69.3145C39.0889 74.5793 43.4646 78.847 48.8622 78.847C54.2599 78.847 58.6358 74.5793 58.6358 69.3145V49.0685H68.2916C75.2223 49.0685 80.8408 43.5889 80.8408 36.8294V31.4152C80.8408 30.808 80.4422 30.2689 79.8514 30.0769L64.1866 24.9842V12.4655C64.1866 11.6864 63.5392 11.0547 62.7402 11.0547H58.4999Z" fill="#09011A"/>
<path fill-rule="evenodd" clip-rule="evenodd" d="M58.6358 49.0797C52.7073 47.856 48.311 44.5979 45.1206 40.7583C42.7219 37.8717 41.0564 34.7098 40.0107 31.9916L39.6416 32.7116H32.6147C33.8415 36.474 36.0568 41.0534 39.5019 45.1994C43.7654 50.3303 50.0155 54.9037 58.6358 56.2523V49.0797Z" fill="white"/>
</svg>
