<svg width="85" height="85" viewBox="0 0 85 85" fill="none" xmlns="http://www.w3.org/2000/svg">
<path fill-rule="evenodd" clip-rule="evenodd" d="M10.2456 0.569214C5.21584 0.569214 1.13843 4.64662 1.13843 9.67636V73.9956C1.13843 79.0251 5.21584 83.1027 10.2456 83.1027H74.5645C79.5946 83.1027 83.6716 79.0251 83.6716 73.9956V9.67636C83.6716 4.64662 79.5946 0.569214 74.5645 0.569214H10.2456Z" fill="#09011A"/>
<path fill-rule="evenodd" clip-rule="evenodd" d="M37.5669 21.6295C35.8903 21.6295 34.5312 22.9886 34.5312 24.6652V33.2033H25.9932C24.3167 33.2033 22.9575 34.5624 22.9575 36.239V46.1051C22.9575 47.7816 24.3167 49.1408 25.9932 49.1408H34.5312V57.6786C34.5312 59.3551 35.8903 60.7143 37.5669 60.7143H47.433C49.1095 60.7143 50.4687 59.3551 50.4687 57.6786V49.1408H59.0066C60.6832 49.1408 62.0426 47.7816 62.0426 46.1051V36.239C62.0426 34.5624 60.6832 33.2033 59.0066 33.2033H50.4687V24.6652C50.4687 22.9886 49.1095 21.6295 47.433 21.6295H37.5669Z" fill="white"/>
</svg>
