<svg width="260" height="69" viewBox="0 0 260 69" fill="none" xmlns="http://www.w3.org/2000/svg">
<g clip-path="url(#clip0_1080_364)">
<path d="M77.99 50.5643L74.255 44.1518H71.78V50.5643H69.7325V34.8818H74.795C75.98 34.8818 76.9775 35.0843 77.7875 35.4893C78.6125 35.8943 79.2275 36.4418 79.6325 37.1318C80.0375 37.8218 80.24 38.6093 80.24 39.4943C80.24 40.5743 79.925 41.5268 79.295 42.3518C78.68 43.1768 77.75 43.7243 76.505 43.9943L80.4425 50.5643H77.99ZM71.78 42.5093H74.795C75.905 42.5093 76.7375 42.2393 77.2925 41.6993C77.8475 41.1443 78.125 40.4093 78.125 39.4943C78.125 38.5643 77.8475 37.8443 77.2925 37.3343C76.7525 36.8243 75.92 36.5693 74.795 36.5693H71.78V42.5093ZM94.6715 43.9268C94.6715 44.3168 94.649 44.7293 94.604 45.1643H84.749C84.824 46.3793 85.2365 47.3318 85.9865 48.0218C86.7515 48.6968 87.674 49.0343 88.754 49.0343C89.639 49.0343 90.374 48.8318 90.959 48.4268C91.559 48.0068 91.979 47.4518 92.219 46.7618H94.424C94.094 47.9468 93.434 48.9143 92.444 49.6643C91.454 50.3993 90.224 50.7668 88.754 50.7668C87.584 50.7668 86.534 50.5043 85.604 49.9793C84.689 49.4543 83.969 48.7118 83.444 47.7518C82.919 46.7768 82.6565 45.6518 82.6565 44.3768C82.6565 43.1018 82.9115 41.9843 83.4215 41.0243C83.9315 40.0643 84.644 39.3293 85.559 38.8193C86.489 38.2943 87.554 38.0318 88.754 38.0318C89.924 38.0318 90.959 38.2868 91.859 38.7968C92.759 39.3068 93.449 40.0118 93.929 40.9118C94.424 41.7968 94.6715 42.8018 94.6715 43.9268ZM92.5565 43.4993C92.5565 42.7193 92.384 42.0518 92.039 41.4968C91.694 40.9268 91.2215 40.4993 90.6215 40.2143C90.0365 39.9143 89.384 39.7643 88.664 39.7643C87.629 39.7643 86.744 40.0943 86.009 40.7543C85.289 41.4143 84.8765 42.3293 84.7715 43.4993H92.5565ZM101.739 50.7668C100.794 50.7668 99.9466 50.6093 99.1966 50.2943C98.4466 49.9643 97.8541 49.5143 97.4191 48.9443C96.9841 48.3593 96.7441 47.6918 96.6991 46.9418H98.8141C98.8741 47.5568 99.1591 48.0593 99.6691 48.4493C100.194 48.8393 100.877 49.0343 101.717 49.0343C102.497 49.0343 103.112 48.8618 103.562 48.5168C104.012 48.1718 104.237 47.7368 104.237 47.2118C104.237 46.6718 103.997 46.2743 103.517 46.0193C103.037 45.7493 102.294 45.4868 101.289 45.2318C100.374 44.9918 99.6241 44.7518 99.0391 44.5118C98.4691 44.2568 97.9741 43.8893 97.5541 43.4093C97.1491 42.9143 96.9466 42.2693 96.9466 41.4743C96.9466 40.8443 97.1341 40.2668 97.5091 39.7418C97.8841 39.2168 98.4166 38.8043 99.1066 38.5043C99.7966 38.1893 100.584 38.0318 101.469 38.0318C102.834 38.0318 103.937 38.3768 104.777 39.0668C105.617 39.7568 106.067 40.7018 106.127 41.9018H104.079C104.034 41.2568 103.772 40.7393 103.292 40.3493C102.827 39.9593 102.197 39.7643 101.402 39.7643C100.667 39.7643 100.082 39.9218 99.6466 40.2368C99.2116 40.5518 98.9941 40.9643 98.9941 41.4743C98.9941 41.8793 99.1216 42.2168 99.3766 42.4868C99.6466 42.7418 99.9766 42.9518 100.367 43.1168C100.772 43.2668 101.327 43.4393 102.032 43.6343C102.917 43.8743 103.637 44.1143 104.192 44.3543C104.747 44.5793 105.219 44.9243 105.609 45.3893C106.014 45.8543 106.224 46.4618 106.239 47.2118C106.239 47.8868 106.052 48.4943 105.677 49.0343C105.302 49.5743 104.769 50.0018 104.079 50.3168C103.404 50.6168 102.624 50.7668 101.739 50.7668ZM120.379 43.9268C120.379 44.3168 120.357 44.7293 120.312 45.1643H110.457C110.532 46.3793 110.944 47.3318 111.694 48.0218C112.459 48.6968 113.382 49.0343 114.462 49.0343C115.347 49.0343 116.082 48.8318 116.667 48.4268C117.267 48.0068 117.687 47.4518 117.927 46.7618H120.132C119.802 47.9468 119.142 48.9143 118.152 49.6643C117.162 50.3993 115.932 50.7668 114.462 50.7668C113.292 50.7668 112.242 50.5043 111.312 49.9793C110.397 49.4543 109.677 48.7118 109.152 47.7518C108.627 46.7768 108.364 45.6518 108.364 44.3768C108.364 43.1018 108.619 41.9843 109.129 41.0243C109.639 40.0643 110.352 39.3293 111.267 38.8193C112.197 38.2943 113.262 38.0318 114.462 38.0318C115.632 38.0318 116.667 38.2868 117.567 38.7968C118.467 39.3068 119.157 40.0118 119.637 40.9118C120.132 41.7968 120.379 42.8018 120.379 43.9268ZM118.264 43.4993C118.264 42.7193 118.092 42.0518 117.747 41.4968C117.402 40.9268 116.929 40.4993 116.329 40.2143C115.744 39.9143 115.092 39.7643 114.372 39.7643C113.337 39.7643 112.452 40.0943 111.717 40.7543C110.997 41.4143 110.584 42.3293 110.479 43.4993H118.264ZM122.317 44.3543C122.317 43.0943 122.572 41.9918 123.082 41.0468C123.592 40.0868 124.29 39.3443 125.175 38.8193C126.075 38.2943 127.072 38.0318 128.167 38.0318C129.247 38.0318 130.185 38.2643 130.98 38.7293C131.775 39.1943 132.367 39.7793 132.757 40.4843V38.2343H134.827V50.5643H132.757V48.2693C132.352 48.9893 131.745 49.5893 130.935 50.0693C130.14 50.5343 129.21 50.7668 128.145 50.7668C127.05 50.7668 126.06 50.4968 125.175 49.9568C124.29 49.4168 123.592 48.6593 123.082 47.6843C122.572 46.7093 122.317 45.5993 122.317 44.3543ZM132.757 44.3768C132.757 43.4468 132.57 42.6368 132.195 41.9468C131.82 41.2568 131.31 40.7318 130.665 40.3718C130.035 39.9968 129.337 39.8093 128.572 39.8093C127.807 39.8093 127.11 39.9893 126.48 40.3493C125.85 40.7093 125.347 41.2343 124.972 41.9243C124.597 42.6143 124.41 43.4243 124.41 44.3543C124.41 45.2993 124.597 46.1243 124.972 46.8293C125.347 47.5193 125.85 48.0518 126.48 48.4268C127.11 48.7868 127.807 48.9668 128.572 48.9668C129.337 48.9668 130.035 48.7868 130.665 48.4268C131.31 48.0518 131.82 47.5193 132.195 46.8293C132.57 46.1243 132.757 45.3068 132.757 44.3768ZM140.335 40.2368C140.695 39.5318 141.205 38.9843 141.865 38.5943C142.54 38.2043 143.357 38.0093 144.317 38.0093V40.1243H143.777C141.482 40.1243 140.335 41.3693 140.335 43.8593V50.5643H138.287V38.2343H140.335V40.2368ZM145.916 44.3768C145.916 43.1018 146.171 41.9918 146.681 41.0468C147.191 40.0868 147.896 39.3443 148.796 38.8193C149.711 38.2943 150.753 38.0318 151.923 38.0318C153.438 38.0318 154.683 38.3993 155.658 39.1343C156.648 39.8693 157.301 40.8893 157.616 42.1943H155.411C155.201 41.4443 154.788 40.8518 154.173 40.4168C153.573 39.9818 152.823 39.7643 151.923 39.7643C150.753 39.7643 149.808 40.1693 149.088 40.9793C148.368 41.7743 148.008 42.9068 148.008 44.3768C148.008 45.8618 148.368 47.0093 149.088 47.8193C149.808 48.6293 150.753 49.0343 151.923 49.0343C152.823 49.0343 153.573 48.8243 154.173 48.4043C154.773 47.9843 155.186 47.3843 155.411 46.6043H157.616C157.286 47.8643 156.626 48.8768 155.636 49.6418C154.646 50.3918 153.408 50.7668 151.923 50.7668C150.753 50.7668 149.711 50.5043 148.796 49.9793C147.896 49.4543 147.191 48.7118 146.681 47.7518C146.171 46.7918 145.916 45.6668 145.916 44.3768ZM166.468 38.0093C167.398 38.0093 168.238 38.2118 168.988 38.6168C169.738 39.0068 170.323 39.5993 170.743 40.3943C171.178 41.1893 171.395 42.1568 171.395 43.2968V50.5643H169.37V43.5893C169.37 42.3593 169.063 41.4218 168.448 40.7768C167.833 40.1168 166.993 39.7868 165.928 39.7868C164.848 39.7868 163.985 40.1243 163.34 40.7993C162.71 41.4743 162.395 42.4568 162.395 43.7468V50.5643H160.348V33.9143H162.395V39.9893C162.8 39.3593 163.355 38.8718 164.06 38.5268C164.78 38.1818 165.583 38.0093 166.468 38.0093ZM179.973 42.7118C179.973 41.1818 180.318 39.8093 181.008 38.5943C181.698 37.3643 182.636 36.4043 183.821 35.7143C185.021 35.0243 186.348 34.6793 187.803 34.6793C189.513 34.6793 191.006 35.0918 192.281 35.9168C193.556 36.7418 194.486 37.9118 195.071 39.4268H192.618C192.183 38.4818 191.553 37.7543 190.728 37.2443C189.918 36.7343 188.943 36.4793 187.803 36.4793C186.708 36.4793 185.726 36.7343 184.856 37.2443C183.986 37.7543 183.303 38.4818 182.808 39.4268C182.313 40.3568 182.066 41.4518 182.066 42.7118C182.066 43.9568 182.313 45.0518 182.808 45.9968C183.303 46.9268 183.986 47.6468 184.856 48.1568C185.726 48.6668 186.708 48.9218 187.803 48.9218C188.943 48.9218 189.918 48.6743 190.728 48.1793C191.553 47.6693 192.183 46.9418 192.618 45.9968H195.071C194.486 47.4968 193.556 48.6593 192.281 49.4843C191.006 50.2943 189.513 50.6993 187.803 50.6993C186.348 50.6993 185.021 50.3618 183.821 49.6868C182.636 48.9968 181.698 48.0443 181.008 46.8293C180.318 45.6143 179.973 44.2418 179.973 42.7118ZM209.369 43.9268C209.369 44.3168 209.346 44.7293 209.301 45.1643H199.446C199.521 46.3793 199.934 47.3318 200.684 48.0218C201.449 48.6968 202.371 49.0343 203.451 49.0343C204.336 49.0343 205.071 48.8318 205.656 48.4268C206.256 48.0068 206.676 47.4518 206.916 46.7618H209.121C208.791 47.9468 208.131 48.9143 207.141 49.6643C206.151 50.3993 204.921 50.7668 203.451 50.7668C202.281 50.7668 201.231 50.5043 200.301 49.9793C199.386 49.4543 198.666 48.7118 198.141 47.7518C197.616 46.7768 197.354 45.6518 197.354 44.3768C197.354 43.1018 197.609 41.9843 198.119 41.0243C198.629 40.0643 199.341 39.3293 200.256 38.8193C201.186 38.2943 202.251 38.0318 203.451 38.0318C204.621 38.0318 205.656 38.2868 206.556 38.7968C207.456 39.3068 208.146 40.0118 208.626 40.9118C209.121 41.7968 209.369 42.8018 209.369 43.9268ZM207.254 43.4993C207.254 42.7193 207.081 42.0518 206.736 41.4968C206.391 40.9268 205.919 40.4993 205.319 40.2143C204.734 39.9143 204.081 39.7643 203.361 39.7643C202.326 39.7643 201.441 40.0943 200.706 40.7543C199.986 41.4143 199.574 42.3293 199.469 43.4993H207.254ZM218.079 38.0093C219.579 38.0093 220.794 38.4668 221.724 39.3818C222.654 40.2818 223.119 41.5868 223.119 43.2968V50.5643H221.094V43.5893C221.094 42.3593 220.786 41.4218 220.171 40.7768C219.556 40.1168 218.716 39.7868 217.651 39.7868C216.571 39.7868 215.709 40.1243 215.064 40.7993C214.434 41.4743 214.119 42.4568 214.119 43.7468V50.5643H212.071V38.2343H214.119V39.9893C214.524 39.3593 215.071 38.8718 215.761 38.5268C216.466 38.1818 217.239 38.0093 218.079 38.0093ZM228.961 39.9218V47.1893C228.961 47.7893 229.088 48.2168 229.343 48.4718C229.598 48.7118 230.041 48.8318 230.671 48.8318H232.178V50.5643H230.333C229.193 50.5643 228.338 50.3018 227.768 49.7768C227.198 49.2518 226.913 48.3893 226.913 47.1893V39.9218H225.316V38.2343H226.913V35.1293H228.961V38.2343H232.178V39.9218H228.961ZM245.909 43.9268C245.909 44.3168 245.887 44.7293 245.842 45.1643H235.987C236.062 46.3793 236.474 47.3318 237.224 48.0218C237.989 48.6968 238.912 49.0343 239.992 49.0343C240.877 49.0343 241.612 48.8318 242.197 48.4268C242.797 48.0068 243.217 47.4518 243.457 46.7618H245.662C245.332 47.9468 244.672 48.9143 243.682 49.6643C242.692 50.3993 241.462 50.7668 239.992 50.7668C238.822 50.7668 237.772 50.5043 236.842 49.9793C235.927 49.4543 235.207 48.7118 234.682 47.7518C234.157 46.7768 233.894 45.6518 233.894 44.3768C233.894 43.1018 234.149 41.9843 234.659 41.0243C235.169 40.0643 235.882 39.3293 236.797 38.8193C237.727 38.2943 238.792 38.0318 239.992 38.0318C241.162 38.0318 242.197 38.2868 243.097 38.7968C243.997 39.3068 244.687 40.0118 245.167 40.9118C245.662 41.7968 245.909 42.8018 245.909 43.9268ZM243.794 43.4993C243.794 42.7193 243.622 42.0518 243.277 41.4968C242.932 40.9268 242.459 40.4993 241.859 40.2143C241.274 39.9143 240.622 39.7643 239.902 39.7643C238.867 39.7643 237.982 40.0943 237.247 40.7543C236.527 41.4143 236.114 42.3293 236.009 43.4993H243.794ZM250.659 40.2368C251.019 39.5318 251.529 38.9843 252.189 38.5943C252.864 38.2043 253.682 38.0093 254.642 38.0093V40.1243H254.102C251.807 40.1243 250.659 41.3693 250.659 43.8593V50.5643H248.612V38.2343H250.659V40.2368Z" fill="white"/>
<path d="M70.0492 59.0488V67.0643H69.0027V59.0488H70.0492ZM74.9033 60.6473C75.6699 60.6473 76.2909 60.8812 76.7663 61.3488C77.2416 61.8088 77.4793 62.4758 77.4793 63.3498V67.0643H76.4443V63.4993C76.4443 62.8707 76.2871 62.3915 75.9728 62.0618C75.6584 61.7245 75.2291 61.5558 74.6848 61.5558C74.1328 61.5558 73.6919 61.7283 73.3623 62.0733C73.0403 62.4183 72.8793 62.9205 72.8793 63.5798V67.0643H71.8328V60.7623H72.8793V61.6593C73.0863 61.3373 73.3661 61.0882 73.7188 60.9118C74.0791 60.7355 74.4739 60.6473 74.9033 60.6473ZM82.2592 60.6473C83.0259 60.6473 83.6469 60.8812 84.1222 61.3488C84.5976 61.8088 84.8352 62.4758 84.8352 63.3498V67.0643H83.8002V63.4993C83.8002 62.8707 83.6431 62.3915 83.3287 62.0618C83.0144 61.7245 82.5851 61.5558 82.0407 61.5558C81.4887 61.5558 81.0479 61.7283 80.7182 62.0733C80.3962 62.4183 80.2352 62.9205 80.2352 63.5798V67.0643H79.1887V60.7623H80.2352V61.6593C80.4422 61.3373 80.7221 61.0882 81.0747 60.9118C81.4351 60.7355 81.8299 60.6473 82.2592 60.6473ZM89.2932 67.1678C88.7028 67.1678 88.1662 67.0337 87.6832 66.7653C87.2078 66.497 86.8322 66.1175 86.5562 65.6268C86.2878 65.1285 86.1537 64.5535 86.1537 63.9018C86.1537 63.2578 86.2917 62.6905 86.5677 62.1998C86.8513 61.7015 87.2347 61.322 87.7177 61.0613C88.2007 60.793 88.7412 60.6588 89.3392 60.6588C89.9372 60.6588 90.4777 60.793 90.9607 61.0613C91.4437 61.322 91.8232 61.6977 92.0992 62.1883C92.3828 62.679 92.5247 63.2502 92.5247 63.9018C92.5247 64.5535 92.379 65.1285 92.0877 65.6268C91.804 66.1175 91.4168 66.497 90.9262 66.7653C90.4355 67.0337 89.8912 67.1678 89.2932 67.1678ZM89.2932 66.2478C89.6688 66.2478 90.0215 66.1597 90.3512 65.9833C90.6808 65.807 90.9453 65.5425 91.1447 65.1898C91.3517 64.8372 91.4552 64.4078 91.4552 63.9018C91.4552 63.3958 91.3555 62.9665 91.1562 62.6138C90.9568 62.2612 90.6962 62.0005 90.3742 61.8318C90.0522 61.6555 89.7033 61.5673 89.3277 61.5673C88.9443 61.5673 88.5917 61.6555 88.2697 61.8318C87.9553 62.0005 87.7023 62.2612 87.5107 62.6138C87.319 62.9665 87.2232 63.3958 87.2232 63.9018C87.2232 64.4155 87.3152 64.8487 87.4992 65.2013C87.6908 65.554 87.9438 65.8185 88.2582 65.9948C88.5725 66.1635 88.9175 66.2478 89.2932 66.2478ZM96.2466 66.0983L98.2016 60.7623H99.3171L96.8446 67.0643H95.6256L93.1531 60.7623H94.2801L96.2466 66.0983ZM99.9559 63.8903C99.9559 63.2463 100.086 62.6828 100.347 62.1998C100.608 61.7092 100.964 61.3297 101.416 61.0613C101.876 60.793 102.386 60.6588 102.946 60.6588C103.498 60.6588 103.977 60.7777 104.383 61.0153C104.79 61.253 105.093 61.552 105.292 61.9123V60.7623H106.35V67.0643H105.292V65.8913C105.085 66.2593 104.774 66.566 104.36 66.8113C103.954 67.049 103.479 67.1678 102.934 67.1678C102.375 67.1678 101.869 67.0298 101.416 66.7538C100.964 66.4778 100.608 66.0907 100.347 65.5923C100.086 65.094 99.9559 64.5267 99.9559 63.8903ZM105.292 63.9018C105.292 63.4265 105.196 63.0125 105.004 62.6598C104.813 62.3072 104.552 62.0388 104.222 61.8548C103.9 61.6632 103.544 61.5673 103.153 61.5673C102.762 61.5673 102.405 61.6593 102.083 61.8433C101.761 62.0273 101.505 62.2957 101.313 62.6483C101.121 63.001 101.025 63.415 101.025 63.8903C101.025 64.3733 101.121 64.795 101.313 65.1553C101.505 65.508 101.761 65.7802 102.083 65.9718C102.405 66.1558 102.762 66.2478 103.153 66.2478C103.544 66.2478 103.9 66.1558 104.222 65.9718C104.552 65.7802 104.813 65.508 105.004 65.1553C105.196 64.795 105.292 64.3772 105.292 63.9018ZM109.395 61.6248V65.3393C109.395 65.646 109.46 65.8645 109.59 65.9948C109.721 66.1175 109.947 66.1788 110.269 66.1788H111.039V67.0643H110.096C109.514 67.0643 109.077 66.9302 108.785 66.6618C108.494 66.3935 108.348 65.9527 108.348 65.3393V61.6248H107.532V60.7623H108.348V59.1753H109.395V60.7623H111.039V61.6248H109.395ZM112.848 59.7388C112.649 59.7388 112.48 59.6698 112.342 59.5318C112.204 59.3938 112.135 59.2252 112.135 59.0258C112.135 58.8265 112.204 58.6578 112.342 58.5198C112.48 58.3818 112.649 58.3128 112.848 58.3128C113.04 58.3128 113.201 58.3818 113.331 58.5198C113.469 58.6578 113.538 58.8265 113.538 59.0258C113.538 59.2252 113.469 59.3938 113.331 59.5318C113.201 59.6698 113.04 59.7388 112.848 59.7388ZM113.354 60.7623V67.0643H112.307V60.7623H113.354ZM117.483 66.0983L119.438 60.7623H120.554L118.081 67.0643H116.862L114.39 60.7623H115.517L117.483 66.0983ZM127.334 63.6718C127.334 63.8712 127.322 64.082 127.299 64.3043H122.262C122.301 64.9253 122.511 65.4122 122.895 65.7648C123.286 66.1098 123.757 66.2823 124.309 66.2823C124.762 66.2823 125.137 66.1788 125.436 65.9718C125.743 65.7572 125.958 65.4735 126.08 65.1208H127.207C127.039 65.7265 126.701 66.221 126.195 66.6043C125.689 66.98 125.061 67.1678 124.309 67.1678C123.711 67.1678 123.175 67.0337 122.699 66.7653C122.232 66.497 121.864 66.1175 121.595 65.6268C121.327 65.1285 121.193 64.5535 121.193 63.9018C121.193 63.2502 121.323 62.679 121.584 62.1883C121.844 61.6977 122.209 61.322 122.676 61.0613C123.152 60.793 123.696 60.6588 124.309 60.6588C124.907 60.6588 125.436 60.7892 125.896 61.0498C126.356 61.3105 126.709 61.6708 126.954 62.1308C127.207 62.5832 127.334 63.0968 127.334 63.6718ZM126.253 63.4533C126.253 63.0547 126.165 62.7135 125.988 62.4298C125.812 62.1385 125.57 61.92 125.264 61.7743C124.965 61.621 124.631 61.5443 124.263 61.5443C123.734 61.5443 123.282 61.713 122.906 62.0503C122.538 62.3877 122.327 62.8553 122.274 63.4533H126.253ZM139.36 60.6473C139.85 60.6473 140.287 60.7508 140.671 60.9578C141.054 61.1572 141.357 61.46 141.579 61.8663C141.801 62.2727 141.913 62.7672 141.913 63.3498V67.0643H140.878V63.4993C140.878 62.8707 140.72 62.3915 140.406 62.0618C140.099 61.7245 139.682 61.5558 139.153 61.5558C138.608 61.5558 138.175 61.7322 137.853 62.0848C137.531 62.4298 137.37 62.932 137.37 63.5913V67.0643H136.335V63.4993C136.335 62.8707 136.178 62.3915 135.864 62.0618C135.557 61.7245 135.139 61.5558 134.61 61.5558C134.066 61.5558 133.633 61.7322 133.311 62.0848C132.989 62.4298 132.828 62.932 132.828 63.5913V67.0643H131.781V60.7623H132.828V61.6708C133.035 61.3412 133.311 61.0882 133.656 60.9118C134.008 60.7355 134.395 60.6473 134.817 60.6473C135.346 60.6473 135.814 60.7662 136.22 61.0038C136.626 61.2415 136.929 61.5903 137.129 62.0503C137.305 61.6057 137.596 61.2607 138.003 61.0153C138.409 60.77 138.861 60.6473 139.36 60.6473ZM144.17 59.7388C143.97 59.7388 143.802 59.6698 143.664 59.5318C143.526 59.3938 143.457 59.2252 143.457 59.0258C143.457 58.8265 143.526 58.6578 143.664 58.5198C143.802 58.3818 143.97 58.3128 144.17 58.3128C144.361 58.3128 144.522 58.3818 144.653 58.5198C144.791 58.6578 144.86 58.8265 144.86 59.0258C144.86 59.2252 144.791 59.3938 144.653 59.5318C144.522 59.6698 144.361 59.7388 144.17 59.7388ZM144.676 60.7623V67.0643H143.629V60.7623H144.676ZM149.53 60.6473C150.296 60.6473 150.917 60.8812 151.393 61.3488C151.868 61.8088 152.106 62.4758 152.106 63.3498V67.0643H151.071V63.4993C151.071 62.8707 150.914 62.3915 150.599 62.0618C150.285 61.7245 149.856 61.5558 149.311 61.5558C148.759 61.5558 148.318 61.7283 147.989 62.0733C147.667 62.4183 147.506 62.9205 147.506 63.5798V67.0643H146.459V60.7623H147.506V61.6593C147.713 61.3373 147.993 61.0882 148.345 60.9118C148.706 60.7355 149.1 60.6473 149.53 60.6473ZM153.424 63.8903C153.424 63.2463 153.555 62.6828 153.815 62.1998C154.076 61.7092 154.432 61.3297 154.885 61.0613C155.345 60.793 155.858 60.6588 156.426 60.6588C156.916 60.6588 157.373 60.7738 157.794 61.0038C158.216 61.2262 158.538 61.5213 158.76 61.8893V58.5543H159.818V67.0643H158.76V65.8798C158.553 66.2555 158.247 66.566 157.84 66.8113C157.434 67.049 156.959 67.1678 156.414 67.1678C155.855 67.1678 155.345 67.0298 154.885 66.7538C154.432 66.4778 154.076 66.0907 153.815 65.5923C153.555 65.094 153.424 64.5267 153.424 63.8903ZM158.76 63.9018C158.76 63.4265 158.664 63.0125 158.473 62.6598C158.281 62.3072 158.02 62.0388 157.691 61.8548C157.369 61.6632 157.012 61.5673 156.621 61.5673C156.23 61.5673 155.874 61.6593 155.552 61.8433C155.23 62.0273 154.973 62.2957 154.781 62.6483C154.59 63.001 154.494 63.415 154.494 63.8903C154.494 64.3733 154.59 64.795 154.781 65.1553C154.973 65.508 155.23 65.7802 155.552 65.9718C155.874 66.1558 156.23 66.2478 156.621 66.2478C157.012 66.2478 157.369 66.1558 157.691 65.9718C158.02 65.7802 158.281 65.508 158.473 65.1553C158.664 64.795 158.76 64.3772 158.76 63.9018ZM163.818 67.1678C163.335 67.1678 162.902 67.0873 162.518 66.9263C162.135 66.7577 161.832 66.5277 161.61 66.2363C161.387 65.9373 161.265 65.5962 161.242 65.2128H162.323C162.353 65.5272 162.499 65.784 162.76 65.9833C163.028 66.1827 163.377 66.2823 163.806 66.2823C164.205 66.2823 164.519 66.1942 164.749 66.0178C164.979 65.8415 165.094 65.6192 165.094 65.3508C165.094 65.0748 164.972 64.8717 164.726 64.7413C164.481 64.6033 164.101 64.4692 163.588 64.3388C163.12 64.2162 162.737 64.0935 162.438 63.9708C162.146 63.8405 161.893 63.6527 161.679 63.4073C161.472 63.1543 161.368 62.8247 161.368 62.4183C161.368 62.0963 161.464 61.8012 161.656 61.5328C161.847 61.2645 162.12 61.0537 162.472 60.9003C162.825 60.7393 163.227 60.6588 163.68 60.6588C164.377 60.6588 164.941 60.8352 165.37 61.1878C165.8 61.5405 166.03 62.0235 166.06 62.6368H165.014C164.991 62.3072 164.857 62.0427 164.611 61.8433C164.374 61.644 164.052 61.5443 163.645 61.5443C163.27 61.5443 162.971 61.6248 162.748 61.7858C162.526 61.9468 162.415 62.1577 162.415 62.4183C162.415 62.6253 162.48 62.7978 162.61 62.9358C162.748 63.0662 162.917 63.1735 163.116 63.2578C163.323 63.3345 163.607 63.4227 163.967 63.5223C164.42 63.645 164.788 63.7677 165.071 63.8903C165.355 64.0053 165.596 64.1817 165.796 64.4193C166.003 64.657 166.11 64.9675 166.118 65.3508C166.118 65.6958 166.022 66.0063 165.83 66.2823C165.639 66.5583 165.366 66.7768 165.014 66.9378C164.669 67.0912 164.27 67.1678 163.818 67.1678ZM170.27 63.9018C170.27 63.2502 170.4 62.6828 170.661 62.1998C170.922 61.7092 171.282 61.3297 171.742 61.0613C172.21 60.793 172.742 60.6588 173.34 60.6588C174.115 60.6588 174.751 60.8467 175.249 61.2223C175.755 61.598 176.089 62.1193 176.25 62.7863H175.123C175.016 62.403 174.805 62.1002 174.49 61.8778C174.184 61.6555 173.8 61.5443 173.34 61.5443C172.742 61.5443 172.259 61.7513 171.891 62.1653C171.523 62.5717 171.339 63.1505 171.339 63.9018C171.339 64.6608 171.523 65.2473 171.891 65.6613C172.259 66.0753 172.742 66.2823 173.34 66.2823C173.8 66.2823 174.184 66.175 174.49 65.9603C174.797 65.7457 175.008 65.439 175.123 65.0403H176.25C176.081 65.6843 175.744 66.2018 175.238 66.5928C174.732 66.9762 174.099 67.1678 173.34 67.1678C172.742 67.1678 172.21 67.0337 171.742 66.7653C171.282 66.497 170.922 66.1175 170.661 65.6268C170.4 65.1362 170.27 64.5612 170.27 63.9018ZM178.693 61.7858C178.877 61.4255 179.137 61.1457 179.475 60.9463C179.82 60.747 180.238 60.6473 180.728 60.6473V61.7283H180.452C179.279 61.7283 178.693 62.3647 178.693 63.6373V67.0643H177.646V60.7623H178.693V61.7858ZM187.686 63.6718C187.686 63.8712 187.675 64.082 187.652 64.3043H182.615C182.653 64.9253 182.864 65.4122 183.247 65.7648C183.638 66.1098 184.11 66.2823 184.662 66.2823C185.114 66.2823 185.49 66.1788 185.789 65.9718C186.095 65.7572 186.31 65.4735 186.433 65.1208H187.56C187.391 65.7265 187.054 66.221 186.548 66.6043C186.042 66.98 185.413 67.1678 184.662 67.1678C184.064 67.1678 183.527 67.0337 183.052 66.7653C182.584 66.497 182.216 66.1175 181.948 65.6268C181.679 65.1285 181.545 64.5535 181.545 63.9018C181.545 63.2502 181.676 62.679 181.936 62.1883C182.197 61.6977 182.561 61.322 183.029 61.0613C183.504 60.793 184.048 60.6588 184.662 60.6588C185.26 60.6588 185.789 60.7892 186.249 61.0498C186.709 61.3105 187.061 61.6708 187.307 62.1308C187.56 62.5832 187.686 63.0968 187.686 63.6718ZM186.605 63.4533C186.605 63.0547 186.517 62.7135 186.341 62.4298C186.164 62.1385 185.923 61.92 185.616 61.7743C185.317 61.621 184.984 61.5443 184.616 61.5443C184.087 61.5443 183.634 61.713 183.259 62.0503C182.891 62.3877 182.68 62.8553 182.626 63.4533H186.605ZM188.677 63.8903C188.677 63.2463 188.807 62.6828 189.068 62.1998C189.328 61.7092 189.685 61.3297 190.137 61.0613C190.597 60.793 191.107 60.6588 191.667 60.6588C192.219 60.6588 192.698 60.7777 193.104 61.0153C193.51 61.253 193.813 61.552 194.013 61.9123V60.7623H195.071V67.0643H194.013V65.8913C193.806 66.2593 193.495 66.566 193.081 66.8113C192.675 67.049 192.199 67.1678 191.655 67.1678C191.095 67.1678 190.589 67.0298 190.137 66.7538C189.685 66.4778 189.328 66.0907 189.068 65.5923C188.807 65.094 188.677 64.5267 188.677 63.8903ZM194.013 63.9018C194.013 63.4265 193.917 63.0125 193.725 62.6598C193.533 62.3072 193.273 62.0388 192.943 61.8548C192.621 61.6632 192.265 61.5673 191.874 61.5673C191.483 61.5673 191.126 61.6593 190.804 61.8433C190.482 62.0273 190.225 62.2957 190.034 62.6483C189.842 63.001 189.746 63.415 189.746 63.8903C189.746 64.3733 189.842 64.795 190.034 65.1553C190.225 65.508 190.482 65.7802 190.804 65.9718C191.126 66.1558 191.483 66.2478 191.874 66.2478C192.265 66.2478 192.621 66.1558 192.943 65.9718C193.273 65.7802 193.533 65.508 193.725 65.1553C193.917 64.795 194.013 64.3772 194.013 63.9018ZM198.116 61.6248V65.3393C198.116 65.646 198.181 65.8645 198.311 65.9948C198.441 66.1175 198.668 66.1788 198.99 66.1788H199.76V67.0643H198.817C198.234 67.0643 197.797 66.9302 197.506 66.6618C197.215 66.3935 197.069 65.9527 197.069 65.3393V61.6248H196.253V60.7623H197.069V59.1753H198.116V60.7623H199.76V61.6248H198.116ZM201.569 59.7388C201.369 59.7388 201.201 59.6698 201.063 59.5318C200.925 59.3938 200.856 59.2252 200.856 59.0258C200.856 58.8265 200.925 58.6578 201.063 58.5198C201.201 58.3818 201.369 58.3128 201.569 58.3128C201.76 58.3128 201.921 58.3818 202.052 58.5198C202.19 58.6578 202.259 58.8265 202.259 59.0258C202.259 59.2252 202.19 59.3938 202.052 59.5318C201.921 59.6698 201.76 59.7388 201.569 59.7388ZM202.075 60.7623V67.0643H201.028V60.7623H202.075ZM206.929 60.6473C207.695 60.6473 208.316 60.8812 208.792 61.3488C209.267 61.8088 209.505 62.4758 209.505 63.3498V67.0643H208.47V63.4993C208.47 62.8707 208.312 62.3915 207.998 62.0618C207.684 61.7245 207.254 61.5558 206.71 61.5558C206.158 61.5558 205.717 61.7283 205.388 62.0733C205.066 62.4183 204.905 62.9205 204.905 63.5798V67.0643H203.858V60.7623H204.905V61.6593C205.112 61.3373 205.391 61.0882 205.744 60.9118C206.104 60.7355 206.499 60.6473 206.929 60.6473ZM213.813 60.6588C214.357 60.6588 214.833 60.7777 215.239 61.0153C215.653 61.253 215.96 61.552 216.159 61.9123V60.7623H217.217V67.2023C217.217 67.7773 217.094 68.2872 216.849 68.7318C216.604 69.1842 216.251 69.5368 215.791 69.7898C215.339 70.0428 214.81 70.1693 214.204 70.1693C213.376 70.1693 212.686 69.9738 212.134 69.5828C211.582 69.1918 211.256 68.659 211.157 67.9843H212.192C212.307 68.3677 212.544 68.6743 212.905 68.9043C213.265 69.142 213.698 69.2608 214.204 69.2608C214.779 69.2608 215.247 69.0807 215.607 68.7203C215.975 68.36 216.159 67.854 216.159 67.2023V65.8798C215.952 66.2478 215.645 66.5545 215.239 66.7998C214.833 67.0452 214.357 67.1678 213.813 67.1678C213.253 67.1678 212.744 67.0298 212.284 66.7538C211.831 66.4778 211.475 66.0907 211.214 65.5923C210.953 65.094 210.823 64.5267 210.823 63.8903C210.823 63.2463 210.953 62.6828 211.214 62.1998C211.475 61.7092 211.831 61.3297 212.284 61.0613C212.744 60.793 213.253 60.6588 213.813 60.6588ZM216.159 63.9018C216.159 63.4265 216.063 63.0125 215.872 62.6598C215.68 62.3072 215.419 62.0388 215.09 61.8548C214.768 61.6632 214.411 61.5673 214.02 61.5673C213.629 61.5673 213.273 61.6593 212.951 61.8433C212.629 62.0273 212.372 62.2957 212.18 62.6483C211.988 63.001 211.893 63.415 211.893 63.8903C211.893 64.3733 211.988 64.795 212.18 65.1553C212.372 65.508 212.629 65.7802 212.951 65.9718C213.273 66.1558 213.629 66.2478 214.02 66.2478C214.411 66.2478 214.768 66.1558 215.09 65.9718C215.419 65.7802 215.68 65.508 215.872 65.1553C216.063 64.795 216.159 64.3772 216.159 63.9018ZM224.616 61.6248H223.294V67.0643H222.247V61.6248H221.431V60.7623H222.247V60.3138C222.247 59.6085 222.427 59.0948 222.788 58.7728C223.156 58.4432 223.742 58.2783 224.547 58.2783V59.1523C224.087 59.1523 223.761 59.2443 223.57 59.4283C223.386 59.6047 223.294 59.8998 223.294 60.3138V60.7623H224.616V61.6248ZM231.425 60.7623V67.0643H230.379V66.1328C230.179 66.4548 229.9 66.7078 229.539 66.8918C229.187 67.0682 228.796 67.1563 228.366 67.1563C227.876 67.1563 227.435 67.0567 227.044 66.8573C226.653 66.6503 226.342 66.3437 226.112 65.9373C225.89 65.531 225.779 65.0365 225.779 64.4538V60.7623H226.814V64.3158C226.814 64.9368 226.971 65.416 227.285 65.7533C227.6 66.083 228.029 66.2478 228.573 66.2478C229.133 66.2478 229.574 66.0753 229.896 65.7303C230.218 65.3853 230.379 64.8832 230.379 64.2238V60.7623H231.425ZM234.469 61.6248V65.3393C234.469 65.646 234.534 65.8645 234.664 65.9948C234.794 66.1175 235.021 66.1788 235.343 66.1788H236.113V67.0643H235.17C234.587 67.0643 234.15 66.9302 233.859 66.6618C233.568 66.3935 233.422 65.9527 233.422 65.3393V61.6248H232.606V60.7623H233.422V59.1753H234.469V60.7623H236.113V61.6248H234.469ZM242.97 60.7623V67.0643H241.924V66.1328C241.724 66.4548 241.444 66.7078 241.084 66.8918C240.731 67.0682 240.34 67.1563 239.911 67.1563C239.42 67.1563 238.98 67.0567 238.589 66.8573C238.198 66.6503 237.887 66.3437 237.657 65.9373C237.435 65.531 237.324 65.0365 237.324 64.4538V60.7623H238.359V64.3158C238.359 64.9368 238.516 65.416 238.83 65.7533C239.144 66.083 239.574 66.2478 240.118 66.2478C240.678 66.2478 241.119 66.0753 241.441 65.7303C241.763 65.3853 241.924 64.8832 241.924 64.2238V60.7623H242.97ZM245.784 61.7858C245.968 61.4255 246.228 61.1457 246.566 60.9463C246.911 60.747 247.328 60.6473 247.819 60.6473V61.7283H247.543C246.37 61.7283 245.784 62.3647 245.784 63.6373V67.0643H244.737V60.7623H245.784V61.7858ZM254.777 63.6718C254.777 63.8712 254.766 64.082 254.743 64.3043H249.706C249.744 64.9253 249.955 65.4122 250.338 65.7648C250.729 66.1098 251.201 66.2823 251.753 66.2823C252.205 66.2823 252.581 66.1788 252.88 65.9718C253.186 65.7572 253.401 65.4735 253.524 65.1208H254.651C254.482 65.7265 254.145 66.221 253.639 66.6043C253.133 66.98 252.504 67.1678 251.753 67.1678C251.155 67.1678 250.618 67.0337 250.143 66.7653C249.675 66.497 249.307 66.1175 249.039 65.6268C248.77 65.1285 248.636 64.5535 248.636 63.9018C248.636 63.2502 248.766 62.679 249.027 62.1883C249.288 61.6977 249.652 61.322 250.12 61.0613C250.595 60.793 251.139 60.6588 251.753 60.6588C252.351 60.6588 252.88 60.7892 253.34 61.0498C253.8 61.3105 254.152 61.6708 254.398 62.1308C254.651 62.5832 254.777 63.0968 254.777 63.6718ZM253.696 63.4533C253.696 63.0547 253.608 62.7135 253.432 62.4298C253.255 62.1385 253.014 61.92 252.707 61.7743C252.408 61.621 252.075 61.5443 251.707 61.5443C251.178 61.5443 250.725 61.713 250.35 62.0503C249.982 62.3877 249.771 62.8553 249.717 63.4533H253.696Z" fill="#EEEEEE"/>
<path d="M76.4493 4.834V28H70.8063V4.834H76.4493ZM101.263 28H95.6197L86.1817 13.711V28H80.5387V4.834H86.1817L95.6197 19.189V4.834H101.263V28ZM126.077 28H120.434L110.996 13.711V28H105.353V4.834H110.996L120.434 19.189V4.834H126.077V28ZM141.124 28.231C138.946 28.231 136.944 27.725 135.118 26.713C133.314 25.701 131.873 24.293 130.795 22.489C129.739 20.663 129.211 18.617 129.211 16.351C129.211 14.085 129.739 12.05 130.795 10.246C131.873 8.442 133.314 7.034 135.118 6.022C136.944 5.01 138.946 4.504 141.124 4.504C143.302 4.504 145.293 5.01 147.097 6.022C148.923 7.034 150.353 8.442 151.387 10.246C152.443 12.05 152.971 14.085 152.971 16.351C152.971 18.617 152.443 20.663 151.387 22.489C150.331 24.293 148.901 25.701 147.097 26.713C145.293 27.725 143.302 28.231 141.124 28.231ZM141.124 23.083C142.972 23.083 144.446 22.467 145.546 21.235C146.668 20.003 147.229 18.375 147.229 16.351C147.229 14.305 146.668 12.677 145.546 11.467C144.446 10.235 142.972 9.619 141.124 9.619C139.254 9.619 137.758 10.224 136.636 11.434C135.536 12.644 134.986 14.283 134.986 16.351C134.986 18.397 135.536 20.036 136.636 21.268C137.758 22.478 139.254 23.083 141.124 23.083Z" fill="white"/>
<path d="M208.111 4.834V28H202.468V18.463H193.69V28H188.047V4.834H193.69V13.909H202.468V4.834H208.111ZM217.729 4.834V18.694C217.729 20.08 218.07 21.147 218.752 21.895C219.434 22.643 220.435 23.017 221.755 23.017C223.075 23.017 224.087 22.643 224.791 21.895C225.495 21.147 225.847 20.08 225.847 18.694V4.834H231.49V18.661C231.49 20.729 231.05 22.478 230.17 23.908C229.29 25.338 228.102 26.416 226.606 27.142C225.132 27.868 223.482 28.231 221.656 28.231C219.83 28.231 218.191 27.879 216.739 27.175C215.309 26.449 214.176 25.371 213.34 23.941C212.504 22.489 212.086 20.729 212.086 18.661V4.834H217.729ZM249.478 16.12C250.82 16.406 251.898 17.077 252.712 18.133C253.526 19.167 253.933 20.355 253.933 21.697C253.933 23.633 253.251 25.173 251.887 26.317C250.545 27.439 248.664 28 246.244 28H235.453V4.834H245.881C248.235 4.834 250.072 5.373 251.392 6.451C252.734 7.529 253.405 8.992 253.405 10.84C253.405 12.204 253.042 13.337 252.316 14.239C251.612 15.141 250.666 15.768 249.478 16.12ZM241.096 14.206H244.792C245.716 14.206 246.42 14.008 246.904 13.612C247.41 13.194 247.663 12.589 247.663 11.797C247.663 11.005 247.41 10.4 246.904 9.982C246.42 9.564 245.716 9.355 244.792 9.355H241.096V14.206ZM245.254 23.446C246.2 23.446 246.926 23.237 247.432 22.819C247.96 22.379 248.224 21.752 248.224 20.938C248.224 20.124 247.949 19.486 247.399 19.024C246.871 18.562 246.134 18.331 245.188 18.331H241.096V23.446H245.254Z" fill="white"/>
<mask id="mask0_1080_364" style="mask-type:luminance" maskUnits="userSpaceOnUse" x="158" y="5" width="24" height="23">
<path d="M181.878 5.00464H158.883V28H181.878V5.00464Z" fill="white"/>
</mask>
<g mask="url(#mask0_1080_364)">
<path d="M170.15 16.0529V9.2351L165.564 5.00403V10.9478C160.401 12.5596 161.385 14.117 162.177 14.783L158.883 16.5594L164.252 19.4567L169.691 16.5594L164.252 13.6643L162.286 14.7244C161.443 13.4446 164.011 11.9143 165.564 11.1374V11.9078L170.15 16.0529Z" fill="#BF0A44"/>
<path d="M175.477 21.0966L170.892 16.951V23.7685L172.897 25.619C172.542 27.3668 170.539 26.0543 169.095 24.8307L170.247 23.7685V16.951L165.662 21.0966V27.9997L168.878 25.0317C172.453 29.1475 172.883 26.5397 172.93 25.6485L175.477 27.9997L175.477 21.0966Z" fill="#0063B0"/>
<path d="M177.089 14.01C178.308 7.62216 176.127 8.63359 175.38 9.13583V5.00464L170.795 9.23547V16.053L175.38 11.9067V9.19048C176.998 8.50411 177.038 11.8831 176.924 13.9218L176.441 13.6646L171.072 16.56L176.441 19.4573L181.88 16.56L177.089 14.01Z" fill="#249795"/>
</g>
<mask id="mask1_1080_364" style="mask-type:luminance" maskUnits="userSpaceOnUse" x="0" y="1" width="65" height="68">
<path d="M65 1H0V69H65V1Z" fill="white"/>
</mask>
<g mask="url(#mask1_1080_364)">
<path d="M25.8374 28.5561H39.1637V19.4061C37.0688 17.0207 28.1932 17.2375 25.8374 19.4061V28.5561Z" fill="white"/>
<path d="M62.5062 8.57345C53.4223 3.61591 43.0574 1 32.4977 1C21.9381 1 11.573 3.61591 2.48926 8.57345C0.881559 13.2499 0 19.3592 0 24.6191C0 42.9328 10.6417 59.6462 25.8371 66.598C27.9764 67.5781 30.2056 68.3815 32.4987 69C34.7932 68.382 37.0235 67.5777 39.1634 66.5966C54.3558 59.6457 65.0005 42.9319 65.0005 24.6191C65 19.3592 64.1114 13.2499 62.5062 8.57345ZM42.6901 49.546L39.1634 59.689V34.6944C37.0685 32.3072 28.1929 32.5248 25.8371 34.6944V59.689L22.3108 49.5332C16.037 43.2291 11.4233 34.318 11.4233 24.6191C11.4207 21.9832 11.7053 19.3536 12.2729 16.77C18.5985 14.0244 25.5052 12.6007 32.4985 12.6007C39.4918 12.6007 46.3985 14.0244 52.7241 16.77C53.2938 19.3534 53.5802 21.983 53.5787 24.6191C53.5777 34.3244 48.971 43.2406 42.6901 49.546Z" fill="white"/>
</g>
<path d="M6.5 14.6V41.5776L7.062 42.3179L18.5 55.8423V66.9999C18.5 68.1045 19.3954 69 20.5 69H30.5V54.8087C30.508 54.6786 30.792 47.3464 25.624 43.4249C25.61 43.4154 25.64 43.361 25.624 43.3539C25.61 43.3421 25.578 43.361 25.564 43.3539C23.194 41.5232 20.75 40.0284 19.064 38.4745C18.586 38.0366 18.1745 37.6198 17.8297 37.2003C16.4268 35.4937 14.7091 33.5217 12.5 33.5217V33.5217C12.5 37.3463 14.39 40.2484 16.562 42.2446C18.734 44.2409 21.258 45.7097 23.374 47.344H23.438C26.64 49.7187 26.5 54.7353 26.5 54.7353V64.2695H22.5V53.8484L21.938 53.1081L10.5 39.5838V18.6C10.5 16.3908 8.70914 14.6 6.5 14.6V14.6ZM58.5 14.6C56.2909 14.6 54.5 16.3908 54.5 18.6V39.5838L43.062 53.1081L42.5 53.8484V64.2695H38.5V54.6596C38.5 54.6596 38.36 49.7163 41.562 47.344H41.626C43.736 45.7097 46.266 44.2361 48.438 42.2423C50.61 40.2507 52.5 37.3463 52.5 33.5217V33.5217C50.2909 33.5217 48.5731 35.4935 47.1708 37.2006C46.8264 37.6199 46.4153 38.0367 45.938 38.4745C44.25 40.0261 41.806 41.5209 39.438 43.3515C39.422 43.361 39.39 43.3421 39.374 43.3515V43.4272C34.25 47.3062 34.494 54.5603 34.5 54.8087V69H44.5C45.6046 69 46.5 68.1045 46.5 67V55.8423L57.938 42.3179V42.3179C58.3026 41.8376 58.5 41.2512 58.5 40.6482V14.6V14.6Z" fill="#E29234"/>
<path d="M35.8558 15.144C36.1957 15.5275 36.4513 15.9948 36.6024 16.5088L37.0909 18.1954C37.132 18.3251 37.2078 18.4374 37.3079 18.5168C37.4081 18.5961 37.5276 18.6388 37.6501 18.6388C37.7727 18.6388 37.8922 18.5961 37.9924 18.5168C38.0925 18.4374 38.1683 18.3251 38.2094 18.1954L38.6979 16.5088C38.8497 15.9959 39.106 15.5299 39.4463 15.1479C39.7866 14.7659 40.2015 14.4785 40.6581 14.3084L42.1591 13.7606C42.2746 13.7144 42.3745 13.6292 42.4451 13.5167C42.5158 13.4042 42.5537 13.2699 42.5537 13.1322C42.5537 12.9945 42.5158 12.8602 42.4451 12.7477C42.3745 12.6352 42.2746 12.55 42.1591 12.5039L42.1297 12.495L40.6277 11.9472C40.1712 11.7768 39.7564 11.4892 39.4162 11.1073C39.0759 10.7254 38.8196 10.2595 38.6675 9.74684L38.1799 8.06021C38.1393 7.92998 38.0637 7.81715 37.9635 7.73733C37.8633 7.6575 37.7435 7.61462 37.6207 7.61462C37.4979 7.61462 37.3781 7.6575 37.2779 7.73733C37.1778 7.81715 37.1021 7.92998 37.0615 8.06021L36.5729 9.74684L36.5602 9.78873C36.4076 10.2887 36.1556 10.743 35.8232 11.1171C35.4909 11.4911 35.0869 11.775 34.6422 11.9472L33.1412 12.495C33.0257 12.5412 32.9258 12.6264 32.8552 12.7389C32.7845 12.8514 32.7466 12.9857 32.7466 13.1234C32.7466 13.2611 32.7845 13.3954 32.8552 13.5079C32.9258 13.6204 33.0257 13.7056 33.1412 13.7517L34.6422 14.2996C35.1004 14.4716 35.5153 14.7604 35.8558 15.144ZM44.342 19.0343L45.2426 19.3628L45.2613 19.3672C45.331 19.3944 45.3914 19.4453 45.4342 19.5129C45.477 19.5804 45.5 19.6613 45.5 19.7442C45.5 19.8271 45.477 19.908 45.4342 19.9756C45.3914 20.0431 45.331 20.094 45.2613 20.1212L44.3597 20.4508C44.086 20.5531 43.8373 20.7255 43.6333 20.9546C43.4293 21.1836 43.2756 21.4629 43.1843 21.7704L42.891 22.7823C42.8664 22.8602 42.8209 22.9275 42.7608 22.9752C42.7007 23.0228 42.629 23.0484 42.5555 23.0484C42.482 23.0484 42.4102 23.0228 42.3502 22.9752C42.2901 22.9275 42.2446 22.8602 42.22 22.7823L41.9266 21.7704C41.8361 21.4619 41.6827 21.1814 41.4787 20.9514C41.2746 20.7213 41.0255 20.548 40.7513 20.4453L39.8497 20.1168C39.78 20.0896 39.7195 20.0387 39.6767 19.9712C39.634 19.9036 39.611 19.8227 39.611 19.7398C39.611 19.6569 39.634 19.576 39.6767 19.5085C39.7195 19.4409 39.78 19.39 39.8497 19.3628L40.7513 19.0332C41.0217 18.9283 41.2669 18.7547 41.4677 18.5258C41.6685 18.2969 41.8195 18.019 41.909 17.7137L42.2023 16.7017C42.2269 16.6238 42.2724 16.5565 42.3325 16.5089C42.3926 16.4612 42.4643 16.4357 42.5378 16.4357C42.6114 16.4357 42.6831 16.4612 42.7431 16.5089C42.8032 16.5565 42.8487 16.6238 42.8733 16.7017L43.1657 17.7137C43.2569 18.0213 43.4107 18.3007 43.6149 18.5298C43.8191 18.7589 44.0681 18.9324 44.342 19.0343ZM29.574 11.4698C30.1632 11.0611 30.8337 10.8237 31.525 10.7791C32.2163 10.7344 32.9066 10.8839 33.5336 11.2141L32.8321 11.4742C32.5183 11.5919 32.2466 11.82 32.0571 12.1246C31.8663 12.4214 31.7637 12.7782 31.7637 13.1443C31.7637 13.5104 31.8663 13.8672 32.0571 14.164C32.2405 14.465 32.5054 14.6932 32.8125 14.8144L34.343 15.3656C34.6491 15.4869 34.9267 15.682 35.1573 15.9388C35.222 16.0094 35.2809 16.0877 35.3338 16.1703C35.4823 16.3807 35.5954 16.6198 35.6674 16.8759L36.1579 18.5625C36.2684 18.9147 36.4699 19.2218 36.7368 19.4444C37.0052 19.652 37.3233 19.7632 37.6492 19.7632C37.975 19.7632 38.2932 19.652 38.5616 19.4444L38.6891 19.3231C38.652 19.4589 38.6325 19.6 38.6312 19.742C38.6342 20.0529 38.7195 20.356 38.8765 20.6129C39.0346 20.8669 39.2618 21.0564 39.524 21.153L40.4462 21.4948C40.5722 21.5411 40.6865 21.6205 40.7798 21.7263L40.7925 21.7395L34.0467 26.6969C33.3683 27.1953 32.5753 27.4608 31.7647 27.4608C30.9542 27.4608 30.1612 27.1953 29.4828 26.6969L20.972 20.4442V27.183C20.972 27.4023 20.8945 27.6126 20.7565 27.7676C20.6185 27.9227 20.4314 28.0098 20.2362 28.0098C20.0411 28.0098 19.8539 27.9227 19.7159 27.7676C19.5779 27.6126 19.5004 27.4023 19.5004 27.183V19.1908C19.5004 19.1434 19.5043 19.0971 19.5102 19.053C19.4859 18.8908 19.5052 18.7241 19.5657 18.5743C19.6262 18.4244 19.725 18.2983 19.8497 18.2119L29.574 11.4698ZM23.9152 24.5814L28.6763 28.0792C29.5942 28.7536 30.6671 29.1128 31.7637 29.1128C32.8604 29.1128 33.9333 28.7536 34.8512 28.0792L39.6123 24.5825V29.9389C39.6123 30.2685 39.4533 30.4669 39.266 30.6731C39.1728 30.7745 39.0393 30.9156 38.8647 31.0832C38.3923 31.536 37.8869 31.9435 37.3539 32.3013C36.0471 33.1832 34.1389 34.0728 31.7637 34.0728C29.3896 34.0728 27.4804 33.1832 26.1736 32.3013C25.6406 31.9435 25.1352 31.536 24.6628 31.0832C24.5248 30.9514 24.3907 30.8146 24.2605 30.6731C24.0741 30.4669 23.9152 30.2685 23.9152 29.9389V24.5814Z" fill="#4147D5"/>
</g>
<defs>
<clipPath id="clip0_1080_364">
<rect width="260" height="69" fill="white"/>
</clipPath>
</defs>
</svg>
