<svg width="104" height="82" viewBox="0 0 104 82" fill="none" xmlns="http://www.w3.org/2000/svg">
<path d="M0.449707 80.3425L0.459707 2.42248C0.459707 1.99018 0.631438 1.57558 0.937122 1.2699C1.24281 0.964211 1.6574 0.79248 2.08971 0.79248H102.37C102.802 0.79248 103.217 0.964211 103.522 1.2699C103.828 1.57558 104 1.99018 104 2.42248L104.01 65.7125C104.01 65.928 103.968 66.1414 103.886 66.3405C103.803 66.5397 103.682 66.7205 103.53 66.8725L88.8997 81.4825C88.5951 81.7885 88.1815 81.9611 87.7497 81.9625L2.07971 81.9725C1.6474 81.9725 1.23281 81.8008 0.927122 81.4951C0.621438 81.1894 0.449707 80.7748 0.449707 80.3425ZM100.51 4.71248C100.51 4.61435 100.471 4.52024 100.401 4.45085C100.332 4.38146 100.238 4.34248 100.14 4.34248H4.33971C4.24158 4.34248 4.14747 4.38146 4.07808 4.45085C4.00869 4.52024 3.96971 4.61435 3.96971 4.71248V18.1525C3.96971 18.2506 4.00869 18.3447 4.07808 18.4141C4.14747 18.4835 4.24158 18.5225 4.33971 18.5225H100.14C100.238 18.5225 100.332 18.4835 100.401 18.4141C100.471 18.3447 100.51 18.2506 100.51 18.1525V4.71248ZM85.7397 65.5225C85.7397 65.0584 85.9251 64.6132 86.2552 64.285C86.5853 63.9569 87.0329 63.7725 87.4997 63.7725H100.01C100.343 63.7725 100.51 63.6025 100.51 63.2625V22.5325C100.51 22.2191 100.35 22.0625 100.03 22.0625L4.57971 22.0725C4.17304 22.0725 3.96971 22.2791 3.96971 22.6925L3.94971 78.2325C3.94971 78.4925 4.08304 78.6225 4.34971 78.6225L85.3397 78.5725C85.4538 78.5725 85.5631 78.5272 85.6438 78.4465C85.7244 78.3659 85.7697 78.2565 85.7697 78.1425L85.7397 65.5225ZM89.2597 75.2525C89.2599 75.3196 89.2799 75.3852 89.3173 75.4409C89.3546 75.4967 89.4077 75.5402 89.4697 75.5658C89.5317 75.5915 89.6 75.5982 89.6658 75.5852C89.7317 75.5721 89.7922 75.5399 89.8397 75.4925L97.3397 67.9725C97.3877 67.9243 97.4202 67.8629 97.433 67.7961C97.4457 67.7293 97.4381 67.6602 97.4112 67.5978C97.3843 67.5353 97.3393 67.4824 97.282 67.4458C97.2246 67.4092 97.1577 67.3906 97.0897 67.3925L89.6097 67.4325C89.5195 67.4325 89.433 67.4683 89.3693 67.5321C89.3055 67.5958 89.2697 67.6823 89.2697 67.7725L89.2597 75.2525Z" fill="white"/>
<path d="M13.5896 14.4424C15.2299 14.4424 16.5596 13.1127 16.5596 11.4724C16.5596 9.83215 15.2299 8.50244 13.5896 8.50244C11.9493 8.50244 10.6196 9.83215 10.6196 11.4724C10.6196 13.1127 11.9493 14.4424 13.5896 14.4424Z" fill="white"/>
<path d="M25.7598 14.4525C27.3946 14.4525 28.7198 13.1272 28.7198 11.4925C28.7198 9.85771 27.3946 8.53247 25.7598 8.53247C24.125 8.53247 22.7998 9.85771 22.7998 11.4925C22.7998 13.1272 24.125 14.4525 25.7598 14.4525Z" fill="white"/>
<path d="M37.97 14.4524C39.6103 14.4524 40.94 13.1227 40.94 11.4825C40.94 9.84216 39.6103 8.51245 37.97 8.51245C36.3297 8.51245 35 9.84216 35 11.4825C35 13.1227 36.3297 14.4524 37.97 14.4524Z" fill="white"/>
<path d="M80.5496 59.7025C80.5496 60.1162 80.3853 60.513 80.0927 60.8056C79.8002 61.0981 79.4034 61.2625 78.9896 61.2625H25.4296C25.2248 61.2625 25.0219 61.2221 24.8326 61.1437C24.6434 61.0653 24.4714 60.9504 24.3265 60.8056C24.1817 60.6607 24.0668 60.4887 23.9884 60.2995C23.91 60.1102 23.8696 59.9073 23.8696 59.7025V41.3425C23.8696 41.1376 23.91 40.9348 23.9884 40.7455C24.0668 40.5562 24.1817 40.3842 24.3265 40.2394C24.4714 40.0945 24.6434 39.9796 24.8326 39.9012C25.0219 39.8228 25.2248 39.7825 25.4296 39.7825H78.9896C79.4034 39.7825 79.8002 39.9468 80.0927 40.2394C80.3853 40.5319 80.5496 40.9287 80.5496 41.3425V59.7025ZM77.2496 43.8725C77.2496 43.7239 77.1906 43.5815 77.0856 43.4765C76.9806 43.3715 76.8382 43.3125 76.6896 43.3125H27.8096C27.6611 43.3125 27.5187 43.3715 27.4136 43.4765C27.3086 43.5815 27.2496 43.7239 27.2496 43.8725V57.0725C27.2496 57.221 27.3086 57.3634 27.4136 57.4684C27.5187 57.5735 27.6611 57.6325 27.8096 57.6325H76.6896C76.8382 57.6325 76.9806 57.5735 77.0856 57.4684C77.1906 57.3634 77.2496 57.221 77.2496 57.0725V43.8725Z" fill="white"/>
<path d="M40.0799 53.4125C41.7091 53.4125 43.0299 52.0917 43.0299 50.4624C43.0299 48.8332 41.7091 47.5125 40.0799 47.5125C38.4506 47.5125 37.1299 48.8332 37.1299 50.4624C37.1299 52.0917 38.4506 53.4125 40.0799 53.4125Z" fill="white"/>
<path d="M52.2197 53.4624C53.8656 53.4624 55.1997 52.1283 55.1997 50.4824C55.1997 48.8366 53.8656 47.5024 52.2197 47.5024C50.5739 47.5024 49.2397 48.8366 49.2397 50.4824C49.2397 52.1283 50.5739 53.4624 52.2197 53.4624Z" fill="white"/>
<path d="M64.3699 53.4624C66.0212 53.4624 67.3599 52.1238 67.3599 50.4724C67.3599 48.8211 66.0212 47.4824 64.3699 47.4824C62.7185 47.4824 61.3799 48.8211 61.3799 50.4724C61.3799 52.1238 62.7185 53.4624 64.3699 53.4624Z" fill="white"/>
</svg>
