<svg width="100" height="92" viewBox="0 0 100 92" fill="none" xmlns="http://www.w3.org/2000/svg">
<path d="M25.7433 36.1527C22.6633 36.2127 19.5033 36.216 16.2633 36.1627C12.9233 36.1127 13.8833 31.5627 13.9833 29.4327C13.9888 29.3493 13.9768 29.2657 13.9482 29.1871C13.9195 29.1084 13.8747 29.0364 13.8165 28.9755C13.7584 28.9145 13.6882 28.866 13.6102 28.8328C13.5323 28.7997 13.4482 28.7826 13.3633 28.7827L3.29334 28.8027C1.86667 28.8027 1.08001 28.0927 0.93334 26.6727C0.880006 26.146 1.04001 25.6327 1.41334 25.1327C1.55982 24.9428 1.74689 24.789 1.96014 24.6832C2.17339 24.5775 2.40713 24.5226 2.64334 24.5227H16.2933C17.6133 24.5227 18.2733 25.1827 18.2733 26.5027L18.2633 30.6127C18.2633 31.3794 18.6433 31.7694 19.4033 31.7827L25.0933 31.8927C25.9867 31.906 26.37 31.4727 26.2433 30.5927C25.5167 25.5327 27.2233 23.0894 31.3633 23.2627C32.3567 23.3027 33.3667 23.2894 34.3933 23.2227C34.8267 23.1894 35.0433 22.956 35.0433 22.5227L35.0333 16.7427C35.0333 16.236 34.7833 15.9827 34.2833 15.9827L30.2833 15.9727C29.7582 15.9727 29.2546 15.7641 28.8833 15.3928C28.5119 15.0214 28.3033 14.5178 28.3033 13.9927V5.42269C28.3033 4.01602 29.0067 3.28935 30.4133 3.24269L30.7833 3.23269C31.9967 3.19269 32.6067 3.77935 32.6133 4.99269L32.6333 10.8027C32.6333 11.276 32.87 11.5194 33.3433 11.5327L37.5333 11.6327C38.017 11.6458 38.4763 11.8478 38.8128 12.1955C39.1493 12.5432 39.3361 13.0089 39.3333 13.4927L39.3233 22.5327C39.3233 23.0327 39.5733 23.2827 40.0733 23.2827H46.3133C46.82 23.2827 47.0733 23.0294 47.0733 22.5227L47.0833 2.37269C47.0833 1.91465 47.265 1.47508 47.5888 1.14933C47.9127 0.82359 48.3527 0.63795 48.8133 0.632687L57.1333 0.562688C58.5533 0.549354 59.3367 1.24602 59.4833 2.65269C59.5567 3.33269 59.2867 3.95935 58.6733 4.53269C58.3712 4.81504 57.9733 4.96918 57.5633 4.96269L52.0733 4.88269C51.9858 4.88136 51.8989 4.89745 51.8177 4.93003C51.7365 4.9626 51.6625 5.01101 51.6002 5.07242C51.5378 5.13384 51.4883 5.20705 51.4545 5.28778C51.4207 5.36852 51.4033 5.45517 51.4033 5.54269L51.4333 22.7227C51.4333 22.8739 51.4944 23.0188 51.6032 23.1257C51.712 23.2326 51.8595 23.2927 52.0133 23.2927L62.0933 23.2727C62.1676 23.2727 62.2388 23.2432 62.2913 23.1907C62.3438 23.1382 62.3733 23.0669 62.3733 22.9927L62.3433 7.77269C62.3433 6.28602 63.08 5.44602 64.5533 5.25269C65.14 5.17269 65.74 5.46935 66.3533 6.14269C66.5914 6.40678 66.7232 6.74878 66.7233 7.10269L66.7533 22.1027C66.7533 23.096 67.2467 23.5194 68.2333 23.3727C73.56 22.5794 76.06 24.5627 75.7333 29.3227C75.6667 30.2894 75.66 31.2594 75.7133 32.2327C75.7333 32.6327 75.9433 32.8327 76.3433 32.8327L87.0533 32.8127C87.5733 32.8127 87.83 32.5527 87.8233 32.0327L87.7933 25.6327C87.7867 24.1727 88.5067 23.4994 89.9533 23.6127L90.4333 23.6427C90.9143 23.6782 91.3638 23.8953 91.6907 24.25C92.0175 24.6047 92.1972 25.0704 92.1933 25.5527L92.1333 35.4427C92.1307 35.9219 91.9381 36.3808 91.5974 36.7197C91.2566 37.0585 90.7952 37.2501 90.3133 37.2527H76.2833C75.91 37.2527 75.7233 37.4394 75.7233 37.8127L75.6833 44.7127C75.6833 44.8639 75.7434 45.0088 75.8503 45.1157C75.9572 45.2226 76.1022 45.2827 76.2533 45.2827L88.5933 45.2727C88.8279 45.2727 89.0602 45.3188 89.2768 45.4084C89.4934 45.498 89.6901 45.6292 89.8555 45.7947C90.021 45.9601 90.1519 46.1564 90.2407 46.3723C90.3296 46.5882 90.3747 46.8194 90.3733 47.0527L90.3433 50.7627C90.3433 50.855 90.3618 50.9464 90.3977 51.0314C90.4336 51.1165 90.4862 51.1935 90.5525 51.2578C90.6187 51.3221 90.6971 51.3725 90.7831 51.406C90.8692 51.4395 90.9611 51.4554 91.0533 51.4527L97.2833 51.3227C97.7413 51.3164 98.1883 51.476 98.5433 51.7727C99.5967 52.646 99.9733 53.4327 99.6733 54.1327C99.2133 55.1927 98.4067 55.726 97.2533 55.7327L88.3133 55.7627C86.8133 55.7627 86.0633 55.0127 86.0633 53.5127L86.0733 50.3027C86.0733 49.8227 85.83 49.5827 85.3433 49.5827L76.3233 49.6027C76.238 49.604 76.1537 49.6221 76.0753 49.656C75.997 49.6898 75.9261 49.7388 75.8666 49.8001C75.8072 49.8614 75.7604 49.9338 75.729 50.0132C75.6975 50.0925 75.682 50.1773 75.6833 50.2627L75.7433 59.0727C75.7433 59.486 75.95 59.6927 76.3633 59.6927L95.1333 59.6527C95.3881 59.6527 95.6404 59.7029 95.8757 59.8004C96.1111 59.8979 96.325 60.0408 96.5051 60.2209C96.6853 60.401 96.8282 60.6149 96.9257 60.8503C97.0232 61.0856 97.0733 61.3379 97.0733 61.5927V71.0727C97.0733 72.4527 96.3867 73.1094 95.0133 73.0427L94.4733 73.0227C93.3 72.9694 92.7167 72.356 92.7233 71.1827L92.7533 64.6127C92.7533 64.4483 92.688 64.2906 92.5717 64.1743C92.4555 64.058 92.2978 63.9927 92.1333 63.9927L76.3633 64.0027C75.8967 64.0027 75.6767 64.236 75.7033 64.7027C75.9833 69.8827 75.6833 73.7527 68.7033 72.8127C68.6355 72.8041 68.5665 72.8102 68.5012 72.8305C68.4358 72.8507 68.3756 72.8847 68.3244 72.9302C68.2733 72.9756 68.2325 73.0315 68.2047 73.094C68.1769 73.1565 68.1628 73.2243 68.1633 73.2927L68.1433 80.2827C68.1433 80.7427 68.37 80.9694 68.8233 80.9627L77.3333 80.9127C77.6164 80.9124 77.8964 80.972 78.1549 81.0874C78.4134 81.2029 78.6446 81.3717 78.8333 81.5827C79.8267 82.696 79.83 83.7594 78.8433 84.7727C78.6758 84.9464 78.4752 85.0847 78.2535 85.1792C78.0319 85.2737 77.7938 85.3225 77.5533 85.3227L65.8633 85.3727C65.317 85.3727 64.793 85.1567 64.4067 84.7723C64.0204 84.3878 63.8033 83.8664 63.8033 83.3227L63.7933 73.5827C63.7933 73.1294 63.57 72.9027 63.1233 72.9027L52.2733 72.9127C51.6667 72.9127 51.3667 73.2127 51.3733 73.8127L51.4033 76.6127C51.4042 76.729 51.4307 76.8436 51.4811 76.9486C51.5314 77.0536 51.6043 77.1465 51.6947 77.2207C51.7851 77.295 51.8909 77.3488 52.0047 77.3785C52.1184 77.4082 52.2374 77.4131 52.3533 77.3927C54.3333 77.0427 58.1433 76.7527 58.1033 79.6727C58.0633 83.1794 58.06 86.2394 58.0933 88.8527C58.1067 90.126 57.5367 91.0227 56.3833 91.5427C56.17 91.6427 55.9533 91.6594 55.7333 91.5927C54.3933 91.1794 53.71 90.2894 53.6833 88.9227C53.6433 86.8494 53.6933 84.6694 53.8333 82.3827C53.86 81.896 53.6333 81.646 53.1533 81.6327C50.9033 81.5727 47.0433 82.6027 47.0533 79.0627C47.06 77.236 47.0733 75.4927 47.0933 73.8327C47.1067 73.2127 46.8033 72.9027 46.1833 72.9027L38.5733 72.9127C37.84 72.9127 37.4733 73.2794 37.4733 74.0127V88.0327C37.4733 89.4794 36.75 90.1494 35.3033 90.0427L34.8733 90.0127C33.6733 89.9327 33.0733 89.2894 33.0733 88.0827L33.0633 73.5327C33.0633 72.966 32.7833 72.7294 32.2233 72.8227C29.1033 73.3627 26.1433 71.9327 26.1533 68.4527C26.16 66.6127 26.1967 64.896 26.2633 63.3027C26.29 62.776 26.0367 62.516 25.5033 62.5227L19.8633 62.5427C19.7412 62.5427 19.6203 62.5667 19.5074 62.6135C19.3946 62.6602 19.2921 62.7287 19.2057 62.8151C19.1194 62.9014 19.0509 63.004 19.0041 63.1168C18.9574 63.2296 18.9333 63.3506 18.9333 63.4727L18.9533 68.5927C18.9533 68.8514 18.9026 69.1076 18.8041 69.3466C18.7056 69.5856 18.5613 69.8028 18.3793 69.9857C18.1973 70.1686 17.9812 70.3137 17.7434 70.4127C17.5056 70.5117 17.2507 70.5627 16.9933 70.5627L5.72334 70.6127C4.29001 70.6194 3.49001 69.9094 3.32334 68.4827C3.25001 67.8627 3.57667 67.246 4.30334 66.6327C4.60088 66.3807 4.97651 66.2425 5.36334 66.2427L14.0733 66.2527C14.2033 66.2527 14.3279 66.2011 14.4198 66.1092C14.5117 66.0173 14.5633 65.8926 14.5633 65.7627L14.5533 60.2427C14.552 59.9735 14.6037 59.7066 14.7056 59.4574C14.8074 59.2082 14.9573 58.9815 15.1467 58.7902C15.3361 58.5989 15.5614 58.4468 15.8096 58.3426C16.0578 58.2383 16.3241 58.184 16.5933 58.1827L25.5533 58.1627C25.9733 58.1627 26.1867 57.9527 26.1933 57.5327L26.2333 50.2827C26.24 49.836 26.02 49.6127 25.5733 49.6127H7.26334C6.09001 49.6127 5.33334 49.0527 4.99334 47.9327C4.94001 47.7527 4.92334 47.5727 4.94334 47.3927C5.08334 45.9794 5.86334 45.2727 7.28334 45.2727H25.7833C25.9053 45.2727 26.0223 45.2232 26.1086 45.135C26.1949 45.0469 26.2433 44.9273 26.2433 44.8027L26.1533 36.5527C26.1533 36.286 26.0167 36.1527 25.7433 36.1527ZM71.2883 28.0071C71.2882 27.9519 71.2773 27.8973 71.2561 27.8464C71.2349 27.7955 71.2039 27.7492 71.1648 27.7103C71.1258 27.6714 71.0794 27.6405 71.0284 27.6195C70.9774 27.5985 70.9228 27.5877 70.8676 27.5878L30.8876 27.6576C30.8325 27.6577 30.7779 27.6687 30.727 27.6899C30.6761 27.7111 30.6298 27.7421 30.5909 27.7812C30.552 27.8202 30.5211 27.8666 30.5001 27.9176C30.4791 27.9686 30.4683 28.0232 30.4684 28.0784L30.5383 68.1583C30.5384 68.2134 30.5494 68.268 30.5706 68.319C30.5918 68.3699 30.6228 68.4161 30.6618 68.4551C30.7009 68.494 30.7473 68.5249 30.7983 68.5459C30.8493 68.5669 30.9039 68.5777 30.959 68.5776L70.939 68.5078C70.9942 68.5077 71.0488 68.4967 71.0997 68.4755C71.1506 68.4543 71.1969 68.4233 71.2358 68.3842C71.2747 68.3451 71.3056 68.2988 71.3266 68.2478C71.3476 68.1968 71.3583 68.1421 71.3582 68.087L71.2883 28.0071Z" fill="white"/>
<path d="M62.4652 35.5128L39.4252 35.4726C38.8177 35.4716 38.3243 35.9632 38.3233 36.5707L38.283 59.6307C38.282 60.2382 38.7736 60.7315 39.3811 60.7326L62.4211 60.7728C63.0286 60.7739 63.5219 60.2822 63.523 59.6747L63.5632 36.6148C63.5643 36.0072 63.0727 35.5139 62.4652 35.5128Z" fill="white"/>
</svg>
