<svg width="88" height="101" viewBox="0 0 88 101" fill="none" xmlns="http://www.w3.org/2000/svg">
<path d="M61.6496 64.4967C59.9363 64.3433 58.8863 63.6767 58.4996 62.4967C58.4337 62.2999 58.312 62.1265 58.1494 61.9976C57.9867 61.8687 57.79 61.7899 57.5833 61.7709C57.3767 61.7518 57.1689 61.7932 56.9854 61.8901C56.8018 61.987 56.6504 62.1353 56.5496 62.3167L55.6896 63.8767C55.5096 64.19 55.2396 64.3367 54.8796 64.3167C52.9263 64.2167 51.5796 63.3833 50.8396 61.8167C51.993 60.7233 52.0763 59.8933 51.0896 59.3267C50.7963 59.16 50.4963 59.1433 50.1896 59.2767C49.6896 59.49 49.1696 59.6033 48.6296 59.6167C48.2696 59.6233 47.9796 59.4833 47.7596 59.1967L46.4896 57.5067C46.3896 56.0267 47.0596 54.9 48.4996 54.1267C49.073 53.8133 49.1696 53.3933 48.7896 52.8667C48.323 52.2267 47.673 51.7433 46.8396 51.4167C46.3263 51.2167 45.873 51.3067 45.4796 51.6867L42.8796 54.1567C42.7258 54.306 42.52 54.3903 42.3043 54.3921C42.0887 54.394 41.8795 54.3133 41.7196 54.1667L40.0696 52.6567C39.813 52.421 39.4956 52.2621 39.1531 52.198C38.8107 52.134 38.4569 52.1672 38.1315 52.294C37.8061 52.4209 37.5221 52.6362 37.3116 52.9158C37.101 53.1955 36.9722 53.5282 36.9396 53.8767L36.7196 56.3167C36.7026 56.5089 36.6148 56.6883 36.473 56.8209C36.3311 56.9536 36.145 57.0303 35.9496 57.0367L31.1496 57.1567C30.5496 57.17 30.233 56.88 30.1996 56.2867L30.0596 53.7167C30.0405 53.3746 29.8988 53.0485 29.6596 52.7967C29.2063 52.3367 28.6396 52.12 27.9596 52.1467C27.7669 52.153 27.5772 52.1987 27.4018 52.2812C27.2265 52.3638 27.0692 52.4813 26.9396 52.6267C26.3796 53.2667 25.733 53.7933 24.9996 54.2067C24.6063 54.4267 24.2463 54.38 23.9196 54.0667L20.8496 51.0767C20.5918 50.826 20.4405 50.486 20.4275 50.128C20.4144 49.77 20.5406 49.4218 20.7796 49.1567L22.1996 47.5767C22.4404 47.3062 22.5918 46.9681 22.6333 46.6084C22.6748 46.2487 22.6044 45.885 22.4316 45.5668C22.2589 45.2486 21.9922 44.9914 21.6679 44.8303C21.3436 44.6692 20.9776 44.6121 20.6196 44.6667C19.2996 44.8667 18.2563 44.42 17.4896 43.3267C17.6963 42.32 17.6463 41.1133 17.3396 39.7067C17.2912 39.4918 17.2904 39.2688 17.3373 39.0536C17.3842 38.8383 17.4776 38.6359 17.611 38.4606C17.7444 38.2852 17.9146 38.1412 18.1096 38.0386C18.3045 37.936 18.5196 37.8773 18.7396 37.8667C20.3896 37.7767 22.1896 38.2067 22.6096 35.9967C22.6696 35.67 22.583 35.3867 22.3496 35.1467L20.3996 33.1367C20.2237 32.954 20.1253 32.7103 20.1253 32.4567C20.1253 32.2031 20.2237 31.9593 20.3996 31.7767L23.6696 28.3767C23.7948 28.248 23.9452 28.1466 24.1114 28.079C24.2777 28.0113 24.4562 27.9788 24.6356 27.9835C24.815 27.9882 24.9915 28.03 25.154 28.1063C25.3165 28.1825 25.4614 28.2916 25.5796 28.4267L26.7896 29.8067C27.0338 30.0836 27.3692 30.2585 27.7296 30.2967C28.323 30.3633 28.8796 30.23 29.3996 29.8967C29.5256 29.8147 29.6326 29.7081 29.7136 29.584C29.7946 29.4599 29.8478 29.3211 29.8696 29.1767L30.3796 25.7467C32.7396 25.0667 34.883 25.1667 36.8096 26.0467C36.543 27.5667 36.803 28.8233 37.5896 29.8167C37.7204 29.9808 37.8834 30.1163 38.0686 30.2147C38.2538 30.313 38.4571 30.372 38.6656 30.3879C38.8742 30.4039 39.0835 30.3765 39.2804 30.3074C39.4773 30.2384 39.6575 30.1292 39.8096 29.9867L41.4196 28.4867C41.9463 28 42.4896 27.9767 43.0496 28.4167C44.4963 29.55 45.623 30.6433 46.4296 31.6967C46.8896 32.3033 46.813 32.8333 46.1996 33.2867C44.6196 34.44 44.143 35.7167 44.7696 37.1167C44.863 37.3233 45.013 37.4667 45.2196 37.5467C45.9996 37.8467 46.8263 37.9467 47.6996 37.8467C47.9332 37.8181 48.1703 37.8427 48.393 37.9188C48.6158 37.9948 48.8184 38.1202 48.9858 38.2857C49.1532 38.4511 49.2809 38.6523 49.3595 38.8742C49.4381 39.096 49.4655 39.3328 49.4396 39.5667C49.333 40.56 49.3796 41.2767 49.5796 41.7167L48.9396 43.7467C48.7263 44.4333 48.2663 44.72 47.5596 44.6067C45.953 44.3467 44.9263 44.8367 44.4796 46.0767C44.3689 46.3918 44.3496 46.7317 44.4239 47.0573C44.4983 47.3829 44.6632 47.6808 44.8996 47.9167L45.7196 48.7567C46.3863 49.4234 46.8863 49.3167 47.2196 48.4367C47.6396 47.31 48.3696 46.96 49.4096 47.3867C49.9822 47.6143 50.6119 47.6563 51.2096 47.5067C51.583 47.4067 51.7863 47.1767 51.8196 46.8167C51.8896 46.0667 51.4496 45.3367 51.2196 44.6167C51.093 44.2167 51.1996 43.8933 51.5396 43.6467C52.4063 43.04 53.3463 42.6033 54.3596 42.3367C54.5387 42.2896 54.728 42.2989 54.9015 42.3634C55.0751 42.4278 55.2246 42.5442 55.3296 42.6967L56.5396 44.3767C56.6569 44.5398 56.8159 44.6683 57 44.7489C57.184 44.8294 57.3863 44.8589 57.5857 44.8344C57.7851 44.8098 57.9742 44.7321 58.1333 44.6094C58.2923 44.4866 58.4154 44.3234 58.4896 44.1367C58.9363 43.0167 59.7663 42.4367 60.9796 42.3967C61.433 42.3834 61.6596 42.1467 61.6596 41.6867C61.6463 40.62 61.6396 39.54 61.6396 38.4467C61.6396 36.8767 60.0896 35.7667 58.6196 36.1267C58.2996 36.2067 58.0263 36.37 57.7996 36.6167C56.8263 37.69 55.8263 38.51 54.7996 39.0767C52.6396 37.6767 50.853 36.0867 49.4396 34.3067C49.2987 34.1282 49.1966 33.9222 49.14 33.7021C49.0835 33.482 49.0738 33.2527 49.1115 33.0292C49.1493 32.8056 49.2336 32.5928 49.359 32.4046C49.4845 32.2163 49.6482 32.0569 49.8396 31.9367C50.6463 31.43 51.3496 30.6567 51.9496 29.6167C52.283 28.5033 51.903 27.5033 50.8096 26.6167C50.5363 26.3967 50.2263 26.3033 49.8796 26.3367C48.693 26.4367 47.5663 26.3067 46.4996 25.9467C46.3454 25.8946 46.2064 25.8063 46.0948 25.6895C45.9833 25.5727 45.9025 25.431 45.8596 25.2767L45.3096 23.3567C45.6496 22.2367 45.673 20.9067 45.3796 19.3667C45.3354 19.1245 45.3453 18.8756 45.4085 18.6376C45.4717 18.3997 45.5868 18.1787 45.7454 17.9905C45.904 17.8022 46.1023 17.6514 46.326 17.5487C46.5498 17.4461 46.7935 17.3941 47.0396 17.3967C48.1263 17.41 49.1463 17.3333 50.0996 17.1667C50.5275 17.0906 50.9262 16.8983 51.2521 16.6109C51.5781 16.3235 51.8187 15.952 51.9478 15.537C52.0768 15.122 52.0892 14.6796 51.9838 14.258C51.8783 13.8364 51.6589 13.452 51.3496 13.1467L49.7196 11.5367C48.8196 10.6567 48.8163 9.77335 49.7096 8.88668L53.6096 4.99668C54.343 4.26335 55.0863 4.25335 55.8396 4.96668L58.2996 7.30668C58.6263 7.62001 58.9996 7.68335 59.4196 7.49668L61.2596 6.69668C61.653 6.52334 61.8496 6.22001 61.8496 5.78668L61.8796 2.35668C61.8863 1.35001 62.393 0.84668 63.3996 0.84668L69.1396 0.85668C69.5986 0.856612 70.0392 1.03686 70.3666 1.35859C70.6939 1.68032 70.8818 2.11777 70.8896 2.57668L70.9196 5.18668C70.9257 5.65694 71.0716 6.11476 71.3387 6.50186C71.6058 6.88896 71.982 7.18785 72.4195 7.36048C72.857 7.53311 73.3359 7.57168 73.7954 7.47128C74.2548 7.37088 74.674 7.13605 74.9996 6.79668L76.1496 5.59668C77.323 4.37668 78.5096 4.36335 79.7096 5.55668L82.9696 8.80668C83.843 9.67335 83.8596 10.56 83.0196 11.4667L81.2296 13.3767C80.9573 13.6661 80.7674 14.0229 80.6792 14.4103C80.5911 14.7978 80.6079 15.2021 80.728 15.5817C80.8481 15.9613 81.0671 16.3026 81.3626 16.5705C81.6581 16.8385 82.0195 17.0236 82.4096 17.1067C83.343 17.3 84.3296 17.3467 85.3696 17.2467C86.5763 17.1333 87.1896 17.68 87.2096 18.8867L87.3096 24.4667C87.3363 25.6533 86.753 26.2433 85.5596 26.2367L82.6196 26.2167C82.3912 26.2167 82.1673 26.2803 81.9731 26.4004C81.7788 26.5205 81.6218 26.6924 81.5196 26.8967L80.6096 28.7467C80.4163 29.1467 80.4763 29.5033 80.7896 29.8167L83.1696 32.2567C83.903 33.0033 83.903 33.7467 83.1696 34.4867L79.2496 38.4167C78.383 39.29 77.5063 39.2933 76.6196 38.4267L74.5796 36.4267C74.2996 36.1467 73.9663 36.0367 73.5796 36.0967C72.813 36.21 72.0763 36.5 71.3696 36.9667C71.083 37.1667 70.933 37.44 70.9196 37.7867L70.8196 41.3867C70.7996 42.0333 70.4663 42.4 69.8196 42.4867C67.093 42.86 64.5896 42.7267 62.3096 42.0867C62.003 42 61.9063 42.1067 62.0196 42.4067C62.053 42.4867 62.0863 42.5667 62.1196 42.6467C62.133 42.68 62.1563 42.7034 62.1896 42.7167C63.6763 43.4167 64.013 44.4833 63.1996 45.9167C63.053 46.1767 63.033 46.45 63.1396 46.7367C63.4463 47.5167 64.0163 47.7733 64.8496 47.5067C65.3896 47.3334 65.923 47.1767 66.4496 47.0367C66.6394 46.9896 66.8394 47.011 67.0136 47.0972C67.1878 47.1834 67.3247 47.3286 67.3996 47.5067L68.5796 50.2967C68.793 50.7967 68.6596 51.1733 68.1796 51.4267L66.4696 52.3167C66.3405 52.3863 66.2275 52.4809 66.138 52.5946C66.0484 52.7082 65.9843 52.8383 65.9496 52.9767C65.7896 53.6033 66.0263 54.0567 66.6596 54.3367C67.1596 54.5567 67.643 54.8 68.1096 55.0667C68.6096 55.36 68.7496 55.7767 68.5296 56.3167L67.5296 58.7867C67.2896 59.3867 66.8563 59.61 66.2296 59.4567L64.5796 59.0567C64.3619 59.0063 64.1344 59.0167 63.9221 59.0868C63.7099 59.1569 63.5213 59.284 63.3773 59.4539C63.2333 59.6238 63.1396 59.8298 63.1064 60.0492C63.0733 60.2686 63.1021 60.4927 63.1896 60.6967L63.7096 61.8867C63.7715 62.0325 63.7865 62.1942 63.7525 62.3499C63.7185 62.5056 63.6372 62.6476 63.5196 62.7567L61.6496 64.4967ZM75.8196 21.7867C75.8196 19.283 74.8251 16.8819 73.0547 15.1116C71.2844 13.3412 68.8833 12.3467 66.3796 12.3467C63.876 12.3467 61.4749 13.3412 59.7045 15.1116C57.9342 16.8819 56.9396 19.283 56.9396 21.7867C56.9396 23.0264 57.1838 24.2539 57.6582 25.3992C58.1326 26.5445 58.828 27.5852 59.7045 28.4618C60.5811 29.3384 61.6218 30.0337 62.7671 30.5081C63.9124 30.9825 65.14 31.2267 66.3796 31.2267C67.6193 31.2267 68.8469 30.9825 69.9922 30.5081C71.1375 30.0337 72.1781 29.3384 73.0547 28.4618C73.9313 27.5852 74.6267 26.5445 75.1011 25.3992C75.5755 24.2539 75.8196 23.0264 75.8196 21.7867ZM27.3596 44.4867C27.1396 44.94 27.303 45.4167 27.8496 45.9167C31.8563 49.57 35.7563 49.4233 39.5496 45.4767C40.0096 44.9967 40.1263 44.53 39.8996 44.0767C40.173 43.8567 40.3496 43.53 40.4296 43.0967C41.7996 35.9067 33.9696 31.0467 28.5396 36.1867C26.6663 37.9533 25.993 40.3367 26.5196 43.3367C26.6396 44.01 26.9196 44.3933 27.3596 44.4867ZM52.6396 55.4967C53.813 57.4033 55.163 58.2567 56.6896 58.0567C58.863 58.87 60.6396 57.9733 62.0196 55.3667C62.7596 54.6933 62.7263 53.2733 61.9196 51.1067C61.5596 50.1467 60.903 49.65 59.9496 49.6167C60.3763 49.01 59.963 48.56 58.7096 48.2667C58.1696 48.14 57.613 48.1267 57.0396 48.2267C53.2663 48.86 51.7996 51.2833 52.6396 55.4967Z" fill="#F67B4B"/>
<path d="M45.3096 23.3567L45.8595 25.2767C45.9024 25.431 45.9832 25.5727 46.0947 25.6895C46.2063 25.8063 46.3453 25.8946 46.4995 25.9467C47.5662 26.3067 48.6929 26.4367 49.8796 26.3367C50.2262 26.3034 50.5362 26.3967 50.8096 26.6167C51.9029 27.5034 52.2829 28.5034 51.9496 29.6167C47.0029 27.6101 41.9562 26.4201 36.8096 26.0467C34.8829 25.1667 32.7396 25.0667 30.3796 25.7467C23.0696 25.7967 9.84955 27.4767 5.00955 33.7267C1.37955 38.4067 15.0796 42.5067 17.4896 43.3267C18.2562 44.4201 19.2995 44.8667 20.6195 44.6667C20.9775 44.6121 21.3436 44.6693 21.6678 44.8304C21.9921 44.9914 22.2588 45.2486 22.4316 45.5668C22.6043 45.885 22.6748 46.2488 22.6332 46.6084C22.5917 46.9681 22.4403 47.3063 22.1996 47.5767L20.7795 49.1567C20.5406 49.4219 20.4143 49.77 20.4274 50.128C20.4404 50.4861 20.5918 50.8261 20.8495 51.0767L23.9195 54.0667C24.2462 54.3801 24.6062 54.4267 24.9995 54.2067C25.7329 53.7934 26.3795 53.2667 26.9395 52.6267C27.0691 52.4813 27.2264 52.3638 27.4017 52.2813C27.5771 52.1988 27.7668 52.153 27.9595 52.1467C28.6395 52.1201 29.2062 52.3367 29.6595 52.7967C29.8987 53.0485 30.0404 53.3746 30.0596 53.7167L30.1996 56.2867C30.2329 56.8801 30.5496 57.1701 31.1496 57.1567L35.9496 57.0367C36.1449 57.0304 36.331 56.9536 36.4729 56.821C36.6147 56.6883 36.7025 56.509 36.7196 56.3167L36.9395 53.8767C36.9721 53.5283 37.1009 53.1955 37.3115 52.9159C37.5221 52.6363 37.806 52.4209 38.1314 52.2941C38.4568 52.1673 38.8106 52.134 39.153 52.1981C39.4955 52.2622 39.8129 52.421 40.0695 52.6567L41.7196 54.1667C41.8794 54.3134 42.0886 54.394 42.3043 54.3922C42.5199 54.3903 42.7257 54.3061 42.8796 54.1567L45.4795 51.6867C45.8729 51.3067 46.3262 51.2167 46.8396 51.4167C47.6729 51.7434 48.3229 52.2267 48.7895 52.8667C49.1695 53.3934 49.0729 53.8134 48.4995 54.1267C47.0595 54.9001 46.3896 56.0267 46.4896 57.5067C36.8629 59.7867 27.3362 59.9634 17.9095 58.0367C13.4495 57.1234 9.63955 55.7434 6.47955 53.8967C5.43288 53.2834 4.79288 53.5767 4.55955 54.7767C4.40622 55.5834 4.56288 56.4501 5.02955 57.3767C5.26604 57.8564 5.61196 58.2743 6.03955 58.5967C9.15288 60.9434 12.8595 62.5967 17.1595 63.5567C28.7929 66.1501 40.0196 65.5701 50.8396 61.8167C51.5796 63.3834 52.9262 64.2167 54.8796 64.3167C55.2396 64.3367 55.5095 64.1901 55.6895 63.8767L56.5495 62.3167C56.6503 62.1353 56.8017 61.9871 56.9853 61.8902C57.1688 61.7933 57.3766 61.7518 57.5832 61.7709C57.7899 61.79 57.9866 61.8688 58.1493 61.9976C58.312 62.1265 58.4337 62.2999 58.4995 62.4967C58.8862 63.6767 59.9362 64.3434 61.6495 64.4967C61.9762 66.8834 61.4496 69.0201 60.0696 70.9067C59.9738 71.0366 59.9221 71.1934 59.9221 71.3537C59.9221 71.514 59.9738 71.6694 60.0696 71.7967C61.1896 73.3101 61.7395 74.8667 61.7195 76.4667C61.6662 79.7401 61.6729 82.9867 61.7396 86.2067C61.9196 93.9467 51.2896 97.4867 45.2096 98.8067C35.4829 100.933 25.7395 100.86 15.9795 98.5867C9.44955 97.0667 0.409549 93.5667 0.399549 85.9167C0.392882 82.4767 0.416215 79.2167 0.469548 76.1367C0.502882 74.5434 1.04622 73.1034 2.09955 71.8167C2.2101 71.6816 2.27059 71.5128 2.27059 71.3394C2.27059 71.166 2.2101 70.9988 2.09955 70.8667C1.05288 69.5734 0.509548 68.1034 0.469548 66.4567C0.382882 62.8701 0.382882 59.3201 0.469548 55.8067C0.509548 54.0934 1.06955 52.5434 2.14955 51.1567C2.40955 50.8167 2.39288 50.4867 2.09955 50.1667C1.04622 49.0201 0.502882 47.6601 0.469548 46.0867C0.382882 42.3801 0.376216 38.8134 0.44955 35.3867C0.55955 29.6567 7.51955 26.0567 12.4095 24.5867C23.1362 21.3534 34.1029 20.9434 45.3096 23.3567ZM45.5395 78.2467C31.8095 81.0667 17.6095 80.3767 5.97955 74.1667C5.56622 73.9401 5.24622 74.0334 5.01955 74.4467C2.85955 78.3967 9.29955 81.5267 12.0695 82.4767C23.4762 86.3967 35.2496 86.7034 47.3896 83.3967C50.2429 82.6234 53.0795 81.2534 55.8995 79.2867C56.4398 78.9082 56.8845 78.4085 57.1987 77.8271C57.5128 77.2456 57.6877 76.5985 57.7096 75.9367C57.7162 75.8234 57.7129 75.7134 57.6996 75.6067C57.5462 74.1401 56.8262 73.7634 55.5395 74.4767C52.2329 76.3034 48.8995 77.5601 45.5395 78.2467Z" fill="white"/>
<path d="M49.5795 41.7167L54.7995 39.0767C55.8261 38.51 56.8261 37.69 57.7995 36.6167C58.0261 36.37 58.2995 36.2067 58.6195 36.1267C60.0895 35.7667 61.6395 36.8767 61.6395 38.4467C61.6395 39.54 61.6461 40.62 61.6595 41.6867C61.6595 42.1467 61.4328 42.3834 60.9795 42.3967C59.7661 42.4367 58.9361 43.0167 58.4895 44.1367C58.4152 44.3234 58.2922 44.4866 58.1331 44.6094C57.9741 44.7321 57.785 44.8099 57.5856 44.8344C57.3862 44.8589 57.1839 44.8294 56.9998 44.7489C56.8158 44.6683 56.6568 44.5398 56.5395 44.3767L55.3295 42.6967C55.2245 42.5442 55.075 42.4278 54.9014 42.3634C54.7278 42.299 54.5386 42.2896 54.3595 42.3367C53.3461 42.6034 52.4061 43.04 51.5395 43.6467C51.1995 43.8934 51.0928 44.2167 51.2195 44.6167C51.4495 45.3367 51.8895 46.0667 51.8195 46.8167C51.7862 47.1767 51.5828 47.4067 51.2095 47.5067C50.6117 47.6563 49.9821 47.6143 49.4095 47.3867C48.3695 46.96 47.6395 47.31 47.2195 48.4367C46.8861 49.3167 46.3861 49.4234 45.7195 48.7567L44.8995 47.9167C44.663 47.6809 44.4981 47.3829 44.4238 47.0573C44.3495 46.7318 44.3688 46.3918 44.4795 46.0767C44.9261 44.8367 45.9528 44.3467 47.5595 44.6067C48.2661 44.72 48.7261 44.4334 48.9395 43.7467L49.5795 41.7167Z" fill="white"/>
<path d="M39.8993 44.0767C40.126 44.53 40.0093 44.9967 39.5493 45.4767C35.756 49.4233 31.856 49.57 27.8493 45.9167C27.3027 45.4167 27.1393 44.94 27.3593 44.4867L39.8993 44.0767Z" fill="white"/>
</svg>
