<svg width="99" height="75" viewBox="0 0 99 75" fill="none" xmlns="http://www.w3.org/2000/svg">
<path d="M24.7035 26.7563L24.7011 18.2385C24.7011 18.1529 24.7447 18.1148 24.8319 18.1242C27.1265 18.3646 29.2343 18.5327 31.5406 18.3132C31.6588 18.3008 31.6837 18.2463 31.6153 18.1498L29.5238 15.2203C29.4912 15.1748 29.4486 15.1377 29.3994 15.1121C29.3503 15.0865 29.2961 15.0732 29.2413 15.0733C25.0801 15.0701 21.0247 15.0733 17.0751 15.0826C16.4051 15.0849 15.8846 14.6087 15.8893 13.9341C15.8986 12.6301 15.9017 11.3641 15.8986 10.1363C15.897 10.0569 15.8589 10.0032 15.7842 9.9752C14.256 9.40875 13.2305 8.4198 12.7076 7.00834C11.4541 3.62364 14.2996 -0.0715192 17.9411 0.505047C19.9454 0.822508 21.2698 1.93829 21.914 3.8524C22.8267 6.56016 21.1274 9.39864 18.3589 10.0662C18.2687 10.088 18.2235 10.1448 18.2235 10.2366L18.2212 12.5873C18.2212 12.63 18.2384 12.6709 18.2691 12.7011C18.2997 12.7314 18.3413 12.7483 18.3846 12.7483C22.1848 12.7468 26.0519 12.7468 29.9859 12.7483C30.5135 12.7483 30.9407 13.0728 31.2254 13.5046C32.1809 14.9425 33.1683 16.3742 34.1876 17.7997C34.2359 17.8682 34.3005 17.8938 34.3814 17.8767C40.112 16.6862 45.7003 13.4836 49.4211 8.83374C49.4332 8.81897 49.4483 8.80696 49.4654 8.79856C49.4825 8.79016 49.5012 8.78558 49.5201 8.78513C49.539 8.78469 49.5577 8.78839 49.5749 8.79598C49.5921 8.80357 49.6073 8.81487 49.6195 8.82907C51.4916 11.0163 53.4781 12.7623 56.0761 14.2586C58.703 15.7697 61.592 16.8792 64.7433 17.5873C64.7993 17.6013 64.8437 17.5842 64.8764 17.5359L67.8946 13.2455C68.0019 13.092 68.1446 12.9666 68.3104 12.8801C68.4762 12.7935 68.6602 12.7483 68.847 12.7483H80.6024C80.629 12.7483 80.6545 12.7375 80.6734 12.7182C80.6922 12.699 80.7028 12.6729 80.7028 12.6456L80.7074 10.1853C80.7073 10.1589 80.6982 10.1335 80.6815 10.1134C80.6649 10.0934 80.6418 10.08 80.6164 10.0756C79.636 9.89506 78.7995 9.43598 78.107 8.69835C76.1019 6.56016 76.3167 3.23382 78.6836 1.43642C80.7051 -0.0995301 83.6066 0.185252 85.2896 2.14137C87.6332 4.86781 86.375 8.78706 83.1234 9.97053C83.087 9.98443 83.0555 10.0087 83.0331 10.0403C83.0106 10.0719 82.9982 10.1094 82.9973 10.1479C82.9818 11.3758 82.9779 12.6145 82.9857 13.8641C82.9903 14.5084 82.5678 15.0569 81.8932 15.0569C77.8565 15.0585 73.7832 15.0616 69.6733 15.0663C69.6019 15.0663 69.5315 15.0835 69.4682 15.1164C69.4048 15.1493 69.3503 15.197 69.3092 15.2553L67.381 18.0074C67.373 18.0195 67.3682 18.0334 67.367 18.0478C67.3657 18.0622 67.3681 18.0767 67.3739 18.0899C67.3797 18.1031 67.3888 18.1147 67.4002 18.1236C67.4116 18.1324 67.4251 18.1382 67.4394 18.1405C69.6616 18.5062 71.8893 18.668 74.1224 18.626C74.1392 18.6257 74.1558 18.6288 74.1714 18.6351C74.1869 18.6414 74.2011 18.6508 74.2131 18.6628C74.225 18.6747 74.2345 18.689 74.241 18.7047C74.2475 18.7205 74.2508 18.7374 74.2508 18.7544L74.2485 26.8007C74.2485 26.8304 74.2603 26.8589 74.2813 26.8799C74.3023 26.9009 74.3308 26.9127 74.3605 26.9127L89.1295 26.9174C89.1677 26.9172 89.2046 26.9048 89.2346 26.882C89.2646 26.8592 89.2859 26.8273 89.2952 26.7913C89.8228 24.7325 91.8559 23.1569 93.9941 23.1942C98.2495 23.2712 100.472 28.2829 97.5072 31.4295C96.4078 32.5967 94.7714 33.1616 93.2191 32.8884C91.2412 32.5399 89.9224 31.3657 89.2625 29.366C89.2345 29.2773 89.1738 29.233 89.0805 29.233L74.3232 29.2283C74.3034 29.2283 74.2844 29.2362 74.2704 29.2502C74.2563 29.2642 74.2485 29.2832 74.2485 29.303C74.2563 34.7325 74.2547 39.7932 74.2438 44.4851C74.2423 44.9131 74.1963 45.3581 74.1061 45.8203C74.1023 45.8396 74.1029 45.8594 74.1078 45.8785C74.1128 45.8975 74.1219 45.9152 74.1346 45.9304C74.1474 45.9456 74.1633 45.9578 74.1814 45.9662C74.1995 45.9746 74.2192 45.979 74.2391 45.9791L81.1019 45.9651C81.2077 45.9635 81.2723 45.9114 81.2957 45.8087C81.7719 43.7732 83.1374 42.2979 85.1542 41.8894C89.2929 41.0514 92.5189 45.5612 90.2616 49.1887C88.0814 52.6924 83.1584 52.1719 81.5454 48.4207C81.528 48.3798 81.4988 48.345 81.4614 48.3205C81.4241 48.296 81.3802 48.2829 81.3353 48.283L73.798 48.2853C73.7108 48.2853 73.6563 48.3273 73.6346 48.4114C72.8658 51.3588 71.5602 54.0611 69.7177 56.5183C69.7088 56.5303 69.7034 56.5446 69.7021 56.5594C69.7007 56.5743 69.7035 56.5892 69.7101 56.6023C69.7167 56.6155 69.7268 56.6264 69.7393 56.6339C69.7518 56.6413 69.7661 56.645 69.7807 56.6444C73.5544 56.6272 77.476 56.6234 81.5454 56.6327C82.9273 56.6374 82.7756 57.8839 82.7733 59.023C82.7686 61.1456 82.7655 63.1344 82.7639 64.9894C82.7639 65.0703 82.802 65.1232 82.8783 65.1481C84.6664 65.7255 85.8039 66.8654 86.291 68.5678C86.6085 69.6805 86.5416 70.7434 86.0903 71.7565C83.7747 76.9549 76.1159 74.8284 76.7882 69.1841C77.0169 67.2536 78.4548 65.6967 80.3223 65.1715C80.3641 65.1593 80.4008 65.1341 80.4269 65.0996C80.453 65.065 80.4671 65.0231 80.467 64.9801L80.4623 59.128C80.4623 59.0269 80.4117 58.9763 80.3106 58.9763L67.8876 58.967C67.827 58.967 67.7672 58.979 67.7119 59.0023C67.6565 59.0255 67.6067 59.0596 67.5655 59.1024C62.7265 64.1024 56.3446 67.7392 49.7059 69.9147C49.6197 69.9435 49.5261 69.9427 49.4398 69.9124C42.8688 67.6598 36.3679 64.0837 31.5336 59.0673C31.5034 59.0356 31.4669 59.0103 31.4264 58.9931C31.3858 58.9758 31.3421 58.9669 31.2978 58.967H18.583C18.5036 58.967 18.464 59.0059 18.464 59.0837L18.4616 65.0244C18.4616 65.11 18.5021 65.1621 18.583 65.1808C19.3829 65.3722 20.1252 65.8196 20.8099 66.523C21.6969 67.4318 22.1467 68.4932 22.1591 69.707C22.2011 73.6823 17.7987 76.1823 14.4887 73.8526C12.4019 72.3867 11.8019 69.6323 13.0625 67.4171C13.6927 66.3075 14.6731 65.552 16.0036 65.1505C16.0783 65.1287 16.1157 65.0789 16.1157 65.0011C16.1235 62.9189 16.1281 60.8406 16.1297 58.7662C16.1297 57.6178 16.055 56.6327 17.4275 56.628C21.1733 56.6156 25.126 56.6249 29.2857 56.656C29.3028 56.6562 29.3196 56.6514 29.3341 56.6424C29.3487 56.6335 29.3604 56.6206 29.368 56.6052C29.3755 56.5899 29.3786 56.5727 29.3768 56.5557C29.3751 56.5386 29.3686 56.5225 29.358 56.509C27.4657 54.072 26.1056 51.3611 25.2777 48.3764C25.2711 48.3529 25.2571 48.3323 25.2377 48.3175C25.2183 48.3028 25.1947 48.2948 25.1703 48.2947L17.5233 48.2807C17.4345 48.2791 17.3731 48.3188 17.3388 48.3997C16.2581 50.9277 13.6017 52.1976 11.041 51.2172C8.94246 50.4118 7.56523 48.1733 7.96206 45.9394C8.31064 43.9879 9.42176 42.687 11.2954 42.0365C12.857 41.4949 14.6871 41.8801 15.9499 42.9632C16.7903 43.6837 17.3381 44.6462 17.5933 45.8507C17.6104 45.9332 17.661 45.9744 17.745 45.9744L24.6638 45.9557C24.6771 45.9554 24.6902 45.9525 24.7023 45.947C24.7144 45.9415 24.7252 45.9336 24.7342 45.9237C24.7431 45.9139 24.75 45.9024 24.7544 45.8898C24.7587 45.8773 24.7605 45.8639 24.7595 45.8507C24.705 45.1442 24.6794 44.4486 24.6825 43.7638C24.7011 38.9599 24.705 34.1521 24.6941 29.3404C24.6941 29.3119 24.6828 29.2846 24.6627 29.2644C24.6426 29.2443 24.6152 29.233 24.5868 29.233L9.76645 29.2306C9.68086 29.2306 9.6264 29.2719 9.60305 29.3544C8.5713 33.0939 3.84673 34.205 1.25102 31.3011C0.0301912 29.9356 -0.310613 27.9678 0.37333 26.2895C1.33972 23.9202 3.95177 22.62 6.39343 23.4393C7.98851 23.9762 9.06773 25.1005 9.63107 26.8123C9.64138 26.8436 9.66115 26.8708 9.68756 26.8901C9.71396 26.9094 9.74566 26.9198 9.77812 26.9197L24.5331 26.9244C24.6467 26.9244 24.7035 26.8684 24.7035 26.7563ZM84.0795 4.63933C83.9922 4.31807 83.8418 4.01734 83.6369 3.7543C83.4319 3.49127 83.1765 3.27108 82.8851 3.10632C82.5937 2.94155 82.2721 2.83544 81.9386 2.79403C81.6051 2.75262 81.2663 2.77673 80.9415 2.86498C80.2855 3.0432 79.7264 3.47187 79.3872 4.05667C79.048 4.64147 78.9565 5.3345 79.1327 5.98331C79.22 6.30457 79.3704 6.6053 79.5754 6.86834C79.7803 7.13137 80.0358 7.35156 80.3272 7.51632C80.6186 7.68109 80.9402 7.7872 81.2737 7.82861C81.6071 7.87002 81.946 7.84591 82.2708 7.75766C82.9268 7.57944 83.4858 7.15077 83.825 6.56597C84.1642 5.98117 84.2558 5.28814 84.0795 4.63933ZM19.8248 5.32066C19.8248 4.64585 19.5568 3.99868 19.0796 3.52152C18.6025 3.04436 17.9553 2.7763 17.2805 2.7763C16.6057 2.7763 15.9585 3.04436 15.4814 3.52152C15.0042 3.99868 14.7361 4.64585 14.7361 5.32066C14.7361 5.99546 15.0042 6.64263 15.4814 7.11979C15.9585 7.59695 16.6057 7.86502 17.2805 7.86502C17.9553 7.86502 18.6025 7.59695 19.0796 7.11979C19.5568 6.64263 19.8248 5.99546 19.8248 5.32066ZM49.8086 67.4567C59.2041 64.1817 69.65 57.2186 71.7205 46.6957C71.9119 45.7246 72.0076 44.4392 72.0076 42.8395C72.0076 35.1083 72.0029 27.7756 71.9936 20.8413C71.9933 20.8203 71.9888 20.7996 71.9803 20.7805C71.9719 20.7613 71.9597 20.744 71.9445 20.7296C71.9292 20.7153 71.9113 20.7041 71.8916 20.6968C71.872 20.6895 71.8511 20.6863 71.8302 20.6872C71.2948 20.7121 70.7665 20.7043 70.2452 20.6638C62.6261 20.0803 54.9814 17.5919 49.6265 11.9127C49.5705 11.8535 49.5153 11.8535 49.4608 11.9127C43.5528 18.1498 35.5135 21.1937 26.9724 20.316C26.9626 20.3151 26.9528 20.3161 26.9434 20.3192C26.9341 20.3223 26.9256 20.3273 26.9183 20.3339C26.911 20.3405 26.9052 20.3486 26.9013 20.3575C26.8973 20.3665 26.8953 20.3763 26.8954 20.3861C26.8954 28.0783 26.8993 35.9572 26.907 44.0229C26.9086 45.0142 27.0105 45.9503 27.2128 46.8311C29.2647 55.7527 37.0121 61.9829 44.9907 65.6127C46.371 66.2414 47.8151 66.8529 49.3231 67.4474C49.4784 67.5077 49.6504 67.511 49.8086 67.4567ZM7.46252 28.0822C7.46252 27.4037 7.19298 26.7529 6.7132 26.2731C6.23341 25.7934 5.58268 25.5238 4.90416 25.5238C4.22564 25.5238 3.57491 25.7934 3.09512 26.2731C2.61533 26.7529 2.34579 27.4037 2.34579 28.0822C2.34579 28.7607 2.61533 29.4114 3.09512 29.8912C3.57491 30.371 4.22564 30.6405 4.90416 30.6405C5.58268 30.6405 6.23341 30.371 6.7132 29.8912C7.19298 29.4114 7.46252 28.7607 7.46252 28.0822ZM96.5338 28.0798C96.5338 27.7442 96.4677 27.4118 96.3392 27.1017C96.2108 26.7916 96.0225 26.5098 95.7852 26.2725C95.5478 26.0351 95.266 25.8468 94.9559 25.7184C94.6458 25.5899 94.3134 25.5238 93.9778 25.5238C93.6421 25.5238 93.3097 25.5899 92.9996 25.7184C92.6895 25.8468 92.4077 26.0351 92.1704 26.2725C91.933 26.5098 91.7448 26.7916 91.6163 27.1017C91.4879 27.4118 91.4217 27.7442 91.4217 28.0798C91.4217 28.7577 91.691 29.4079 92.1704 29.8872C92.6497 30.3666 93.2999 30.6359 93.9778 30.6359C94.6557 30.6359 95.3058 30.3666 95.7852 29.8872C96.2645 29.4079 96.5338 28.7577 96.5338 28.0798ZM15.3314 46.6677C15.3314 45.9904 15.0623 45.3409 14.5834 44.8619C14.1045 44.383 13.455 44.114 12.7777 44.114C12.1004 44.114 11.4508 44.383 10.9719 44.8619C10.493 45.3409 10.224 45.9904 10.224 46.6677C10.224 47.345 10.493 47.9945 10.9719 48.4734C11.4508 48.9523 12.1004 49.2214 12.7777 49.2214C13.455 49.2214 14.1045 48.9523 14.5834 48.4734C15.0623 47.9945 15.3314 47.345 15.3314 46.6677ZM88.6486 46.663C88.6486 45.9876 88.3803 45.3398 87.9027 44.8622C87.4251 44.3846 86.7774 44.1163 86.1019 44.1163C85.4265 44.1163 84.7787 44.3846 84.3011 44.8622C83.8235 45.3398 83.5552 45.9876 83.5552 46.663C83.5552 47.3384 83.8235 47.9862 84.3011 48.4638C84.7787 48.9414 85.4265 49.2097 86.1019 49.2097C86.7774 49.2097 87.4251 48.9414 87.9027 48.4638C88.3803 47.9862 88.6486 47.3384 88.6486 46.663ZM19.8202 69.854C19.8202 69.1774 19.5514 68.5284 19.0729 68.0499C18.5944 67.5715 17.9455 67.3027 17.2688 67.3027C16.5922 67.3027 15.9432 67.5715 15.4647 68.0499C14.9863 68.5284 14.7175 69.1774 14.7175 69.854C14.7175 70.5307 14.9863 71.1796 15.4647 71.6581C15.9432 72.1366 16.5922 72.4054 17.2688 72.4054C17.9455 72.4054 18.5944 72.1366 19.0729 71.6581C19.5514 71.1796 19.8202 70.5307 19.8202 69.854ZM84.1668 69.8564C84.1668 69.1778 83.8973 68.5271 83.4175 68.0473C82.9377 67.5675 82.287 67.298 81.6085 67.298C80.9299 67.298 80.2792 67.5675 79.7994 68.0473C79.3196 68.5271 79.0501 69.1778 79.0501 69.8564C79.0501 70.1923 79.1163 70.525 79.2448 70.8354C79.3734 71.1458 79.5619 71.4278 79.7994 71.6654C80.037 71.903 80.319 72.0914 80.6294 72.22C80.9398 72.3486 81.2725 72.4147 81.6085 72.4147C81.9444 72.4147 82.2771 72.3486 82.5875 72.22C82.8979 72.0914 83.1799 71.903 83.4175 71.6654C83.6551 71.4278 83.8435 71.1458 83.9721 70.8354C84.1006 70.525 84.1668 70.1923 84.1668 69.8564Z" fill="white"/>
<path d="M48.1582 44.903C48.2469 44.973 48.3278 44.9645 48.401 44.8773C51.7281 40.9106 55.2007 36.8101 58.8188 32.5757C59.8202 31.4039 61.5289 32.9048 60.5159 34.1C56.588 38.7405 52.6416 43.3974 48.6764 48.0706C48.6188 48.1391 48.5558 48.1461 48.4873 48.0916C45.7796 45.955 43.0882 43.8354 40.4131 41.733C39.0989 40.7013 40.4691 38.8502 41.774 39.8866C43.9573 41.6202 46.0854 43.2923 48.1582 44.903Z" fill="white"/>
</svg>
