<svg width="86" height="86" viewBox="0 0 86 86" fill="none" xmlns="http://www.w3.org/2000/svg">
<g clip-path="url(#clip0_34_595)">
<path fill-rule="evenodd" clip-rule="evenodd" d="M50.9835 6.76117C49.307 6.76117 47.9478 8.12032 47.9478 9.79688V18.335H39.4099C37.7333 18.335 36.3741 19.6941 36.3741 21.3707V31.2368C36.3741 32.9134 37.7333 34.2725 39.4099 34.2725H47.9478V42.8103C47.9478 44.4868 49.307 45.846 50.9835 45.846H60.8496C62.5263 45.846 63.8851 44.4868 63.8851 42.8103V34.2725H72.4233C74.0996 34.2725 75.459 32.9134 75.459 31.2368V21.3707C75.459 19.6941 74.0996 18.335 72.4233 18.335H63.8851V9.79688C63.8851 8.12032 62.5263 6.76117 60.8496 6.76117H50.9835Z" fill="white"/>
<path d="M11.6906 42.4308H0.5V66.7162L11.6012 77.8178C16.1556 82.372 22.3328 84.9305 28.7737 84.9305H64.25C69.2796 84.9305 73.3571 80.8535 73.3571 75.8233C73.3571 70.7938 69.2796 66.7162 64.25 66.7162H46.0357L28.8631 49.5439C24.3087 44.9895 18.1315 42.4308 11.6906 42.4308Z" fill="#09011A"/>
<path fill-rule="evenodd" clip-rule="evenodd" d="M39.3694 60.0746C39.8247 61.8105 39.372 63.7351 38.0115 65.0958C35.9726 67.1345 32.6669 67.1345 30.6281 65.0958L21.8244 56.2921C20.3426 54.8102 17.9399 54.8102 16.458 56.2921C14.9761 57.774 14.9761 60.1766 16.458 61.6587L25.2616 70.4623C30.2643 75.4651 38.3752 75.4645 43.3779 70.4623C44.5005 69.3397 45.3712 68.0604 45.99 66.695L39.3694 60.0746Z" fill="white"/>
</g>
<defs>
<clipPath id="clip0_34_595">
<rect width="85" height="85" fill="white" transform="translate(0.5 0.5)"/>
</clipPath>
</defs>
</svg>
