<?xml version="1.0" encoding="utf-8"?>
<!-- Generator: Adobe Illustrator 26.0.1, SVG Export Plug-In . SVG Version: 6.00 Build 0)  -->
<svg version="1.1" id="Layer_1" xmlns="http://www.w3.org/2000/svg" xmlns:xlink="http://www.w3.org/1999/xlink" x="0px" y="0px"
	 viewBox="0 0 260 69" style="enable-background:new 0 0 260 69;" xml:space="preserve">
<style type="text/css">
	.st0{fill:#FFFFFF;}
	.st1{fill:#EEEEEE;}
	.st2{fill:#FFFFFF;filter:url(#Adobe_OpacityMaskFilter);}
	.st3{mask:url(#mask0_1080_364_00000056400513986654273610000014025452253373203390_);}
	.st4{fill:#BF0A44;}
	.st5{fill:#0063B0;}
	.st6{fill:#249795;}
	.st7{fill:#FFFFFF;filter:url(#Adobe_OpacityMaskFilter_00000083080227350963199890000005973651524686547094_);}
	.st8{mask:url(#mask1_1080_364_00000148643750483403464640000011567005375756233633_);}
	.st9{fill:#E29234;}
	.st10{fill:#4147D5;}
</style>
<path class="st0" d="M85.8,49.4l-3.6-6.1h-2.4v6.1h-2v-15h4.8c1.1,0,2.1,0.2,2.9,0.6c0.8,0.4,1.4,0.9,1.8,1.6
	c0.4,0.7,0.6,1.4,0.6,2.3c0,1-0.3,1.9-0.9,2.7c-0.6,0.8-1.5,1.3-2.7,1.6l3.8,6.3H85.8z M79.8,41.7h2.9c1.1,0,1.9-0.3,2.4-0.8
	c0.5-0.5,0.8-1.2,0.8-2.1c0-0.9-0.3-1.6-0.8-2.1c-0.5-0.5-1.3-0.7-2.4-0.7h-2.9V41.7z M101.8,43.1c0,0.4,0,0.8-0.1,1.2h-9.4
	c0.1,1.2,0.5,2.1,1.2,2.7c0.7,0.6,1.6,1,2.6,1c0.8,0,1.6-0.2,2.1-0.6c0.6-0.4,1-0.9,1.2-1.6h2.1c-0.3,1.1-0.9,2.1-1.9,2.8
	c-0.9,0.7-2.1,1.1-3.5,1.1c-1.1,0-2.1-0.3-3-0.8c-0.9-0.5-1.6-1.2-2.1-2.1c-0.5-0.9-0.8-2-0.8-3.2c0-1.2,0.2-2.3,0.7-3.2
	c0.5-0.9,1.2-1.6,2-2.1c0.9-0.5,1.9-0.8,3.1-0.8c1.1,0,2.1,0.2,3,0.7c0.9,0.5,1.5,1.2,2,2C101.5,41,101.8,42,101.8,43.1z M99.7,42.6
	c0-0.7-0.2-1.4-0.5-1.9c-0.3-0.5-0.8-1-1.4-1.2c-0.6-0.3-1.2-0.4-1.9-0.4c-1,0-1.8,0.3-2.5,0.9c-0.7,0.6-1.1,1.5-1.2,2.6H99.7z
	 M108.5,49.6c-0.9,0-1.7-0.2-2.4-0.5c-0.7-0.3-1.3-0.7-1.7-1.3c-0.4-0.6-0.6-1.2-0.7-1.9h2c0.1,0.6,0.3,1.1,0.8,1.4
	c0.5,0.4,1.2,0.6,2,0.6c0.7,0,1.3-0.2,1.8-0.5s0.6-0.7,0.6-1.2c0-0.5-0.2-0.9-0.7-1.1c-0.5-0.3-1.2-0.5-2.1-0.8
	c-0.9-0.2-1.6-0.5-2.2-0.7c-0.5-0.2-1-0.6-1.4-1.1c-0.4-0.5-0.6-1.1-0.6-1.9c0-0.6,0.2-1.2,0.5-1.7c0.4-0.5,0.9-0.9,1.5-1.2
	c0.7-0.3,1.4-0.5,2.3-0.5c1.3,0,2.4,0.3,3.2,1s1.2,1.6,1.3,2.7h-2c0-0.6-0.3-1.1-0.8-1.5c-0.4-0.4-1-0.6-1.8-0.6
	c-0.7,0-1.3,0.2-1.7,0.5c-0.4,0.3-0.6,0.7-0.6,1.2c0,0.4,0.1,0.7,0.4,1c0.3,0.2,0.6,0.4,0.9,0.6c0.4,0.1,0.9,0.3,1.6,0.5
	c0.8,0.2,1.5,0.5,2.1,0.7c0.5,0.2,1,0.5,1.4,1c0.4,0.4,0.6,1,0.6,1.7c0,0.6-0.2,1.2-0.5,1.7s-0.9,0.9-1.5,1.2
	C110.1,49.5,109.4,49.6,108.5,49.6z M126.4,43.1c0,0.4,0,0.8-0.1,1.2h-9.4c0.1,1.2,0.5,2.1,1.2,2.7c0.7,0.6,1.6,1,2.6,1
	c0.8,0,1.6-0.2,2.1-0.6c0.6-0.4,1-0.9,1.2-1.6h2.1c-0.3,1.1-0.9,2.1-1.9,2.8c-0.9,0.7-2.1,1.1-3.5,1.1c-1.1,0-2.1-0.3-3-0.8
	c-0.9-0.5-1.6-1.2-2.1-2.1c-0.5-0.9-0.8-2-0.8-3.2c0-1.2,0.2-2.3,0.7-3.2c0.5-0.9,1.2-1.6,2-2.1c0.9-0.5,1.9-0.8,3.1-0.8
	c1.1,0,2.1,0.2,3,0.7c0.9,0.5,1.5,1.2,2,2C126.1,41,126.4,42,126.4,43.1z M124.3,42.6c0-0.7-0.2-1.4-0.5-1.9c-0.3-0.5-0.8-1-1.4-1.2
	c-0.6-0.3-1.2-0.4-1.9-0.4c-1,0-1.8,0.3-2.5,0.9c-0.7,0.6-1.1,1.5-1.2,2.6H124.3z M128.2,43.5c0-1.2,0.2-2.3,0.7-3.2
	c0.5-0.9,1.2-1.6,2-2.1c0.9-0.5,1.8-0.8,2.9-0.8c1,0,1.9,0.2,2.7,0.7s1.3,1,1.7,1.7v-2.2h2v11.8h-2v-2.2c-0.4,0.7-1,1.3-1.7,1.7
	c-0.8,0.4-1.7,0.7-2.7,0.7c-1,0-2-0.3-2.8-0.8c-0.8-0.5-1.5-1.2-2-2.2S128.2,44.7,128.2,43.5z M138.2,43.5c0-0.9-0.2-1.7-0.5-2.3
	c-0.4-0.7-0.8-1.2-1.5-1.5c-0.6-0.4-1.3-0.5-2-0.5s-1.4,0.2-2,0.5s-1.1,0.8-1.4,1.5s-0.5,1.4-0.5,2.3c0,0.9,0.2,1.7,0.5,2.4
	c0.4,0.7,0.8,1.2,1.4,1.5c0.6,0.3,1.3,0.5,2,0.5s1.4-0.2,2-0.5c0.6-0.4,1.1-0.9,1.5-1.5C138,45.2,138.2,44.4,138.2,43.5z
	 M145.5,39.5c0.3-0.7,0.8-1.2,1.5-1.6c0.6-0.4,1.4-0.6,2.3-0.6v2h-0.5c-2.2,0-3.3,1.2-3.3,3.6v6.4h-2V37.6h2V39.5z M150.8,43.5
	c0-1.2,0.2-2.3,0.7-3.2c0.5-0.9,1.2-1.6,2-2.1c0.9-0.5,1.9-0.8,3-0.8c1.5,0,2.6,0.4,3.6,1.1c0.9,0.7,1.6,1.7,1.9,2.9h-2.1
	c-0.2-0.7-0.6-1.3-1.2-1.7c-0.6-0.4-1.3-0.6-2.2-0.6c-1.1,0-2,0.4-2.7,1.2c-0.7,0.8-1,1.8-1,3.3c0,1.4,0.3,2.5,1,3.3
	s1.6,1.2,2.7,1.2c0.9,0,1.6-0.2,2.2-0.6c0.6-0.4,1-1,1.2-1.7h2.1c-0.3,1.2-0.9,2.2-1.9,2.9c-0.9,0.7-2.1,1.1-3.6,1.1
	c-1.1,0-2.1-0.3-3-0.8c-0.9-0.5-1.5-1.2-2-2.1C151.1,45.8,150.8,44.7,150.8,43.5z M170.5,37.4c0.9,0,1.7,0.2,2.4,0.6
	c0.7,0.4,1.3,0.9,1.7,1.7c0.4,0.8,0.6,1.7,0.6,2.8v7h-1.9v-6.7c0-1.2-0.3-2.1-0.9-2.7c-0.6-0.6-1.4-0.9-2.4-0.9c-1,0-1.9,0.3-2.5,1
	c-0.6,0.6-0.9,1.6-0.9,2.8v6.5h-2V33.5h2v5.8c0.4-0.6,0.9-1.1,1.6-1.4C168.9,37.6,169.6,37.4,170.5,37.4z M183.4,41.9
	c0-1.5,0.3-2.8,1-3.9c0.7-1.2,1.6-2.1,2.7-2.8c1.1-0.7,2.4-1,3.8-1c1.6,0,3.1,0.4,4.3,1.2c1.2,0.8,2.1,1.9,2.7,3.4h-2.3
	c-0.4-0.9-1-1.6-1.8-2.1c-0.8-0.5-1.7-0.7-2.8-0.7c-1,0-2,0.2-2.8,0.7c-0.8,0.5-1.5,1.2-2,2.1c-0.5,0.9-0.7,1.9-0.7,3.1
	c0,1.2,0.2,2.2,0.7,3.1c0.5,0.9,1.1,1.6,2,2.1c0.8,0.5,1.8,0.7,2.8,0.7c1.1,0,2-0.2,2.8-0.7c0.8-0.5,1.4-1.2,1.8-2.1h2.3
	c-0.6,1.4-1.5,2.5-2.7,3.3c-1.2,0.8-2.6,1.2-4.3,1.2c-1.4,0-2.7-0.3-3.8-1c-1.1-0.7-2-1.6-2.7-2.7C183.8,44.7,183.4,43.4,183.4,41.9
	z M211.6,43.1c0,0.4,0,0.8-0.1,1.2h-9.4c0.1,1.2,0.5,2.1,1.2,2.7c0.7,0.6,1.6,1,2.6,1c0.8,0,1.6-0.2,2.1-0.6c0.6-0.4,1-0.9,1.2-1.6
	h2.1c-0.3,1.1-0.9,2.1-1.9,2.8c-0.9,0.7-2.1,1.1-3.5,1.1c-1.1,0-2.1-0.3-3-0.8c-0.9-0.5-1.6-1.2-2.1-2.1c-0.5-0.9-0.8-2-0.8-3.2
	c0-1.2,0.2-2.3,0.7-3.2c0.5-0.9,1.2-1.6,2-2.1c0.9-0.5,1.9-0.8,3.1-0.8c1.1,0,2.1,0.2,3,0.7c0.9,0.5,1.5,1.2,2,2
	C211.3,41,211.6,42,211.6,43.1z M209.5,42.6c0-0.7-0.2-1.4-0.5-1.9c-0.3-0.5-0.8-1-1.4-1.2c-0.6-0.3-1.2-0.4-1.9-0.4
	c-1,0-1.8,0.3-2.5,0.9c-0.7,0.6-1.1,1.5-1.2,2.6H209.5z M219.9,37.4c1.4,0,2.6,0.4,3.5,1.3c0.9,0.9,1.3,2.1,1.3,3.7v7h-1.9v-6.7
	c0-1.2-0.3-2.1-0.9-2.7c-0.6-0.6-1.4-0.9-2.4-0.9c-1,0-1.9,0.3-2.5,1c-0.6,0.6-0.9,1.6-0.9,2.8v6.5h-2V37.6h2v1.7
	c0.4-0.6,0.9-1.1,1.6-1.4C218.4,37.6,219.1,37.4,219.9,37.4z M230.3,39.2v7c0,0.6,0.1,1,0.4,1.2c0.2,0.2,0.7,0.3,1.3,0.3h1.4v1.7
	h-1.8c-1.1,0-1.9-0.3-2.5-0.8c-0.5-0.5-0.8-1.3-0.8-2.5v-7h-1.5v-1.6h1.5v-3h2v3h3.1v1.6H230.3z M246.5,43.1c0,0.4,0,0.8-0.1,1.2
	H237c0.1,1.2,0.5,2.1,1.2,2.7c0.7,0.6,1.6,1,2.6,1c0.8,0,1.6-0.2,2.1-0.6c0.6-0.4,1-0.9,1.2-1.6h2.1c-0.3,1.1-0.9,2.1-1.9,2.8
	c-0.9,0.7-2.1,1.1-3.5,1.1c-1.1,0-2.1-0.3-3-0.8c-0.9-0.5-1.6-1.2-2.1-2.1c-0.5-0.9-0.8-2-0.8-3.2c0-1.2,0.2-2.3,0.7-3.2
	c0.5-0.9,1.2-1.6,2-2.1c0.9-0.5,1.9-0.8,3.1-0.8c1.1,0,2.1,0.2,3,0.7c0.9,0.5,1.5,1.2,2,2C246.3,41,246.5,42,246.5,43.1z
	 M244.5,42.6c0-0.7-0.2-1.4-0.5-1.9c-0.3-0.5-0.8-1-1.4-1.2c-0.6-0.3-1.2-0.4-1.9-0.4c-1,0-1.8,0.3-2.5,0.9
	c-0.7,0.6-1.1,1.5-1.2,2.6H244.5z M251.1,39.5c0.3-0.7,0.8-1.2,1.5-1.6c0.6-0.4,1.4-0.6,2.3-0.6v2h-0.5c-2.2,0-3.3,1.2-3.3,3.6v6.4
	h-2V37.6h2V39.5z"/>
<path class="st1" d="M78.9,57.7v7.6h-1v-7.6H78.9z M83.5,59.2c0.7,0,1.3,0.2,1.8,0.7c0.5,0.4,0.7,1.1,0.7,1.9v3.5h-1v-3.4
	c0-0.6-0.1-1.1-0.4-1.4c-0.3-0.3-0.7-0.5-1.2-0.5c-0.5,0-0.9,0.2-1.3,0.5c-0.3,0.3-0.5,0.8-0.5,1.4v3.3h-1v-6h1v0.9
	c0.2-0.3,0.5-0.5,0.8-0.7C82.7,59.3,83.1,59.2,83.5,59.2z M90.5,59.2c0.7,0,1.3,0.2,1.8,0.7c0.5,0.4,0.7,1.1,0.7,1.9v3.5h-1v-3.4
	c0-0.6-0.1-1.1-0.4-1.4c-0.3-0.3-0.7-0.5-1.2-0.5c-0.5,0-0.9,0.2-1.3,0.5c-0.3,0.3-0.5,0.8-0.5,1.4v3.3h-1v-6h1v0.9
	c0.2-0.3,0.5-0.5,0.8-0.7C89.7,59.3,90.1,59.2,90.5,59.2z M97.2,65.4c-0.6,0-1.1-0.1-1.5-0.4c-0.5-0.3-0.8-0.6-1.1-1.1
	c-0.3-0.5-0.4-1-0.4-1.6c0-0.6,0.1-1.2,0.4-1.6c0.3-0.5,0.6-0.8,1.1-1.1c0.5-0.3,1-0.4,1.5-0.4s1.1,0.1,1.5,0.4
	c0.5,0.2,0.8,0.6,1.1,1.1c0.3,0.5,0.4,1,0.4,1.6c0,0.6-0.1,1.2-0.4,1.6c-0.3,0.5-0.6,0.8-1.1,1.1C98.3,65.3,97.8,65.4,97.2,65.4z
	 M97.2,64.5c0.4,0,0.7-0.1,1-0.3c0.3-0.2,0.6-0.4,0.8-0.8c0.2-0.3,0.3-0.7,0.3-1.2s-0.1-0.9-0.3-1.2c-0.2-0.3-0.4-0.6-0.7-0.7
	c-0.3-0.2-0.6-0.3-1-0.3c-0.4,0-0.7,0.1-1,0.3c-0.3,0.2-0.5,0.4-0.7,0.7c-0.2,0.3-0.3,0.7-0.3,1.2c0,0.5,0.1,0.9,0.3,1.2
	c0.2,0.3,0.4,0.6,0.7,0.8C96.5,64.5,96.9,64.5,97.2,64.5z M103.9,64.4l1.9-5.1h1.1l-2.4,6h-1.2l-2.4-6h1.1L103.9,64.4z M107.4,62.3
	c0-0.6,0.1-1.2,0.4-1.6c0.2-0.5,0.6-0.8,1-1.1c0.4-0.3,0.9-0.4,1.5-0.4c0.5,0,1,0.1,1.4,0.3c0.4,0.2,0.7,0.5,0.9,0.9v-1.1h1v6h-1
	v-1.1c-0.2,0.4-0.5,0.6-0.9,0.9c-0.4,0.2-0.8,0.3-1.4,0.3c-0.5,0-1-0.1-1.4-0.4c-0.4-0.3-0.8-0.6-1-1.1
	C107.5,63.4,107.4,62.9,107.4,62.3z M112.5,62.3c0-0.5-0.1-0.8-0.3-1.2c-0.2-0.3-0.4-0.6-0.7-0.8c-0.3-0.2-0.6-0.3-1-0.3
	s-0.7,0.1-1,0.3c-0.3,0.2-0.6,0.4-0.7,0.8c-0.2,0.3-0.3,0.7-0.3,1.2c0,0.5,0.1,0.9,0.3,1.2c0.2,0.3,0.4,0.6,0.7,0.8
	c0.3,0.2,0.6,0.3,1,0.3s0.7-0.1,1-0.3c0.3-0.2,0.6-0.4,0.7-0.8C112.4,63.2,112.5,62.8,112.5,62.3z M116.4,60.1v3.5
	c0,0.3,0.1,0.5,0.2,0.6c0.1,0.1,0.3,0.2,0.6,0.2h0.7v0.8h-0.9c-0.6,0-1-0.1-1.3-0.4c-0.3-0.3-0.4-0.7-0.4-1.3v-3.5h-0.8v-0.8h0.8
	v-1.5h1v1.5h1.6v0.8H116.4z M119.7,58.3c-0.2,0-0.4-0.1-0.5-0.2c-0.1-0.1-0.2-0.3-0.2-0.5c0-0.2,0.1-0.4,0.2-0.5
	c0.1-0.1,0.3-0.2,0.5-0.2c0.2,0,0.3,0.1,0.5,0.2c0.1,0.1,0.2,0.3,0.2,0.5c0,0.2-0.1,0.4-0.2,0.5C120,58.3,119.9,58.3,119.7,58.3z
	 M120.2,59.3v6h-1v-6H120.2z M124.1,64.4l1.9-5.1h1.1l-2.4,6h-1.2l-2.4-6h1.1L124.1,64.4z M133.5,62.1c0,0.2,0,0.4,0,0.6h-4.8
	c0,0.6,0.2,1.1,0.6,1.4c0.4,0.3,0.8,0.5,1.3,0.5c0.4,0,0.8-0.1,1.1-0.3c0.3-0.2,0.5-0.5,0.6-0.8h1.1c-0.2,0.6-0.5,1-1,1.4
	c-0.5,0.4-1.1,0.5-1.8,0.5c-0.6,0-1.1-0.1-1.5-0.4c-0.4-0.3-0.8-0.6-1.1-1.1c-0.3-0.5-0.4-1-0.4-1.6c0-0.6,0.1-1.2,0.4-1.6
	c0.2-0.5,0.6-0.8,1-1.1c0.5-0.3,1-0.4,1.6-0.4c0.6,0,1.1,0.1,1.5,0.4c0.4,0.2,0.8,0.6,1,1C133.4,61,133.5,61.5,133.5,62.1z
	 M132.5,61.9c0-0.4-0.1-0.7-0.3-1c-0.2-0.3-0.4-0.5-0.7-0.6c-0.3-0.1-0.6-0.2-1-0.2c-0.5,0-0.9,0.2-1.3,0.5
	c-0.4,0.3-0.6,0.8-0.6,1.3H132.5z M145,59.2c0.5,0,0.9,0.1,1.3,0.3c0.4,0.2,0.7,0.5,0.9,0.9c0.2,0.4,0.3,0.9,0.3,1.4v3.5h-1v-3.4
	c0-0.6-0.1-1.1-0.5-1.4c-0.3-0.3-0.7-0.5-1.2-0.5c-0.5,0-0.9,0.2-1.2,0.5c-0.3,0.3-0.5,0.8-0.5,1.4v3.3h-1v-3.4
	c0-0.6-0.1-1.1-0.4-1.4c-0.3-0.3-0.7-0.5-1.2-0.5c-0.5,0-0.9,0.2-1.2,0.5c-0.3,0.3-0.5,0.8-0.5,1.4v3.3h-1v-6h1v0.9
	c0.2-0.3,0.5-0.6,0.8-0.7c0.3-0.2,0.7-0.3,1.1-0.3c0.5,0,1,0.1,1.3,0.3c0.4,0.2,0.7,0.6,0.9,1c0.2-0.4,0.4-0.8,0.8-1
	C144.1,59.3,144.5,59.2,145,59.2z M149.6,58.3c-0.2,0-0.4-0.1-0.5-0.2c-0.1-0.1-0.2-0.3-0.2-0.5c0-0.2,0.1-0.4,0.2-0.5
	s0.3-0.2,0.5-0.2c0.2,0,0.3,0.1,0.5,0.2c0.1,0.1,0.2,0.3,0.2,0.5c0,0.2-0.1,0.4-0.2,0.5C149.9,58.3,149.7,58.3,149.6,58.3z
	 M150,59.3v6h-1v-6H150z M154.7,59.2c0.7,0,1.3,0.2,1.8,0.7c0.5,0.4,0.7,1.1,0.7,1.9v3.5h-1v-3.4c0-0.6-0.1-1.1-0.4-1.4
	c-0.3-0.3-0.7-0.5-1.2-0.5c-0.5,0-0.9,0.2-1.3,0.5c-0.3,0.3-0.5,0.8-0.5,1.4v3.3h-1v-6h1v0.9c0.2-0.3,0.5-0.5,0.8-0.7
	C153.9,59.3,154.3,59.2,154.7,59.2z M158.4,62.3c0-0.6,0.1-1.2,0.4-1.6c0.2-0.5,0.6-0.8,1-1.1c0.4-0.3,0.9-0.4,1.5-0.4
	c0.5,0,0.9,0.1,1.3,0.3c0.4,0.2,0.7,0.5,0.9,0.8v-3.2h1v8.1h-1v-1.1c-0.2,0.4-0.5,0.7-0.9,0.9c-0.4,0.2-0.8,0.3-1.4,0.3
	c-0.5,0-1-0.1-1.5-0.4c-0.4-0.3-0.8-0.6-1-1.1C158.5,63.4,158.4,62.9,158.4,62.3z M163.5,62.3c0-0.5-0.1-0.8-0.3-1.2
	c-0.2-0.3-0.4-0.6-0.7-0.8c-0.3-0.2-0.6-0.3-1-0.3s-0.7,0.1-1,0.3c-0.3,0.2-0.6,0.4-0.7,0.8c-0.2,0.3-0.3,0.7-0.3,1.2
	c0,0.5,0.1,0.9,0.3,1.2c0.2,0.3,0.4,0.6,0.7,0.8c0.3,0.2,0.6,0.3,1,0.3s0.7-0.1,1-0.3c0.3-0.2,0.6-0.4,0.7-0.8
	C163.4,63.2,163.5,62.8,163.5,62.3z M168.3,65.4c-0.5,0-0.9-0.1-1.2-0.2c-0.4-0.2-0.7-0.4-0.9-0.7c-0.2-0.3-0.3-0.6-0.4-1h1
	c0,0.3,0.2,0.5,0.4,0.7c0.3,0.2,0.6,0.3,1,0.3c0.4,0,0.7-0.1,0.9-0.3c0.2-0.2,0.3-0.4,0.3-0.6c0-0.3-0.1-0.5-0.4-0.6
	c-0.2-0.1-0.6-0.3-1.1-0.4c-0.4-0.1-0.8-0.2-1.1-0.4c-0.3-0.1-0.5-0.3-0.7-0.5c-0.2-0.2-0.3-0.6-0.3-0.9c0-0.3,0.1-0.6,0.3-0.8
	s0.4-0.5,0.8-0.6c0.3-0.2,0.7-0.2,1.2-0.2c0.7,0,1.2,0.2,1.6,0.5c0.4,0.3,0.6,0.8,0.7,1.4h-1c0-0.3-0.1-0.6-0.4-0.8
	c-0.2-0.2-0.5-0.3-0.9-0.3c-0.4,0-0.6,0.1-0.9,0.2c-0.2,0.2-0.3,0.4-0.3,0.6c0,0.2,0.1,0.4,0.2,0.5c0.1,0.1,0.3,0.2,0.5,0.3
	c0.2,0.1,0.5,0.2,0.8,0.3c0.4,0.1,0.8,0.2,1.1,0.4c0.3,0.1,0.5,0.3,0.7,0.5c0.2,0.2,0.3,0.5,0.3,0.9c0,0.3-0.1,0.6-0.3,0.9
	c-0.2,0.3-0.4,0.5-0.8,0.6C169.1,65.3,168.7,65.4,168.3,65.4z M174.4,62.3c0-0.6,0.1-1.2,0.4-1.6c0.2-0.5,0.6-0.8,1-1.1
	c0.4-0.3,1-0.4,1.5-0.4c0.7,0,1.3,0.2,1.8,0.5c0.5,0.4,0.8,0.9,1,1.5h-1.1c-0.1-0.4-0.3-0.7-0.6-0.9c-0.3-0.2-0.7-0.3-1.1-0.3
	c-0.6,0-1,0.2-1.4,0.6c-0.4,0.4-0.5,0.9-0.5,1.7c0,0.7,0.2,1.3,0.5,1.7s0.8,0.6,1.4,0.6c0.4,0,0.8-0.1,1.1-0.3
	c0.3-0.2,0.5-0.5,0.6-0.9h1.1c-0.2,0.6-0.5,1.1-1,1.5c-0.5,0.4-1.1,0.5-1.8,0.5c-0.6,0-1.1-0.1-1.5-0.4c-0.4-0.3-0.8-0.6-1-1.1
	C174.6,63.5,174.4,62.9,174.4,62.3z M182.5,60.3c0.2-0.3,0.4-0.6,0.7-0.8c0.3-0.2,0.7-0.3,1.2-0.3v1h-0.3c-1.1,0-1.7,0.6-1.7,1.8
	v3.3h-1v-6h1V60.3z M191.1,62.1c0,0.2,0,0.4,0,0.6h-4.8c0,0.6,0.2,1.1,0.6,1.4c0.4,0.3,0.8,0.5,1.3,0.5c0.4,0,0.8-0.1,1.1-0.3
	c0.3-0.2,0.5-0.5,0.6-0.8h1.1c-0.2,0.6-0.5,1-1,1.4c-0.5,0.4-1.1,0.5-1.8,0.5c-0.6,0-1.1-0.1-1.5-0.4c-0.4-0.3-0.8-0.6-1.1-1.1
	c-0.3-0.5-0.4-1-0.4-1.6c0-0.6,0.1-1.2,0.4-1.6c0.2-0.5,0.6-0.8,1-1.1c0.5-0.3,1-0.4,1.6-0.4c0.6,0,1.1,0.1,1.5,0.4
	c0.4,0.2,0.8,0.6,1,1C190.9,61,191.1,61.5,191.1,62.1z M190,61.9c0-0.4-0.1-0.7-0.3-1c-0.2-0.3-0.4-0.5-0.7-0.6
	c-0.3-0.1-0.6-0.2-1-0.2c-0.5,0-0.9,0.2-1.3,0.5c-0.4,0.3-0.6,0.8-0.6,1.3H190z M192,62.3c0-0.6,0.1-1.2,0.4-1.6
	c0.2-0.5,0.6-0.8,1-1.1c0.4-0.3,0.9-0.4,1.5-0.4c0.5,0,1,0.1,1.4,0.3c0.4,0.2,0.7,0.5,0.9,0.9v-1.1h1v6h-1v-1.1
	c-0.2,0.4-0.5,0.6-0.9,0.9c-0.4,0.2-0.8,0.3-1.4,0.3c-0.5,0-1-0.1-1.4-0.4c-0.4-0.3-0.8-0.6-1-1.1S192,62.9,192,62.3z M197.1,62.3
	c0-0.5-0.1-0.8-0.3-1.2c-0.2-0.3-0.4-0.6-0.7-0.8c-0.3-0.2-0.6-0.3-1-0.3c-0.4,0-0.7,0.1-1,0.3c-0.3,0.2-0.6,0.4-0.7,0.8
	s-0.3,0.7-0.3,1.2c0,0.5,0.1,0.9,0.3,1.2c0.2,0.3,0.4,0.6,0.7,0.8c0.3,0.2,0.6,0.3,1,0.3c0.4,0,0.7-0.1,1-0.3
	c0.3-0.2,0.6-0.4,0.7-0.8C197,63.2,197.1,62.8,197.1,62.3z M201,60.1v3.5c0,0.3,0.1,0.5,0.2,0.6c0.1,0.1,0.3,0.2,0.6,0.2h0.7v0.8
	h-0.9c-0.6,0-1-0.1-1.3-0.4c-0.3-0.3-0.4-0.7-0.4-1.3v-3.5h-0.8v-0.8h0.8v-1.5h1v1.5h1.6v0.8H201z M204.3,58.3
	c-0.2,0-0.4-0.1-0.5-0.2c-0.1-0.1-0.2-0.3-0.2-0.5c0-0.2,0.1-0.4,0.2-0.5s0.3-0.2,0.5-0.2c0.2,0,0.3,0.1,0.5,0.2
	c0.1,0.1,0.2,0.3,0.2,0.5c0,0.2-0.1,0.4-0.2,0.5C204.6,58.3,204.5,58.3,204.3,58.3z M204.8,59.3v6h-1v-6H204.8z M209.4,59.2
	c0.7,0,1.3,0.2,1.8,0.7c0.5,0.4,0.7,1.1,0.7,1.9v3.5h-1v-3.4c0-0.6-0.1-1.1-0.4-1.4c-0.3-0.3-0.7-0.5-1.2-0.5
	c-0.5,0-0.9,0.2-1.3,0.5c-0.3,0.3-0.5,0.8-0.5,1.4v3.3h-1v-6h1v0.9c0.2-0.3,0.5-0.5,0.8-0.7C208.6,59.3,209,59.2,209.4,59.2z
	 M216,59.2c0.5,0,1,0.1,1.4,0.3c0.4,0.2,0.7,0.5,0.9,0.9v-1.1h1v6.1c0,0.5-0.1,1-0.4,1.5c-0.2,0.4-0.6,0.8-1,1
	c-0.4,0.2-0.9,0.4-1.5,0.4c-0.8,0-1.4-0.2-2-0.6c-0.5-0.4-0.8-0.9-0.9-1.5h1c0.1,0.4,0.3,0.7,0.7,0.9c0.3,0.2,0.8,0.3,1.2,0.3
	c0.5,0,1-0.2,1.3-0.5c0.4-0.3,0.5-0.8,0.5-1.4v-1.3c-0.2,0.4-0.5,0.6-0.9,0.9c-0.4,0.2-0.8,0.4-1.4,0.4c-0.5,0-1-0.1-1.5-0.4
	c-0.4-0.3-0.8-0.6-1-1.1c-0.2-0.5-0.4-1-0.4-1.6c0-0.6,0.1-1.2,0.4-1.6c0.2-0.5,0.6-0.8,1-1.1C215,59.3,215.4,59.2,216,59.2z
	 M218.2,62.3c0-0.5-0.1-0.8-0.3-1.2c-0.2-0.3-0.4-0.6-0.7-0.8c-0.3-0.2-0.6-0.3-1-0.3c-0.4,0-0.7,0.1-1,0.3
	c-0.3,0.2-0.6,0.4-0.7,0.8c-0.2,0.3-0.3,0.7-0.3,1.2c0,0.5,0.1,0.9,0.3,1.2c0.2,0.3,0.4,0.6,0.7,0.8c0.3,0.2,0.6,0.3,1,0.3
	c0.4,0,0.7-0.1,1-0.3c0.3-0.2,0.6-0.4,0.7-0.8C218.1,63.2,218.2,62.8,218.2,62.3z M226.3,60.1H225v5.2h-1v-5.2h-0.8v-0.8h0.8v-0.4
	c0-0.7,0.2-1.2,0.5-1.5c0.4-0.3,0.9-0.5,1.7-0.5v0.8c-0.4,0-0.7,0.1-0.9,0.3c-0.2,0.2-0.3,0.4-0.3,0.8v0.4h1.3V60.1z M232.8,59.3v6
	h-1v-0.9c-0.2,0.3-0.5,0.5-0.8,0.7c-0.3,0.2-0.7,0.3-1.1,0.3c-0.5,0-0.9-0.1-1.3-0.3c-0.4-0.2-0.7-0.5-0.9-0.9
	c-0.2-0.4-0.3-0.9-0.3-1.4v-3.5h1v3.4c0,0.6,0.1,1,0.5,1.4c0.3,0.3,0.7,0.5,1.2,0.5c0.5,0,1-0.2,1.3-0.5s0.5-0.8,0.5-1.4v-3.3H232.8
	z M235.7,60.1v3.5c0,0.3,0.1,0.5,0.2,0.6c0.1,0.1,0.3,0.2,0.6,0.2h0.7v0.8h-0.9c-0.6,0-1-0.1-1.3-0.4c-0.3-0.3-0.4-0.7-0.4-1.3v-3.5
	h-0.8v-0.8h0.8v-1.5h1v1.5h1.6v0.8H235.7z M243.8,59.3v6h-1v-0.9c-0.2,0.3-0.5,0.5-0.8,0.7c-0.3,0.2-0.7,0.3-1.1,0.3
	c-0.5,0-0.9-0.1-1.3-0.3c-0.4-0.2-0.7-0.5-0.9-0.9c-0.2-0.4-0.3-0.9-0.3-1.4v-3.5h1v3.4c0,0.6,0.1,1,0.4,1.4
	c0.3,0.3,0.7,0.5,1.2,0.5c0.5,0,1-0.2,1.3-0.5s0.5-0.8,0.5-1.4v-3.3H243.8z M246.5,60.3c0.2-0.3,0.4-0.6,0.7-0.8
	c0.3-0.2,0.7-0.3,1.2-0.3v1h-0.3c-1.1,0-1.7,0.6-1.7,1.8v3.3h-1v-6h1V60.3z M255,62.1c0,0.2,0,0.4,0,0.6h-4.8c0,0.6,0.2,1.1,0.6,1.4
	c0.4,0.3,0.8,0.5,1.3,0.5c0.4,0,0.8-0.1,1.1-0.3c0.3-0.2,0.5-0.5,0.6-0.8h1.1c-0.2,0.6-0.5,1-1,1.4c-0.5,0.4-1.1,0.5-1.8,0.5
	c-0.6,0-1.1-0.1-1.5-0.4c-0.4-0.3-0.8-0.6-1.1-1.1c-0.3-0.5-0.4-1-0.4-1.6c0-0.6,0.1-1.2,0.4-1.6c0.2-0.5,0.6-0.8,1-1.1
	c0.5-0.3,1-0.4,1.6-0.4c0.6,0,1.1,0.1,1.5,0.4c0.4,0.2,0.8,0.6,1,1C254.9,61,255,61.5,255,62.1z M254,61.9c0-0.4-0.1-0.7-0.3-1
	c-0.2-0.3-0.4-0.5-0.7-0.6c-0.3-0.1-0.6-0.2-1-0.2c-0.5,0-0.9,0.2-1.3,0.5c-0.4,0.3-0.6,0.8-0.6,1.3H254z"/>
<path class="st0" d="M83.3,5.4v22.3h-5.4V5.4H83.3z M107.2,27.7h-5.4L92.7,14v13.8h-5.4V5.4h5.4l9.1,13.8V5.4h5.4V27.7z M131.1,27.7
	h-5.4L116.6,14v13.8h-5.4V5.4h5.4l9.1,13.8V5.4h5.4V27.7z M145.6,28c-2.1,0-4-0.5-5.8-1.5c-1.7-1-3.1-2.3-4.2-4.1
	c-1-1.8-1.5-3.7-1.5-5.9s0.5-4.1,1.5-5.9c1-1.7,2.4-3.1,4.2-4.1c1.8-1,3.7-1.5,5.8-1.5s4,0.5,5.8,1.5c1.8,1,3.1,2.3,4.1,4.1
	c1,1.7,1.5,3.7,1.5,5.9s-0.5,4.2-1.5,5.9c-1,1.7-2.4,3.1-4.1,4.1C149.6,27.5,147.7,28,145.6,28z M145.6,23c1.8,0,3.2-0.6,4.3-1.8
	c1.1-1.2,1.6-2.8,1.6-4.7c0-2-0.5-3.5-1.6-4.7c-1.1-1.2-2.5-1.8-4.3-1.8c-1.8,0-3.2,0.6-4.3,1.7c-1.1,1.2-1.6,2.7-1.6,4.7
	c0,2,0.5,3.5,1.6,4.7C142.4,22.4,143.8,23,145.6,23z"/>
<path class="st0" d="M210.8,5.4v22.3h-5.4v-9.2h-8.5v9.2h-5.4V5.4h5.4v8.7h8.5V5.4H210.8z M220.1,5.4v13.3c0,1.3,0.3,2.4,1,3.1
	c0.7,0.7,1.6,1.1,2.9,1.1c1.3,0,2.2-0.4,2.9-1.1c0.7-0.7,1-1.7,1-3.1V5.4h5.4v13.3c0,2-0.4,3.7-1.3,5.1s-2,2.4-3.4,3.1
	c-1.4,0.7-3,1-4.8,1s-3.3-0.3-4.7-1c-1.4-0.7-2.5-1.7-3.3-3.1c-0.8-1.4-1.2-3.1-1.2-5.1V5.4H220.1z M250.7,16.3
	c1.3,0.3,2.3,0.9,3.1,1.9c0.8,1,1.2,2.1,1.2,3.4c0,1.9-0.7,3.3-2,4.4c-1.3,1.1-3.1,1.6-5.4,1.6h-10.4V5.4h10c2.3,0,4,0.5,5.3,1.6
	c1.3,1,1.9,2.4,1.9,4.2c0,1.3-0.3,2.4-1,3.3C252.7,15.4,251.8,16,250.7,16.3z M242.6,14.4h3.6c0.9,0,1.6-0.2,2-0.6
	c0.5-0.4,0.7-1,0.7-1.7c0-0.8-0.2-1.3-0.7-1.7c-0.5-0.4-1.1-0.6-2-0.6h-3.6V14.4z M246.6,23.3c0.9,0,1.6-0.2,2.1-0.6
	c0.5-0.4,0.8-1,0.8-1.8c0-0.8-0.3-1.4-0.8-1.8c-0.5-0.4-1.2-0.7-2.1-0.7h-3.9v4.9H246.6z"/>
<defs>
	<filter id="Adobe_OpacityMaskFilter" filterUnits="userSpaceOnUse" x="163.2" y="5.6" width="22.1" height="22.1">
		<feColorMatrix  type="matrix" values="1 0 0 0 0  0 1 0 0 0  0 0 1 0 0  0 0 0 1 0"/>
	</filter>
</defs>
<mask maskUnits="userSpaceOnUse" x="163.2" y="5.6" width="22.1" height="22.1" id="mask0_1080_364_00000056400513986654273610000014025452253373203390_">
	<path class="st2" d="M185.3,5.6h-22.1v22.1h22.1V5.6z"/>
</mask>
<g class="st3">
	<path class="st4" d="M174,16.3V9.7l-4.4-4.1v5.7c-5,1.6-4,3.1-3.3,3.7l-3.2,1.7l5.2,2.8l5.2-2.8l-5.2-2.8l-1.9,1
		c-0.8-1.2,1.7-2.7,3.2-3.5v0.7L174,16.3z"/>
	<path class="st5" d="M179.2,21.1l-4.4-4v6.6l1.9,1.8c-0.3,1.7-2.3,0.4-3.7-0.8l1.1-1v-6.6l-4.4,4v6.6l3.1-2.9
		c3.4,4,3.9,1.5,3.9,0.6l2.5,2.3V21.1z"/>
	<path class="st6" d="M180.7,14.3c1.2-6.2-0.9-5.2-1.6-4.7v-4l-4.4,4.1v6.6l4.4-4V9.6c1.6-0.7,1.6,2.6,1.5,4.6l-0.5-0.2l-5.2,2.8
		l5.2,2.8l5.2-2.8L180.7,14.3z"/>
</g>
<defs>
	
		<filter id="Adobe_OpacityMaskFilter_00000101095376191474557450000013324098633242880672_" filterUnits="userSpaceOnUse" x="8.4" y="1.2" width="64.7" height="67.1">
		<feColorMatrix  type="matrix" values="1 0 0 0 0  0 1 0 0 0  0 0 1 0 0  0 0 0 1 0"/>
	</filter>
</defs>
<mask maskUnits="userSpaceOnUse" x="8.4" y="1.2" width="64.7" height="67.1" id="mask1_1080_364_00000148643750483403464640000011567005375756233633_">
	<path style="fill:#FFFFFF;filter:url(#Adobe_OpacityMaskFilter_00000101095376191474557450000013324098633242880672_);" d="
		M73.1,1.2H8.4v67.1h64.7V1.2z"/>
</mask>
<g class="st8">
	<path class="st0" d="M34.1,28.4h13.3v-9c-2.1-2.4-10.9-2.1-13.3,0V28.4z"/>
	<path class="st0" d="M70.6,8.7c-9-4.9-19.4-7.5-29.9-7.5S19.9,3.8,10.8,8.7c-1.6,4.6-2.5,10.6-2.5,15.8C8.4,42.6,19,59.1,34.1,66
		c2.1,1,4.3,1.8,6.6,2.4c2.3-0.6,4.5-1.4,6.6-2.4c15.1-6.9,25.7-23.3,25.7-41.4C73.1,19.4,72.2,13.3,70.6,8.7z M50.9,49.1l-3.5,10
		V34.5c-2.1-2.4-10.9-2.1-13.3,0v24.7l-3.5-10c-6.2-6.2-10.8-15-10.8-24.6c0-2.6,0.3-5.2,0.8-7.7c6.3-2.7,13.2-4.1,20.1-4.1
		c7,0,13.8,1.4,20.1,4.1c0.6,2.5,0.9,5.1,0.9,7.7C61.7,34.1,57.1,42.9,50.9,49.1z"/>
</g>
<path class="st9" d="M14.8,13.8v26.5l0.6,0.7l11.4,13.3v10.9c0,1.1,0.9,2.1,2.1,2.1h9.9V53.3c0-0.1,0.3-7.3-4.9-11.2
	c0,0,0-0.1,0-0.1c0,0,0,0-0.1,0c-2.4-1.8-4.8-3.3-6.5-4.8c-0.5-0.4-0.9-0.8-1.2-1.2c-1.4-1.7-3.1-3.6-5.3-3.6l0,0
	c0,3.8,1.9,6.6,4,8.6c2.2,2,4.7,3.4,6.8,5h0.1c3.2,2.3,3,7.3,3,7.3v9.4h-4V52.3l-0.6-0.7L18.8,38.3V17.8
	C18.8,15.6,17,13.8,14.8,13.8L14.8,13.8z M66.6,13.8c-2.2,0-4,1.8-4,4v20.5L51.2,51.6l-0.6,0.7v10.2h-4v-9.4c0,0-0.1-4.9,3-7.2h0.1
	c2.1-1.6,4.6-3.1,6.8-5c2.2-2,4-4.8,4-8.6l0,0c-2.2,0-3.9,2-5.3,3.6c-0.3,0.4-0.7,0.8-1.2,1.2c-1.7,1.5-4.1,3-6.5,4.8c0,0,0,0-0.1,0
	v0.1c-5.1,3.8-4.9,10.9-4.9,11.2v13.9h9.9c1.1,0,2.1-0.9,2.1-2.1V54.3L66,41l0,0c0.4-0.5,0.6-1,0.6-1.6V13.8L66.6,13.8z"/>
<path class="st10" d="M44.1,14.4c0.3,0.4,0.6,0.8,0.7,1.3l0.5,1.7c0,0.1,0.1,0.2,0.2,0.3c0.1,0.1,0.2,0.1,0.3,0.1
	c0.1,0,0.2,0,0.3-0.1c0.1-0.1,0.2-0.2,0.2-0.3l0.5-1.7c0.2-0.5,0.4-1,0.7-1.3c0.3-0.4,0.8-0.7,1.2-0.8l1.5-0.5
	c0.1,0,0.2-0.1,0.3-0.2c0.1-0.1,0.1-0.2,0.1-0.4s0-0.3-0.1-0.4c-0.1-0.1-0.2-0.2-0.3-0.2l0,0l-1.5-0.5c-0.5-0.2-0.9-0.4-1.2-0.8
	C47.3,10,47,9.6,46.9,9.1l-0.5-1.7c0-0.1-0.1-0.2-0.2-0.3C46.1,7,45.9,7,45.8,7c-0.1,0-0.2,0-0.3,0.1c-0.1,0.1-0.2,0.2-0.2,0.3
	l-0.5,1.7l0,0c-0.2,0.5-0.4,0.9-0.7,1.3c-0.3,0.4-0.7,0.6-1.2,0.8l-1.5,0.5c-0.1,0-0.2,0.1-0.3,0.2C41,12.1,41,12.2,41,12.4
	s0,0.3,0.1,0.4c0.1,0.1,0.2,0.2,0.3,0.2l1.5,0.5C43.3,13.7,43.7,14,44.1,14.4z M52.5,18.2l0.9,0.3l0,0c0.1,0,0.1,0.1,0.2,0.1
	c0,0.1,0.1,0.1,0.1,0.2c0,0.1,0,0.2-0.1,0.2c0,0.1-0.1,0.1-0.2,0.1l-0.9,0.3c-0.3,0.1-0.5,0.3-0.7,0.5c-0.2,0.2-0.4,0.5-0.4,0.8
	l-0.3,1c0,0.1-0.1,0.1-0.1,0.2c-0.1,0-0.1,0.1-0.2,0.1c-0.1,0-0.1,0-0.2-0.1c-0.1,0-0.1-0.1-0.1-0.2l-0.3-1
	c-0.1-0.3-0.2-0.6-0.4-0.8c-0.2-0.2-0.5-0.4-0.7-0.5L48,19.2c-0.1,0-0.1-0.1-0.2-0.1c0-0.1-0.1-0.1-0.1-0.2c0-0.1,0-0.2,0.1-0.2
	c0-0.1,0.1-0.1,0.2-0.1l0.9-0.3c0.3-0.1,0.5-0.3,0.7-0.5c0.2-0.2,0.4-0.5,0.4-0.8l0.3-1c0-0.1,0.1-0.1,0.1-0.2
	c0.1,0,0.1-0.1,0.2-0.1c0.1,0,0.1,0,0.2,0.1c0.1,0,0.1,0.1,0.1,0.2l0.3,1c0.1,0.3,0.2,0.6,0.4,0.8C52,17.9,52.2,18.1,52.5,18.2z
	 M37.8,10.8c0.6-0.4,1.3-0.6,1.9-0.7c0.7,0,1.4,0.1,2,0.4L41,10.8c-0.3,0.1-0.6,0.3-0.8,0.6c-0.2,0.3-0.3,0.6-0.3,1
	c0,0.4,0.1,0.7,0.3,1c0.2,0.3,0.4,0.5,0.8,0.6l1.5,0.5c0.3,0.1,0.6,0.3,0.8,0.6c0.1,0.1,0.1,0.1,0.2,0.2c0.1,0.2,0.3,0.4,0.3,0.7
	l0.5,1.7c0.1,0.3,0.3,0.6,0.6,0.9c0.3,0.2,0.6,0.3,0.9,0.3c0.3,0,0.6-0.1,0.9-0.3l0.1-0.1c0,0.1-0.1,0.3-0.1,0.4
	c0,0.3,0.1,0.6,0.2,0.9c0.2,0.2,0.4,0.4,0.6,0.5l0.9,0.3c0.1,0,0.2,0.1,0.3,0.2l0,0l-6.7,4.9c-0.7,0.5-1.5,0.7-2.3,0.7
	c-0.8,0-1.6-0.3-2.3-0.7l-8.5-6.1v6.6c0,0.2-0.1,0.4-0.2,0.6c-0.1,0.2-0.3,0.2-0.5,0.2c-0.2,0-0.4-0.1-0.5-0.2
	c-0.1-0.2-0.2-0.4-0.2-0.6v-7.8c0,0,0-0.1,0-0.1c0-0.2,0-0.3,0.1-0.5c0.1-0.1,0.2-0.3,0.3-0.4L37.8,10.8z M32.2,23.6l4.7,3.4
	c0.9,0.7,2,1,3.1,1s2.2-0.4,3.1-1l4.7-3.4v5.3c0,0.3-0.2,0.5-0.3,0.7c-0.1,0.1-0.2,0.2-0.4,0.4c-0.5,0.4-1,0.8-1.5,1.2
	c-1.3,0.9-3.2,1.7-5.6,1.7c-2.4,0-4.3-0.9-5.6-1.7c-0.5-0.4-1-0.8-1.5-1.2c-0.1-0.1-0.3-0.3-0.4-0.4c-0.2-0.2-0.3-0.4-0.3-0.7V23.6z
	"/>
</svg>
