<svg width="17" height="16" viewBox="0 0 17 16" fill="none" xmlns="http://www.w3.org/2000/svg">
<g clip-path="url(#clip0_46_232)">
<path d="M15.6665 1.99987C15.0281 2.45019 14.3213 2.79461 13.5732 3.01987C13.1717 2.55821 12.6381 2.231 12.0446 2.08249C11.451 1.93397 10.8262 1.97133 10.2546 2.1895C9.68299 2.40768 9.19217 2.79614 8.84853 3.30235C8.50489 3.80856 8.32501 4.40809 8.33321 5.01987V5.68653C7.16163 5.71691 6.00073 5.45708 4.95388 4.93017C3.90704 4.40325 3.00676 3.62562 2.33321 2.66653C2.33321 2.66653 -0.333455 8.66653 5.66654 11.3332C4.29356 12.2652 2.65798 12.7325 0.999878 12.6665C6.99988 15.9999 14.3332 12.6665 14.3332 4.99987C14.3326 4.81417 14.3147 4.62893 14.2799 4.44653C14.9603 3.77553 15.4404 2.92834 15.6665 1.99987V1.99987Z" stroke="white" stroke-linecap="round" stroke-linejoin="round"/>
</g>
<defs>
<clipPath id="clip0_46_232">
<rect width="16" height="16" fill="white" transform="translate(0.333252)"/>
</clipPath>
</defs>
</svg>
